STARTFONT 2.1
FONT -FontForge-Bungee Shade-Book-R-Normal--16-160-72-72-P-137-ISO10646-1
SIZE 16 72 72
FONTBOUNDINGBOX 41 41 -10 -15
COMMENT "Generated by fontforge, http://fontforge.sourceforge.net"
COMMENT "Copyright 2008 The Bungee Project Authors (david@djr.com)"
STARTPROPERTIES 39
FOUNDRY "FontForge"
FAMILY_NAME "Bungee Shade"
WEIGHT_NAME "Book"
SLANT "R"
SETWIDTH_NAME "Normal"
ADD_STYLE_NAME ""
PIXEL_SIZE 16
POINT_SIZE 160
RESOLUTION_X 72
RESOLUTION_Y 72
SPACING "P"
AVERAGE_WIDTH 137
CHARSET_REGISTRY "ISO10646"
CHARSET_ENCODING "1"
FONTNAME_REGISTRY ""
CHARSET_COLLECTIONS "ISO8859-2 ISO8859-9 ISO8859-4 ISO10646-1"
FONT_NAME "BungeeShade-Regular"
FACE_NAME "Bungee Shade"
COPYRIGHT "Copyright 2008 The Bungee Project Authors (david@djr.com)"
FONT_VERSION "1.000;PS 1.0;hotconv 1.0.72;makeotf.lib2.5.5900"
FONT_ASCENT 14
FONT_DESCENT 2
UNDERLINE_POSITION 0
UNDERLINE_THICKNESS 0
X_HEIGHT 11
CAP_HEIGHT 11
RAW_ASCENT 860
RAW_DESCENT 140
NORM_SPACE 5
RELATIVE_WEIGHT 40
RELATIVE_SETWIDTH 50
SUPERSCRIPT_X 0
SUPERSCRIPT_Y 5
SUPERSCRIPT_SIZE 9
SUBSCRIPT_X 0
SUBSCRIPT_Y 1
SUBSCRIPT_SIZE 9
AVG_LOWERCASE_WIDTH 131
AVG_UPPERCASE_WIDTH 133
ENDPROPERTIES
CHARS 1065
STARTCHAR space
ENCODING 32
SWIDTH 325 0
DWIDTH 5 0
BBX 1 1 0 0
BITMAP
00
ENDCHAR
STARTCHAR exclam
ENCODING 33
SWIDTH 524 0
DWIDTH 8 0
BBX 6 14 1 -2
BITMAP
3C
44
CC
CC
CC
CC
CC
E4
FC
C4
CC
C4
FC
F8
ENDCHAR
STARTCHAR quotedbl
ENCODING 34
SWIDTH 746 0
DWIDTH 12 0
BBX 12 8 0 4
BITMAP
3FF0
6310
EB50
EB50
EB50
E310
FFE0
7FC0
ENDCHAR
STARTCHAR numbersign
ENCODING 35
SWIDTH 850 0
DWIDTH 14 0
BBX 13 14 0 -2
BITMAP
0F78
1888
1BA8
2428
6FF8
75A8
75B8
4448
CFE8
C448
FB50
E320
7FC0
7380
ENDCHAR
STARTCHAR dollar
ENCODING 36
SWIDTH 750 0
DWIDTH 12 0
BBX 12 17 0 -3
BITMAP
0780
0880
1170
2110
67D0
6A20
E9C0
E820
E790
7850
7F50
2050
6F90
E120
F840
FF80
1E00
ENDCHAR
STARTCHAR percent
ENCODING 37
SWIDTH 1131 0
DWIDTH 18 0
BBX 18 14 0 -2
BITMAP
1F7800
2EC800
75D800
F5A800
F5A800
F1B780
EEBB40
FF56C0
7F56C0
0356C0
0354C0
023B40
07FF80
071E00
ENDCHAR
STARTCHAR ampersand
ENCODING 38
SWIDTH 866 0
DWIDTH 14 0
BBX 14 14 0 -2
BITMAP
0FE0
1020
33A0
3420
75C0
74FC
6684
2894
4B94
C818
E7E8
E018
7FE0
3FC0
ENDCHAR
STARTCHAR quotesingle
ENCODING 39
SWIDTH 456 0
DWIDTH 7 0
BBX 6 8 1 4
BITMAP
7C
C4
D4
D4
D4
C4
F8
F0
ENDCHAR
STARTCHAR parenleft
ENCODING 40
SWIDTH 529 0
DWIDTH 8 0
BBX 8 17 0 -3
BITMAP
0F
11
2F
69
6A
EA
EA
EA
EA
EA
EA
E9
E9
E7
F1
7E
3C
ENDCHAR
STARTCHAR parenright
ENCODING 41
SWIDTH 529 0
DWIDTH 8 0
BBX 8 17 0 -3
BITMAP
1E
21
6D
E3
F3
F3
33
33
33
33
33
33
25
69
E2
FC
F0
ENDCHAR
STARTCHAR asterisk
ENCODING 42
SWIDTH 818 0
DWIDTH 13 0
BBX 12 11 1 1
BITMAP
0F80
1880
2BE0
4650
CD90
FAE0
F540
22A0
7340
7F80
3200
ENDCHAR
STARTCHAR plus
ENCODING 43
SWIDTH 834 0
DWIDTH 13 0
BBX 12 12 1 -1
BITMAP
0700
0880
1A80
3AE0
4210
DFD0
C210
FAE0
FAC0
1880
1F00
1E00
ENDCHAR
STARTCHAR comma
ENCODING 44
SWIDTH 484 0
DWIDTH 8 0
BBX 7 9 0 -4
BITMAP
1E
22
6E
E6
FE
6A
64
78
60
ENDCHAR
STARTCHAR hyphen
ENCODING 45
SWIDTH 520 0
DWIDTH 8 0
BBX 8 6 0 2
BITMAP
3F
41
CD
C1
FE
FC
ENDCHAR
STARTCHAR period
ENCODING 46
SWIDTH 484 0
DWIDTH 8 0
BBX 7 7 0 -2
BITMAP
1E
22
6A
EA
E2
FE
78
ENDCHAR
STARTCHAR slash
ENCODING 47
SWIDTH 487 0
DWIDTH 8 0
BBX 8 17 0 -3
BITMAP
0F
11
35
35
35
35
66
66
6A
6A
6A
6A
6A
CC
C4
F8
F0
ENDCHAR
STARTCHAR zero
ENCODING 48
SWIDTH 827 0
DWIDTH 13 0
BBX 12 14 1 -2
BITMAP
1FE0
2F90
5050
D350
D750
D750
D750
D750
D750
D050
CF90
E020
FFC0
3F00
ENDCHAR
STARTCHAR one
ENCODING 49
SWIDTH 701 0
DWIDTH 11 0
BBX 11 14 0 -2
BITMAP
3F80
6080
6E80
7A80
7A80
1A80
1A80
1A80
1A60
2220
6FA0
E020
FFC0
FF80
ENDCHAR
STARTCHAR two
ENCODING 50
SWIDTH 739 0
DWIDTH 12 0
BBX 11 14 0 -2
BITMAP
3FE0
2020
67A0
6060
7F60
7860
17A0
29C0
4BE0
C820
CFE0
C020
FFE0
FF80
ENDCHAR
STARTCHAR three
ENCODING 51
SWIDTH 737 0
DWIDTH 12 0
BBX 12 14 0 -2
BITMAP
3FC0
6020
EF20
E0A0
FEA0
F0C0
37A0
3050
3F50
2050
6F90
E020
FFC0
FF00
ENDCHAR
STARTCHAR four
ENCODING 52
SWIDTH 809 0
DWIDTH 13 0
BBX 11 14 1 -2
BITMAP
7DE0
C620
D660
D660
D660
D260
D060
CFA0
E060
FE60
7E60
0620
07C0
0780
ENDCHAR
STARTCHAR five
ENCODING 53
SWIDTH 747 0
DWIDTH 12 0
BBX 12 14 0 -2
BITMAP
3FE0
6010
6790
6820
69C0
6820
6790
6050
7F50
6050
6F90
E020
FFC0
7F00
ENDCHAR
STARTCHAR six
ENCODING 54
SWIDTH 793 0
DWIDTH 13 0
BBX 11 14 1 -2
BITMAP
1FE0
2FA0
5020
D7C0
D040
DFA0
D060
D760
D760
D060
CFA0
E040
FF80
3F00
ENDCHAR
STARTCHAR seven
ENCODING 55
SWIDTH 727 0
DWIDTH 12 0
BBX 11 14 0 -2
BITMAP
3FE0
4020
CFA0
C060
FE60
FE60
08A0
1320
34C0
7500
7500
7100
7E00
7C00
ENDCHAR
STARTCHAR eight
ENCODING 56
SWIDTH 811 0
DWIDTH 13 0
BBX 13 14 0 -2
BITMAP
0FE0
17D0
2830
69B0
7930
67D0
2828
6BA8
EBA8
E828
E7C8
F010
7FE0
3F80
ENDCHAR
STARTCHAR nine
ENCODING 57
SWIDTH 793 0
DWIDTH 13 0
BBX 12 14 0 -2
BITMAP
1FE0
2790
2850
6B30
EB30
E830
E7F0
F030
7F30
3030
37D0
3020
3FC0
3F80
ENDCHAR
STARTCHAR colon
ENCODING 58
SWIDTH 484 0
DWIDTH 8 0
BBX 7 13 0 -2
BITMAP
1E
22
6A
EA
E2
FE
7E
22
6A
EA
E2
FE
78
ENDCHAR
STARTCHAR semicolon
ENCODING 59
SWIDTH 484 0
DWIDTH 8 0
BBX 7 15 0 -4
BITMAP
1E
22
6A
EA
E2
FE
FE
22
6E
E6
FE
6A
64
78
60
ENDCHAR
STARTCHAR less
ENCODING 60
SWIDTH 814 0
DWIDTH 13 0
BBX 11 12 1 -1
BITMAP
00E0
0F20
31A0
4E20
51C0
D700
D8C0
E7A0
F820
7F20
1FC0
0180
ENDCHAR
STARTCHAR equal
ENCODING 61
SWIDTH 834 0
DWIDTH 13 0
BBX 12 10 1 0
BITMAP
3FE0
5FD0
C010
FFF0
FFC0
4030
DFD0
C010
FFE0
FFC0
ENDCHAR
STARTCHAR greater
ENCODING 62
SWIDTH 814 0
DWIDTH 13 0
BBX 11 12 1 -1
BITMAP
3C00
4380
CE60
C1A0
FC60
7F60
31A0
4E20
C0C0
C700
F800
C000
ENDCHAR
STARTCHAR question
ENCODING 63
SWIDTH 756 0
DWIDTH 12 0
BBX 12 14 0 -2
BITMAP
3FE0
6010
EF90
E050
FF50
F050
1790
3020
3FC0
3100
3500
3100
3E00
3C00
ENDCHAR
STARTCHAR at
ENCODING 64
SWIDTH 967 0
DWIDTH 15 0
BBX 14 17 1 -3
BITMAP
0FE0
1018
7FE4
6FFC
D41C
DBDC
D5DC
D5DC
D5DC
D5DC
DBF4
D808
EFF0
F3E0
FFF0
7FE0
1FC0
ENDCHAR
STARTCHAR A
ENCODING 65
SWIDTH 830 0
DWIDTH 13 0
BBX 13 14 0 -2
BITMAP
0FE0
0810
1390
3550
2528
2BA8
6828
6FE8
6828
EBA8
E388
E388
FDF0
71E0
ENDCHAR
STARTCHAR B
ENCODING 66
SWIDTH 825 0
DWIDTH 13 0
BBX 12 14 1 -2
BITMAP
7FC0
C020
CF20
D2A0
D3A0
D0A0
CF90
D350
D330
D050
CF90
C030
FFC0
FF80
ENDCHAR
STARTCHAR C
ENCODING 67
SWIDTH 728 0
DWIDTH 12 0
BBX 10 14 1 -2
BITMAP
1FC0
2040
4FC0
D040
D780
D700
D400
D400
D3C0
D040
CFC0
E040
FFC0
7F00
ENDCHAR
STARTCHAR D
ENCODING 68
SWIDTH 846 0
DWIDTH 14 0
BBX 12 14 1 -2
BITMAP
7FE0
C010
CF90
D050
D330
D330
D330
D330
D330
D050
CF90
C020
FFC0
FF00
ENDCHAR
STARTCHAR E
ENCODING 69
SWIDTH 754 0
DWIDTH 12 0
BBX 11 14 1 -2
BITMAP
7FE0
C020
CFA0
D020
D3C0
D040
CF40
D380
D3C0
D020
CFA0
C020
FFC0
FF80
ENDCHAR
STARTCHAR F
ENCODING 70
SWIDTH 718 0
DWIDTH 11 0
BBX 10 14 1 -2
BITMAP
7FC0
C040
CFC0
D3C0
D380
D040
CF40
D040
D380
D200
C400
C400
F800
F000
ENDCHAR
STARTCHAR G
ENCODING 71
SWIDTH 808 0
DWIDTH 13 0
BBX 11 14 1 -2
BITMAP
1FE0
2020
4FA0
D020
D7C0
D4E0
D520
D760
D760
D060
CFE0
E020
FFE0
7FC0
ENDCHAR
STARTCHAR H
ENCODING 72
SWIDTH 859 0
DWIDTH 14 0
BBX 12 14 1 -2
BITMAP
7CF0
C510
D330
D330
D330
D030
CFD0
D030
D330
D330
D330
C310
FFE0
F3C0
ENDCHAR
STARTCHAR I
ENCODING 73
SWIDTH 705 0
DWIDTH 11 0
BBX 11 14 0 -2
BITMAP
3FE0
6020
EFA0
FA40
FA80
1A80
1A80
1A80
1A40
2220
6FA0
E020
FFC0
FF80
ENDCHAR
STARTCHAR J
ENCODING 74
SWIDTH 788 0
DWIDTH 13 0
BBX 12 14 0 -2
BITMAP
01F0
0110
0350
0350
0350
1F50
6350
EB50
EB50
E850
E790
F020
7FC0
3F00
ENDCHAR
STARTCHAR K
ENCODING 75
SWIDTH 846 0
DWIDTH 14 0
BBX 12 14 1 -2
BITMAP
7DF0
C510
D260
D2A0
D4A0
D110
CF90
D050
D330
D330
D330
C310
FFE0
F3C0
ENDCHAR
STARTCHAR L
ENCODING 76
SWIDTH 795 0
DWIDTH 13 0
BBX 11 14 1 -2
BITMAP
7C00
C400
D400
D400
D400
D4E0
D520
D360
D360
D060
CFE0
C020
FFE0
FF80
ENDCHAR
STARTCHAR M
ENCODING 77
SWIDTH 949 0
DWIDTH 15 0
BBX 13 14 1 -2
BITMAP
7C78
C288
C9A8
D558
D298
D558
D458
D658
D7D8
D7D8
D5D8
C5C8
F9F8
F0F0
ENDCHAR
STARTCHAR N
ENCODING 78
SWIDTH 853 0
DWIDTH 14 0
BBX 12 14 1 -2
BITMAP
7CF0
C510
DB30
D530
D2B0
D230
D530
D6B0
D650
D730
D730
C710
FBE0
F3C0
ENDCHAR
STARTCHAR O
ENCODING 79
SWIDTH 837 0
DWIDTH 13 0
BBX 12 14 1 -2
BITMAP
1FE0
2F90
5050
D350
D750
D750
D750
D750
D750
D050
CF90
E020
FFC0
3F00
ENDCHAR
STARTCHAR P
ENCODING 80
SWIDTH 782 0
DWIDTH 13 0
BBX 11 14 1 -2
BITMAP
7FC0
C020
CFA0
D060
D360
D360
D060
CFA0
D040
D380
D300
C400
F800
F000
ENDCHAR
STARTCHAR Q
ENCODING 81
SWIDTH 837 0
DWIDTH 13 0
BBX 12 15 1 -3
BITMAP
1FE0
2F90
5050
D750
D750
D750
D750
D750
D750
D050
CF90
F260
F880
1F00
1E00
ENDCHAR
STARTCHAR R
ENCODING 82
SWIDTH 843 0
DWIDTH 13 0
BBX 12 14 1 -2
BITMAP
7FC0
C020
CF10
D290
D260
D0A0
CFD0
D030
D330
D330
C310
C710
FBE0
F3C0
ENDCHAR
STARTCHAR S
ENCODING 83
SWIDTH 750 0
DWIDTH 12 0
BBX 12 14 0 -2
BITMAP
1FF0
2010
67D0
6820
EBC0
E820
E790
7850
7F50
2050
6F90
E020
FFC0
FF00
ENDCHAR
STARTCHAR T
ENCODING 84
SWIDTH 756 0
DWIDTH 12 0
BBX 12 14 0 -2
BITMAP
3FF0
4010
CFD0
C110
F960
F940
1940
1940
1940
1940
1940
1840
1F80
1E00
ENDCHAR
STARTCHAR U
ENCODING 85
SWIDTH 846 0
DWIDTH 14 0
BBX 12 14 1 -2
BITMAP
7CF0
C510
D350
D350
D350
D350
D350
D350
D350
D050
CF90
E020
FFC0
3F00
ENDCHAR
STARTCHAR V
ENCODING 86
SWIDTH 830 0
DWIDTH 13 0
BBX 13 14 0 -2
BITMAP
3EF8
6288
EBA8
EBA8
EBA8
EBA8
E9A8
6528
7550
7450
7390
3820
3FC0
1F80
ENDCHAR
STARTCHAR W
ENCODING 87
SWIDTH 931 0
DWIDTH 15 0
BBX 13 14 1 -2
BITMAP
7C78
C4C8
D5D8
D5D8
D7D8
D458
D558
D298
D458
D558
E928
E388
FFF0
7BC0
ENDCHAR
STARTCHAR X
ENCODING 88
SWIDTH 837 0
DWIDTH 13 0
BBX 12 14 1 -2
BITMAP
7DF0
C510
D750
D350
C850
E4A0
F740
68A0
4A50
D750
D750
C710
FBE0
F3C0
ENDCHAR
STARTCHAR Y
ENCODING 89
SWIDTH 805 0
DWIDTH 13 0
BBX 13 14 0 -2
BITMAP
3EF8
6388
EBA8
EBA8
E928
E548
F450
73A0
7920
3D40
1D40
1C40
1F80
1F00
ENDCHAR
STARTCHAR Z
ENCODING 90
SWIDTH 760 0
DWIDTH 12 0
BBX 12 14 0 -2
BITMAP
3FF0
2010
6FD0
6050
7EA0
7D40
0940
1280
25E0
6810
67D0
E010
FFE0
FFC0
ENDCHAR
STARTCHAR bracketleft
ENCODING 91
SWIDTH 529 0
DWIDTH 8 0
BBX 8 17 0 -3
BITMAP
1F
21
EF
E9
EA
EA
EA
EA
EA
EA
EA
EB
E9
EF
E1
FE
FC
ENDCHAR
STARTCHAR backslash
ENCODING 92
SWIDTH 487 0
DWIDTH 8 0
BBX 8 17 0 -3
BITMAP
3C
44
CA
EA
EA
EA
6A
6A
66
65
75
75
75
35
31
3E
3C
ENDCHAR
STARTCHAR bracketright
ENCODING 93
SWIDTH 529 0
DWIDTH 8 0
BBX 8 17 0 -3
BITMAP
1F
21
6F
E3
F3
F3
33
33
33
33
33
33
23
6D
E1
FE
FC
ENDCHAR
STARTCHAR asciicircum
ENCODING 94
SWIDTH 814 0
DWIDTH 13 0
BBX 12 11 0 1
BITMAP
07C0
0B20
14A0
3560
3550
2950
6B50
6BB0
6390
FFF0
F1C0
ENDCHAR
STARTCHAR underscore
ENCODING 95
SWIDTH 834 0
DWIDTH 13 0
BBX 12 6 1 -4
BITMAP
3FE0
4010
DFD0
C010
FFE0
FFC0
ENDCHAR
STARTCHAR grave
ENCODING 96
SWIDTH 600 0
DWIDTH 10 0
BBX 9 6 0 10
BITMAP
3F00
4080
CF80
FC80
FF00
0E00
ENDCHAR
STARTCHAR a
ENCODING 97
SWIDTH 830 0
DWIDTH 13 0
BBX 13 14 0 -2
BITMAP
0FE0
0810
1390
3550
2528
2BA8
6828
6FE8
6828
EBA8
E388
E388
FDF0
71E0
ENDCHAR
STARTCHAR b
ENCODING 98
SWIDTH 825 0
DWIDTH 13 0
BBX 12 14 1 -2
BITMAP
7FC0
C020
CF20
D2A0
D3A0
D0A0
CF90
D350
D330
D050
CF90
C030
FFC0
FF80
ENDCHAR
STARTCHAR c
ENCODING 99
SWIDTH 728 0
DWIDTH 12 0
BBX 10 14 1 -2
BITMAP
1FC0
2040
4FC0
D040
D780
D700
D400
D400
D3C0
D040
CFC0
E040
FFC0
7F00
ENDCHAR
STARTCHAR d
ENCODING 100
SWIDTH 846 0
DWIDTH 14 0
BBX 12 14 1 -2
BITMAP
7FE0
C010
CF90
D050
D330
D330
D330
D330
D330
D050
CF90
C020
FFC0
FF00
ENDCHAR
STARTCHAR e
ENCODING 101
SWIDTH 754 0
DWIDTH 12 0
BBX 11 14 1 -2
BITMAP
7FE0
C020
CFA0
D020
D3C0
D040
CF40
D380
D3C0
D020
CFA0
C020
FFC0
FF80
ENDCHAR
STARTCHAR f
ENCODING 102
SWIDTH 718 0
DWIDTH 11 0
BBX 10 14 1 -2
BITMAP
7FC0
C040
CFC0
D3C0
D380
D040
CF40
D040
D380
D200
C400
C400
F800
F000
ENDCHAR
STARTCHAR g
ENCODING 103
SWIDTH 808 0
DWIDTH 13 0
BBX 11 14 1 -2
BITMAP
1FE0
2020
4FA0
D020
D7C0
D4E0
D520
D760
D760
D060
CFE0
E020
FFE0
7FC0
ENDCHAR
STARTCHAR h
ENCODING 104
SWIDTH 859 0
DWIDTH 14 0
BBX 12 14 1 -2
BITMAP
7CF0
C510
D330
D330
D330
D030
CFD0
D030
D330
D330
D330
C310
FFE0
F3C0
ENDCHAR
STARTCHAR i
ENCODING 105
SWIDTH 705 0
DWIDTH 11 0
BBX 11 14 0 -2
BITMAP
3FE0
6020
EFA0
FA40
FA80
1A80
1A80
1A80
1A40
2220
6FA0
E020
FFC0
FF80
ENDCHAR
STARTCHAR j
ENCODING 106
SWIDTH 788 0
DWIDTH 13 0
BBX 12 14 0 -2
BITMAP
01F0
0110
0350
0350
0350
1F50
6350
EB50
EB50
E850
E790
F020
7FC0
3F00
ENDCHAR
STARTCHAR k
ENCODING 107
SWIDTH 846 0
DWIDTH 14 0
BBX 12 14 1 -2
BITMAP
7DF0
C510
D260
D2A0
D4A0
D110
CF90
D050
D330
D330
D330
C310
FFE0
F3C0
ENDCHAR
STARTCHAR l
ENCODING 108
SWIDTH 795 0
DWIDTH 13 0
BBX 11 14 1 -2
BITMAP
7C00
C400
D400
D400
D400
D4E0
D520
D360
D360
D060
CFE0
C020
FFE0
FF80
ENDCHAR
STARTCHAR m
ENCODING 109
SWIDTH 949 0
DWIDTH 15 0
BBX 13 14 1 -2
BITMAP
7C78
C288
C9A8
D558
D298
D558
D458
D658
D7D8
D7D8
D5D8
C5C8
F9F8
F0F0
ENDCHAR
STARTCHAR n
ENCODING 110
SWIDTH 853 0
DWIDTH 14 0
BBX 12 14 1 -2
BITMAP
7CF0
C510
DB30
D530
D2B0
D230
D530
D6B0
D650
D730
D730
C710
FBE0
F3C0
ENDCHAR
STARTCHAR o
ENCODING 111
SWIDTH 837 0
DWIDTH 13 0
BBX 12 14 1 -2
BITMAP
1FE0
2F90
5050
D350
D750
D750
D750
D750
D750
D050
CF90
E020
FFC0
3F00
ENDCHAR
STARTCHAR p
ENCODING 112
SWIDTH 782 0
DWIDTH 13 0
BBX 11 14 1 -2
BITMAP
7FC0
C020
CFA0
D060
D360
D360
D060
CFA0
D040
D380
D300
C400
F800
F000
ENDCHAR
STARTCHAR q
ENCODING 113
SWIDTH 837 0
DWIDTH 13 0
BBX 12 15 1 -3
BITMAP
1FE0
2F90
5050
D750
D750
D750
D750
D750
D750
D050
CF90
F260
F880
1F00
1E00
ENDCHAR
STARTCHAR r
ENCODING 114
SWIDTH 843 0
DWIDTH 13 0
BBX 12 14 1 -2
BITMAP
7FC0
C020
CF10
D290
D260
D0A0
CFD0
D030
D330
D330
C310
C710
FBE0
F3C0
ENDCHAR
STARTCHAR s
ENCODING 115
SWIDTH 750 0
DWIDTH 12 0
BBX 12 14 0 -2
BITMAP
1FF0
2010
67D0
6820
EBC0
E820
E790
7850
7F50
2050
6F90
E020
FFC0
FF00
ENDCHAR
STARTCHAR t
ENCODING 116
SWIDTH 756 0
DWIDTH 12 0
BBX 12 14 0 -2
BITMAP
3FF0
4010
CFD0
C110
F960
F940
1940
1940
1940
1940
1940
1840
1F80
1E00
ENDCHAR
STARTCHAR u
ENCODING 117
SWIDTH 846 0
DWIDTH 14 0
BBX 12 14 1 -2
BITMAP
7CF0
C510
D350
D350
D350
D350
D350
D350
D350
D050
CF90
E020
FFC0
3F00
ENDCHAR
STARTCHAR v
ENCODING 118
SWIDTH 830 0
DWIDTH 13 0
BBX 13 14 0 -2
BITMAP
3EF8
6288
EBA8
EBA8
EBA8
EBA8
E9A8
6528
7550
7450
7390
3820
3FC0
1F80
ENDCHAR
STARTCHAR w
ENCODING 119
SWIDTH 931 0
DWIDTH 15 0
BBX 13 14 1 -2
BITMAP
7C78
C4C8
D5D8
D5D8
D7D8
D458
D558
D298
D458
D558
E928
E388
FFF0
7BC0
ENDCHAR
STARTCHAR x
ENCODING 120
SWIDTH 837 0
DWIDTH 13 0
BBX 12 14 1 -2
BITMAP
7DF0
C510
D750
D350
C850
E4A0
F740
68A0
4A50
D750
D750
C710
FBE0
F3C0
ENDCHAR
STARTCHAR y
ENCODING 121
SWIDTH 805 0
DWIDTH 13 0
BBX 13 14 0 -2
BITMAP
3EF8
6388
EBA8
EBA8
E928
E548
F450
73A0
7920
3D40
1D40
1C40
1F80
1F00
ENDCHAR
STARTCHAR z
ENCODING 122
SWIDTH 760 0
DWIDTH 12 0
BBX 12 14 0 -2
BITMAP
3FF0
2010
6FD0
6050
7EA0
7D40
0940
1280
25E0
6810
67D0
E010
FFE0
FFC0
ENDCHAR
STARTCHAR braceleft
ENCODING 123
SWIDTH 555 0
DWIDTH 9 0
BBX 9 17 0 -3
BITMAP
0700
1880
2680
2480
6500
6600
4A00
5400
CA00
E600
E600
6500
6480
7280
7880
7F00
1E00
ENDCHAR
STARTCHAR bar
ENCODING 124
SWIDTH 447 0
DWIDTH 7 0
BBX 6 17 1 -3
BITMAP
38
44
D4
D4
D4
D4
D4
D4
D4
D4
D4
D4
D4
D4
C4
F8
F0
ENDCHAR
STARTCHAR braceright
ENCODING 125
SWIDTH 555 0
DWIDTH 9 0
BBX 9 17 0 -3
BITMAP
1C00
2300
6D00
E500
F500
F500
3480
3280
3E80
3480
3500
3500
2500
6900
E200
FC00
F000
ENDCHAR
STARTCHAR asciitilde
ENCODING 126
SWIDTH 834 0
DWIDTH 13 0
BBX 12 7 1 2
BITMAP
3F30
40D0
5F50
C090
FF20
FFC0
0300
ENDCHAR
STARTCHAR uni00A0
ENCODING 160
SWIDTH 325 0
DWIDTH 5 0
BBX 1 1 0 0
BITMAP
00
ENDCHAR
STARTCHAR exclamdown
ENCODING 161
SWIDTH 523 0
DWIDTH 8 0
BBX 6 14 1 -2
BITMAP
3C
44
CC
C4
FC
C4
CC
CC
CC
CC
C4
C4
FC
F8
ENDCHAR
STARTCHAR cent
ENCODING 162
SWIDTH 728 0
DWIDTH 12 0
BBX 10 16 1 -3
BITMAP
0700
0880
3240
4FC0
5040
D3C0
D780
D400
D400
D3C0
D040
CFC0
F240
7880
1F00
1E00
ENDCHAR
STARTCHAR sterling
ENCODING 163
SWIDTH 795 0
DWIDTH 13 0
BBX 12 14 0 -2
BITMAP
0FE0
1020
27A0
6820
69C0
4880
CD70
C890
E9B0
E830
67F0
6010
7FF0
7FC0
ENDCHAR
STARTCHAR currency
ENCODING 164
SWIDTH 921 0
DWIDTH 15 0
BBX 14 14 0 -2
BITMAP
1818
2DE4
67D4
F424
75D8
35D8
35D8
35D8
3428
27D4
280C
F7F4
7F78
2020
ENDCHAR
STARTCHAR yen
ENCODING 165
SWIDTH 803 0
DWIDTH 13 0
BBX 13 14 0 -2
BITMAP
3EF8
6288
EBA8
EBA8
E9A8
E550
7450
7BA0
27D0
6110
7D60
7C40
1F80
1F00
ENDCHAR
STARTCHAR brokenbar
ENCODING 166
SWIDTH 447 0
DWIDTH 7 0
BBX 6 17 1 -3
BITMAP
38
44
D4
D4
D4
D4
C4
F8
F8
44
D4
D4
D4
D4
C4
F8
F0
ENDCHAR
STARTCHAR section
ENCODING 167
SWIDTH 750 0
DWIDTH 12 0
BBX 12 14 0 -2
BITMAP
0FF0
17D0
2810
6BE0
6FA0
E850
EB30
E7D0
7030
7F50
2F90
6020
7FC0
7F00
ENDCHAR
STARTCHAR dieresis
ENCODING 168
SWIDTH 600 0
DWIDTH 10 0
BBX 10 6 0 10
BITMAP
3B80
4440
D540
C440
FF80
FF00
ENDCHAR
STARTCHAR copyright
ENCODING 169
SWIDTH 967 0
DWIDTH 15 0
BBX 14 17 1 -3
BITMAP
0FE0
1018
7FE4
6C1C
DBDC
DC1C
DDFC
DDBC
DD3C
DDFC
DBDC
D81C
EFFC
F3C8
FFB0
7FE0
1F80
ENDCHAR
STARTCHAR ordfeminine
ENCODING 170
SWIDTH 620 0
DWIDTH 10 0
BBX 10 14 0 -2
BITMAP
1F80
2680
6940
6D40
52C0
CF40
D0C0
C640
E640
FF80
4F40
C040
FF80
FF00
ENDCHAR
STARTCHAR guillemotleft
ENCODING 171
SWIDTH 912 0
DWIDTH 15 0
BBX 14 10 0 0
BITMAP
071C
18E4
269C
68A4
6BB8
E8A4
E69C
F8E4
7FFC
1E70
ENDCHAR
STARTCHAR logicalnot
ENCODING 172
SWIDTH 834 0
DWIDTH 13 0
BBX 12 9 1 -1
BITMAP
3FE0
5FD0
C050
FF50
FF50
0350
0310
03E0
03C0
ENDCHAR
STARTCHAR uni00AD
ENCODING 173
SWIDTH 520 0
DWIDTH 8 0
BBX 8 6 0 2
BITMAP
3F
41
CD
C1
FE
FC
ENDCHAR
STARTCHAR registered
ENCODING 174
SWIDTH 660 0
DWIDTH 11 0
BBX 9 10 1 2
BITMAP
3F00
5F80
DD80
D580
DF80
D580
FF80
EE80
FF00
7C00
ENDCHAR
STARTCHAR macron
ENCODING 175
SWIDTH 600 0
DWIDTH 10 0
BBX 9 5 0 10
BITMAP
3F80
4F80
C080
FF80
FE00
ENDCHAR
STARTCHAR degree
ENCODING 176
SWIDTH 583 0
DWIDTH 9 0
BBX 9 9 0 3
BITMAP
1F80
2E80
7180
F780
F780
EE80
F100
7E00
3800
ENDCHAR
STARTCHAR plusminus
ENCODING 177
SWIDTH 834 0
DWIDTH 13 0
BBX 12 14 1 -2
BITMAP
0780
0880
1A80
3AE0
4210
DFD0
C210
FAE0
FAC0
38E0
5FD0
C010
FFE0
FFC0
ENDCHAR
STARTCHAR twosuperior
ENCODING 178
SWIDTH 585 0
DWIDTH 9 0
BBX 9 10 0 2
BITMAP
3F80
6E80
6580
7980
6E80
7100
D780
CF80
FF80
FE00
ENDCHAR
STARTCHAR threesuperior
ENCODING 179
SWIDTH 584 0
DWIDTH 9 0
BBX 9 10 0 2
BITMAP
3F00
6C80
FE80
F300
3680
7D80
6180
6E80
FF00
FC00
ENDCHAR
STARTCHAR acute
ENCODING 180
SWIDTH 600 0
DWIDTH 10 0
BBX 9 6 0 10
BITMAP
0F80
3180
5E80
E380
FF00
E000
ENDCHAR
STARTCHAR mu
ENCODING 181
SWIDTH 813 0
DWIDTH 13 0
BBX 12 13 1 -3
BITMAP
38E0
4510
D750
D750
D750
D750
D750
D050
DF90
D060
C780
FF00
F000
ENDCHAR
STARTCHAR paragraph
ENCODING 182
SWIDTH 782 0
DWIDTH 13 0
BBX 12 14 0 -2
BITMAP
1FF0
2010
67D0
C830
D030
D030
C830
E7D0
F230
7AB0
3AB0
1890
1FE0
1FC0
ENDCHAR
STARTCHAR periodcentered
ENCODING 183
SWIDTH 464 0
DWIDTH 7 0
BBX 7 7 0 2
BITMAP
1E
22
EA
EA
E2
FC
F8
ENDCHAR
STARTCHAR cedilla
ENCODING 184
SWIDTH 600 0
DWIDTH 10 0
BBX 7 7 1 -4
BITMAP
08
16
2A
6A
64
78
F0
ENDCHAR
STARTCHAR onesuperior
ENCODING 185
SWIDTH 557 0
DWIDTH 9 0
BBX 9 10 0 2
BITMAP
3F00
6D00
6500
7500
7500
3500
3500
6E80
FF00
FE00
ENDCHAR
STARTCHAR ordmasculine
ENCODING 186
SWIDTH 625 0
DWIDTH 10 0
BBX 10 14 0 -2
BITMAP
1F80
2F40
50C0
D6C0
D6C0
D6C0
D6C0
EF40
F080
7F80
4F40
C040
FF80
FF00
ENDCHAR
STARTCHAR guillemotright
ENCODING 187
SWIDTH 912 0
DWIDTH 15 0
BBX 13 11 1 -1
BITMAP
2180
5F70
D148
CD38
F5D8
C518
5968
C710
FFE0
F7C0
8600
ENDCHAR
STARTCHAR onequarter
ENCODING 188
SWIDTH 1303 0
DWIDTH 21 0
BBX 20 14 0 -2
BITMAP
3F3C00
6D4400
65D400
75D730
75D4D0
35D6F0
35D6F0
6EAE30
E0ADF0
FFAC30
FFAFF0
018FD0
01F1F0
03C1E0
ENDCHAR
STARTCHAR onehalf
ENCODING 189
SWIDTH 1260 0
DWIDTH 20 0
BBX 20 14 0 -2
BITMAP
3F3C00
6D4400
65D400
75D7E0
35D5D0
35D430
35D7B0
6EACD0
E0A920
FFAAF0
FFAA10
0189F0
01FFE0
03DFC0
ENDCHAR
STARTCHAR threequarters
ENCODING 190
SWIDTH 1313 0
DWIDTH 21 0
BBX 21 14 0 -2
BITMAP
3F3C00
6CA400
E2D400
FFD730
3654C8
7155D8
7D55D8
6E5558
E0ACE8
FFAC18
FDAFD8
018FC8
01F0F0
01C0E0
ENDCHAR
STARTCHAR questiondown
ENCODING 191
SWIDTH 756 0
DWIDTH 12 0
BBX 12 14 0 -2
BITMAP
03E0
0420
0CA0
0C20
0BC0
1020
27A0
68C0
EBE0
E810
E7D0
F010
7FE0
3FC0
ENDCHAR
STARTCHAR Agrave
ENCODING 192
SWIDTH 830 0
DWIDTH 13 0
BBX 13 18 0 -2
BITMAP
0F00
10F0
33D0
3E10
3FE0
1820
1390
3550
2528
2BA8
6828
6FE8
6828
EBA8
E388
E388
FDF0
71E0
ENDCHAR
STARTCHAR Aacute
ENCODING 193
SWIDTH 830 0
DWIDTH 13 0
BBX 13 18 0 -2
BITMAP
02E0
0DD0
1210
33E0
3C20
3010
1390
3550
2528
2BA8
6828
6FE8
6828
EBA8
E388
E388
FDF0
71E0
ENDCHAR
STARTCHAR Acircumflex
ENCODING 194
SWIDTH 830 0
DWIDTH 13 0
BBX 13 18 0 -2
BITMAP
0140
0FA0
1050
37D0
3820
3020
1390
3550
2528
2BA8
6828
6FE8
6828
EBA8
E388
E388
FDF0
71E0
ENDCHAR
STARTCHAR Atilde
ENCODING 195
SWIDTH 830 0
DWIDTH 13 0
BBX 13 18 0 -2
BITMAP
07E0
0810
13D0
3020
3FC0
3820
1390
3550
2528
2BA8
6828
6FE8
6828
EBA8
E388
E388
FDF0
71E0
ENDCHAR
STARTCHAR Adieresis
ENCODING 196
SWIDTH 830 0
DWIDTH 13 0
BBX 13 18 0 -2
BITMAP
0EE0
1110
3550
3110
3FE0
3820
1390
3550
2530
2BA8
6828
6FE8
6828
EBA8
E388
E388
FDF0
71E0
ENDCHAR
STARTCHAR Aring
ENCODING 197
SWIDTH 830 0
DWIDTH 13 0
BBX 13 18 0 -2
BITMAP
07C0
0BA0
1450
35D0
35D0
3BA0
3390
3550
2530
6BA8
6828
6FE8
6828
EBA8
E388
E388
FDF0
71E0
ENDCHAR
STARTCHAR AE
ENCODING 198
SWIDTH 1105 0
DWIDTH 18 0
BBX 17 14 0 -2
BITMAP
0FFF80
100080
33FF80
35A780
25A100
6BA100
683D00
6FE600
682780
EBA080
EB9F80
E38080
FDFF00
71FE00
ENDCHAR
STARTCHAR Ccedilla
ENCODING 199
SWIDTH 728 0
DWIDTH 12 0
BBX 10 16 1 -4
BITMAP
1FC0
2FC0
5040
D3C0
D700
D400
D400
D400
D3C0
D040
CFC0
E240
FA80
7900
1E00
3C00
ENDCHAR
STARTCHAR Egrave
ENCODING 200
SWIDTH 754 0
DWIDTH 12 0
BBX 11 18 1 -2
BITMAP
1F00
6CC0
E340
FF40
40A0
4020
CFA0
D020
D3C0
D040
CF40
D380
D3C0
D020
CFA0
C020
FFC0
FF80
ENDCHAR
STARTCHAR Eacute
ENCODING 201
SWIDTH 754 0
DWIDTH 12 0
BBX 11 18 1 -2
BITMAP
0DC0
3340
6440
6780
5860
C020
CFA0
D020
D3C0
D040
CF40
D380
D3C0
D020
CFA0
C020
FFC0
FF80
ENDCHAR
STARTCHAR Ecircumflex
ENCODING 202
SWIDTH 754 0
DWIDTH 12 0
BBX 11 18 1 -2
BITMAP
0200
1FC0
2040
7FC0
4020
4020
CFA0
D020
D3C0
D040
CF40
D380
D3C0
D020
CFA0
C020
FFC0
FF80
ENDCHAR
STARTCHAR Edieresis
ENCODING 203
SWIDTH 754 0
DWIDTH 12 0
BBX 11 18 1 -2
BITMAP
1DC0
2220
6AA0
E220
FFE0
C020
CFA0
D020
D3C0
D040
CF40
D380
D3C0
D020
CFA0
C020
FFC0
FF80
ENDCHAR
STARTCHAR Igrave
ENCODING 204
SWIDTH 705 0
DWIDTH 11 0
BBX 11 18 0 -2
BITMAP
1F80
2660
61A0
7F20
60E0
2020
EFA0
FA40
FA80
1A80
1A80
1A80
1A40
2220
6FA0
E020
FFC0
FF80
ENDCHAR
STARTCHAR Iacute
ENCODING 205
SWIDTH 705 0
DWIDTH 11 0
BBX 11 18 0 -2
BITMAP
05C0
1BA0
2420
67C0
7860
6020
6FA0
FA40
FA80
1A80
1A80
1A80
1A40
2220
6FA0
E020
FFC0
FF80
ENDCHAR
STARTCHAR Icircumflex
ENCODING 206
SWIDTH 705 0
DWIDTH 11 0
BBX 11 18 0 -2
BITMAP
0280
1F40
20A0
7FE0
6020
6020
6FA0
FA40
FA80
1A80
1A80
1A80
1A40
2220
6FA0
E020
FFC0
FF80
ENDCHAR
STARTCHAR Idieresis
ENCODING 207
SWIDTH 705 0
DWIDTH 11 0
BBX 11 18 0 -2
BITMAP
1DC0
2220
6AA0
6220
7FE0
6020
6FA0
FA40
FA80
1A80
1A80
1A80
1A40
2220
6FA0
E020
FFC0
FF80
ENDCHAR
STARTCHAR Eth
ENCODING 208
SWIDTH 856 0
DWIDTH 14 0
BBX 13 14 0 -2
BITMAP
3FF0
2008
67E8
6818
6998
4898
4C98
C898
E998
E818
67E8
6010
7FE0
7FC0
ENDCHAR
STARTCHAR Ntilde
ENCODING 209
SWIDTH 853 0
DWIDTH 14 0
BBX 12 18 1 -2
BITMAP
0FC0
1020
37A0
7840
47B0
4310
D930
D530
D2B0
D230
D530
D6B0
D650
D730
D730
C710
FBE0
F3C0
ENDCHAR
STARTCHAR Ograve
ENCODING 210
SWIDTH 837 0
DWIDTH 13 0
BBX 12 18 1 -2
BITMAP
1F00
24E0
63A0
7FA0
6060
4F90
5050
D350
D750
D750
D750
D750
D750
D050
CF90
E020
FFC0
3F00
ENDCHAR
STARTCHAR Oacute
ENCODING 211
SWIDTH 837 0
DWIDTH 13 0
BBX 12 18 1 -2
BITMAP
07C0
19A0
2620
67C0
7860
4F90
5050
D350
D750
D750
D750
D750
D750
D050
CF90
E020
FFC0
3F00
ENDCHAR
STARTCHAR Ocircumflex
ENCODING 212
SWIDTH 837 0
DWIDTH 13 0
BBX 12 18 1 -2
BITMAP
0280
1F40
20A0
6FA0
7060
4F90
5050
D350
D750
D750
D750
D750
D750
D050
CF90
E020
FFC0
3F00
ENDCHAR
STARTCHAR Otilde
ENCODING 213
SWIDTH 837 0
DWIDTH 13 0
BBX 12 18 1 -2
BITMAP
0FC0
1020
27A0
6440
7BE0
4F90
5050
D350
D750
D750
D750
D750
D750
D050
CF90
E020
FFC0
3F00
ENDCHAR
STARTCHAR Odieresis
ENCODING 214
SWIDTH 837 0
DWIDTH 13 0
BBX 12 18 1 -2
BITMAP
1DC0
2220
6AA0
6220
7DC0
2FB0
5050
D350
D750
D750
D750
D750
D750
D050
CF90
E020
FFC0
3F00
ENDCHAR
STARTCHAR multiply
ENCODING 215
SWIDTH 834 0
DWIDTH 13 0
BBX 11 11 1 -1
BITMAP
18E0
2520
6AA0
F540
7A80
3540
28A0
4320
EFA0
F3C0
6100
ENDCHAR
STARTCHAR Oslash
ENCODING 216
SWIDTH 837 0
DWIDTH 13 0
BBX 12 16 1 -3
BITMAP
00E0
1F20
2F90
50D0
D730
D530
D6B0
D6B0
D330
D530
D450
CB90
E820
E3C0
7F00
F000
ENDCHAR
STARTCHAR Ugrave
ENCODING 217
SWIDTH 846 0
DWIDTH 14 0
BBX 12 18 1 -2
BITMAP
1F80
2660
61A0
7C20
47D0
C510
D350
D350
D350
D350
D350
D350
D350
D050
CF90
E020
FFC0
3F00
ENDCHAR
STARTCHAR Uacute
ENCODING 218
SWIDTH 846 0
DWIDTH 14 0
BBX 12 18 1 -2
BITMAP
07C0
19A0
3620
70C0
4F30
C510
D350
D350
D350
D350
D350
D350
D350
D050
CF90
E020
FFC0
3F00
ENDCHAR
STARTCHAR Ucircumflex
ENCODING 219
SWIDTH 846 0
DWIDTH 14 0
BBX 12 18 1 -2
BITMAP
0280
1F60
20A0
7FE0
4710
C510
D350
D350
D350
D350
D350
D350
D350
D050
CF90
E020
FFC0
3F00
ENDCHAR
STARTCHAR Udieresis
ENCODING 220
SWIDTH 846 0
DWIDTH 14 0
BBX 12 18 1 -2
BITMAP
1DC0
2220
6AA0
6220
7FF0
C310
D350
D350
D350
D350
D350
D350
D350
D050
CF90
E020
FFC0
3F00
ENDCHAR
STARTCHAR Yacute
ENCODING 221
SWIDTH 805 0
DWIDTH 13 0
BBX 13 18 0 -2
BITMAP
02E0
0DD0
1210
30E0
2FB8
6388
EBA8
EBA8
E928
E548
F450
73A0
7920
3D40
1D40
1C40
1F80
1F00
ENDCHAR
STARTCHAR Thorn
ENCODING 222
SWIDTH 792 0
DWIDTH 13 0
BBX 11 14 1 -2
BITMAP
7C00
C400
D3C0
CFA0
D060
D360
D360
D060
D060
CFA0
D3C0
C700
F800
F000
ENDCHAR
STARTCHAR germandbls
ENCODING 223
SWIDTH 859 0
DWIDTH 14 0
BBX 13 14 1 -2
BITMAP
7FC0
C020
CF20
D0A0
D2A0
D290
D2C8
D3A8
D3A8
D228
D2C8
C210
FFE0
FF80
ENDCHAR
STARTCHAR agrave
ENCODING 224
SWIDTH 830 0
DWIDTH 13 0
BBX 13 18 0 -2
BITMAP
0F00
10F0
33D0
3E10
3FE0
1820
1390
3550
2528
2BA8
6828
6FE8
6828
EBA8
E388
E388
FDF0
71E0
ENDCHAR
STARTCHAR aacute
ENCODING 225
SWIDTH 830 0
DWIDTH 13 0
BBX 13 18 0 -2
BITMAP
02E0
0DD0
1210
33E0
3C20
3010
1390
3550
2528
2BA8
6828
6FE8
6828
EBA8
E388
E388
FDF0
71E0
ENDCHAR
STARTCHAR acircumflex
ENCODING 226
SWIDTH 830 0
DWIDTH 13 0
BBX 13 18 0 -2
BITMAP
0140
0FA0
1050
37D0
3820
3020
1390
3550
2528
2BA8
6828
6FE8
6828
EBA8
E388
E388
FDF0
71E0
ENDCHAR
STARTCHAR atilde
ENCODING 227
SWIDTH 830 0
DWIDTH 13 0
BBX 13 18 0 -2
BITMAP
07E0
0810
13D0
3020
3FC0
3820
1390
3550
2528
2BA8
6828
6FE8
6828
EBA8
E388
E388
FDF0
71E0
ENDCHAR
STARTCHAR adieresis
ENCODING 228
SWIDTH 830 0
DWIDTH 13 0
BBX 13 18 0 -2
BITMAP
0EE0
1110
3550
3110
3FE0
3820
1390
3550
2530
2BA8
6828
6FE8
6828
EBA8
E388
E388
FDF0
71E0
ENDCHAR
STARTCHAR aring
ENCODING 229
SWIDTH 830 0
DWIDTH 13 0
BBX 13 18 0 -2
BITMAP
07C0
0BA0
1450
35D0
35D0
3BA0
3390
3550
2530
6BA8
6828
6FE8
6828
EBA8
E388
E388
FDF0
71E0
ENDCHAR
STARTCHAR ae
ENCODING 230
SWIDTH 1105 0
DWIDTH 18 0
BBX 17 14 0 -2
BITMAP
0FFF80
100080
33FF80
35A780
25A100
6BA100
683D00
6FE600
682780
EBA080
EB9F80
E38080
FDFF00
71FE00
ENDCHAR
STARTCHAR ccedilla
ENCODING 231
SWIDTH 728 0
DWIDTH 12 0
BBX 10 16 1 -4
BITMAP
1FC0
2FC0
5040
D3C0
D700
D400
D400
D400
D3C0
D040
CFC0
E240
FA80
7900
1E00
3C00
ENDCHAR
STARTCHAR egrave
ENCODING 232
SWIDTH 754 0
DWIDTH 12 0
BBX 11 18 1 -2
BITMAP
1F00
6CC0
E340
FF40
40A0
4020
CFA0
D020
D3C0
D040
CF40
D380
D3C0
D020
CFA0
C020
FFC0
FF80
ENDCHAR
STARTCHAR eacute
ENCODING 233
SWIDTH 754 0
DWIDTH 12 0
BBX 11 18 1 -2
BITMAP
0DC0
3340
6440
6780
5860
C020
CFA0
D020
D3C0
D040
CF40
D380
D3C0
D020
CFA0
C020
FFC0
FF80
ENDCHAR
STARTCHAR ecircumflex
ENCODING 234
SWIDTH 754 0
DWIDTH 12 0
BBX 11 18 1 -2
BITMAP
0200
1FC0
2040
7FC0
4020
4020
CFA0
D020
D3C0
D040
CF40
D380
D3C0
D020
CFA0
C020
FFC0
FF80
ENDCHAR
STARTCHAR edieresis
ENCODING 235
SWIDTH 754 0
DWIDTH 12 0
BBX 11 18 1 -2
BITMAP
1DC0
2220
6AA0
E220
FFE0
C020
CFA0
D020
D3C0
D040
CF40
D380
D3C0
D020
CFA0
C020
FFC0
FF80
ENDCHAR
STARTCHAR igrave
ENCODING 236
SWIDTH 705 0
DWIDTH 11 0
BBX 11 18 0 -2
BITMAP
1F80
2660
61A0
7F20
60E0
2020
EFA0
FA40
FA80
1A80
1A80
1A80
1A40
2220
6FA0
E020
FFC0
FF80
ENDCHAR
STARTCHAR iacute
ENCODING 237
SWIDTH 705 0
DWIDTH 11 0
BBX 11 18 0 -2
BITMAP
05C0
1BA0
2420
67C0
7860
6020
6FA0
FA40
FA80
1A80
1A80
1A80
1A40
2220
6FA0
E020
FFC0
FF80
ENDCHAR
STARTCHAR icircumflex
ENCODING 238
SWIDTH 705 0
DWIDTH 11 0
BBX 11 18 0 -2
BITMAP
0280
1F40
20A0
7FE0
6020
6020
6FA0
FA40
FA80
1A80
1A80
1A80
1A40
2220
6FA0
E020
FFC0
FF80
ENDCHAR
STARTCHAR idieresis
ENCODING 239
SWIDTH 705 0
DWIDTH 11 0
BBX 11 18 0 -2
BITMAP
1DC0
2220
6AA0
6220
7FE0
6020
6FA0
FA40
FA80
1A80
1A80
1A80
1A40
2220
6FA0
E020
FFC0
FF80
ENDCHAR
STARTCHAR eth
ENCODING 240
SWIDTH 856 0
DWIDTH 14 0
BBX 13 14 0 -2
BITMAP
3FF0
2008
67E8
6818
6998
4898
4C98
C898
E998
E818
67E8
6010
7FE0
7FC0
ENDCHAR
STARTCHAR ntilde
ENCODING 241
SWIDTH 853 0
DWIDTH 14 0
BBX 12 18 1 -2
BITMAP
0FC0
1020
37A0
7840
47B0
4310
D930
D530
D2B0
D230
D530
D6B0
D650
D730
D730
C710
FBE0
F3C0
ENDCHAR
STARTCHAR ograve
ENCODING 242
SWIDTH 837 0
DWIDTH 13 0
BBX 12 18 1 -2
BITMAP
1F00
24E0
63A0
7FA0
6060
4F90
5050
D350
D750
D750
D750
D750
D750
D050
CF90
E020
FFC0
3F00
ENDCHAR
STARTCHAR oacute
ENCODING 243
SWIDTH 837 0
DWIDTH 13 0
BBX 12 18 1 -2
BITMAP
07C0
19A0
2620
67C0
7860
4F90
5050
D350
D750
D750
D750
D750
D750
D050
CF90
E020
FFC0
3F00
ENDCHAR
STARTCHAR ocircumflex
ENCODING 244
SWIDTH 837 0
DWIDTH 13 0
BBX 12 18 1 -2
BITMAP
0280
1F40
20A0
6FA0
7060
4F90
5050
D350
D750
D750
D750
D750
D750
D050
CF90
E020
FFC0
3F00
ENDCHAR
STARTCHAR otilde
ENCODING 245
SWIDTH 837 0
DWIDTH 13 0
BBX 12 18 1 -2
BITMAP
0FC0
1020
27A0
6440
7BE0
4F90
5050
D350
D750
D750
D750
D750
D750
D050
CF90
E020
FFC0
3F00
ENDCHAR
STARTCHAR odieresis
ENCODING 246
SWIDTH 837 0
DWIDTH 13 0
BBX 12 18 1 -2
BITMAP
1DC0
2220
6AA0
6220
7DC0
2FB0
5050
D350
D750
D750
D750
D750
D750
D050
CF90
E020
FFC0
3F00
ENDCHAR
STARTCHAR divide
ENCODING 247
SWIDTH 834 0
DWIDTH 13 0
BBX 12 13 1 -1
BITMAP
0700
0880
1A80
1880
3FE0
5FD0
C010
FFE0
F840
1A80
1880
1F00
1E00
ENDCHAR
STARTCHAR oslash
ENCODING 248
SWIDTH 837 0
DWIDTH 13 0
BBX 12 16 1 -3
BITMAP
00E0
1F20
2F90
50D0
D730
D530
D6B0
D6B0
D330
D530
D450
CB90
E820
E3C0
7F00
F000
ENDCHAR
STARTCHAR ugrave
ENCODING 249
SWIDTH 846 0
DWIDTH 14 0
BBX 12 18 1 -2
BITMAP
1F80
2660
61A0
7C20
47D0
C510
D350
D350
D350
D350
D350
D350
D350
D050
CF90
E020
FFC0
3F00
ENDCHAR
STARTCHAR uacute
ENCODING 250
SWIDTH 846 0
DWIDTH 14 0
BBX 12 18 1 -2
BITMAP
07C0
19A0
3620
70C0
4F30
C510
D350
D350
D350
D350
D350
D350
D350
D050
CF90
E020
FFC0
3F00
ENDCHAR
STARTCHAR ucircumflex
ENCODING 251
SWIDTH 846 0
DWIDTH 14 0
BBX 12 18 1 -2
BITMAP
0280
1F60
20A0
7FE0
4710
C510
D350
D350
D350
D350
D350
D350
D350
D050
CF90
E020
FFC0
3F00
ENDCHAR
STARTCHAR udieresis
ENCODING 252
SWIDTH 846 0
DWIDTH 14 0
BBX 12 18 1 -2
BITMAP
1DC0
2220
6AA0
6220
7FF0
C310
D350
D350
D350
D350
D350
D350
D350
D050
CF90
E020
FFC0
3F00
ENDCHAR
STARTCHAR yacute
ENCODING 253
SWIDTH 805 0
DWIDTH 13 0
BBX 13 18 0 -2
BITMAP
02E0
0DD0
1210
30E0
2FB8
6388
EBA8
EBA8
E928
E548
F450
73A0
7920
3D40
1D40
1C40
1F80
1F00
ENDCHAR
STARTCHAR thorn
ENCODING 254
SWIDTH 792 0
DWIDTH 13 0
BBX 11 14 1 -2
BITMAP
7C00
C400
D3C0
CFA0
D060
D360
D360
D060
D060
CFA0
D3C0
C700
F800
F000
ENDCHAR
STARTCHAR ydieresis
ENCODING 255
SWIDTH 805 0
DWIDTH 13 0
BBX 13 18 0 -2
BITMAP
0EE0
1110
3550
7110
7FF8
6388
EBA8
EBA8
EBA8
E548
E450
73A0
7920
3D40
1D40
1C40
1F80
1F00
ENDCHAR
STARTCHAR Amacron
ENCODING 256
SWIDTH 830 0
DWIDTH 13 0
BBX 13 17 0 -2
BITMAP
0FE0
13D0
3010
3FE0
3820
1390
3550
2530
2BA8
6828
6FE8
6828
EBA8
E388
E388
FDF0
71E0
ENDCHAR
STARTCHAR amacron
ENCODING 257
SWIDTH 830 0
DWIDTH 13 0
BBX 13 17 0 -2
BITMAP
0FE0
13D0
3010
3FE0
3820
1390
3550
2530
2BA8
6828
6FE8
6828
EBA8
E388
E388
FDF0
71E0
ENDCHAR
STARTCHAR Abreve
ENCODING 258
SWIDTH 830 0
DWIDTH 13 0
BBX 13 18 0 -2
BITMAP
0E60
15D0
3390
3820
3FE0
1820
1390
3550
2528
2BA8
6828
6FE8
6828
EBA8
E388
E388
FDF0
71E0
ENDCHAR
STARTCHAR abreve
ENCODING 259
SWIDTH 830 0
DWIDTH 13 0
BBX 13 18 0 -2
BITMAP
0E60
15D0
3390
3820
3FE0
1820
1390
3550
2528
2BA8
6828
6FE8
6828
EBA8
E388
E388
FDF0
71E0
ENDCHAR
STARTCHAR Aogonek
ENCODING 260
SWIDTH 830 0
DWIDTH 13 0
BBX 13 17 0 -5
BITMAP
0FE0
0810
1390
3550
2528
2BA8
6828
6FE8
6828
EBA8
E3A8
E3A8
FDB8
71A8
0188
03F0
01E0
ENDCHAR
STARTCHAR aogonek
ENCODING 261
SWIDTH 830 0
DWIDTH 13 0
BBX 13 17 0 -5
BITMAP
0FE0
0810
1390
3550
2528
2BA8
6828
6FE8
6828
EBA8
E3A8
E3A8
FDB8
71A8
0188
03F0
01E0
ENDCHAR
STARTCHAR Cacute
ENCODING 262
SWIDTH 728 0
DWIDTH 12 0
BBX 10 18 1 -2
BITMAP
07C0
19C0
2640
6780
7840
4040
4FC0
D040
D780
D700
D400
D400
D3C0
D040
CFC0
E040
FFC0
7F00
ENDCHAR
STARTCHAR cacute
ENCODING 263
SWIDTH 728 0
DWIDTH 12 0
BBX 10 18 1 -2
BITMAP
07C0
19C0
2640
6780
7840
4040
4FC0
D040
D780
D700
D400
D400
D3C0
D040
CFC0
E040
FFC0
7F00
ENDCHAR
STARTCHAR Ccircumflex
ENCODING 264
SWIDTH 728 0
DWIDTH 12 0
BBX 10 18 1 -2
BITMAP
0200
1FC0
2840
6FC0
7040
4040
4FC0
D040
D780
D700
D400
D400
D3C0
D040
CFC0
E040
FFC0
7F00
ENDCHAR
STARTCHAR ccircumflex
ENCODING 265
SWIDTH 728 0
DWIDTH 12 0
BBX 10 18 1 -2
BITMAP
0200
1FC0
2840
6FC0
7040
4040
4FC0
D040
D780
D700
D400
D400
D3C0
D040
CFC0
E040
FFC0
7F00
ENDCHAR
STARTCHAR Cdotaccent
ENCODING 266
SWIDTH 728 0
DWIDTH 12 0
BBX 10 18 1 -2
BITMAP
0700
0880
1A80
3880
3740
2040
4FC0
D040
D780
D700
D400
D400
D3C0
D040
CFC0
E040
FFC0
7F00
ENDCHAR
STARTCHAR cdotaccent
ENCODING 267
SWIDTH 728 0
DWIDTH 12 0
BBX 10 18 1 -2
BITMAP
0700
0880
1A80
3880
3740
2040
4FC0
D040
D780
D700
D400
D400
D3C0
D040
CFC0
E040
FFC0
7F00
ENDCHAR
STARTCHAR Ccaron
ENCODING 268
SWIDTH 728 0
DWIDTH 12 0
BBX 10 18 1 -2
BITMAP
1880
6740
6F40
7980
7640
2040
4FC0
D040
D780
D700
D400
D400
D3C0
D040
CFC0
E040
FFC0
7F00
ENDCHAR
STARTCHAR ccaron
ENCODING 269
SWIDTH 728 0
DWIDTH 12 0
BBX 10 18 1 -2
BITMAP
1880
6740
6F40
7980
7640
2040
4FC0
D040
D780
D700
D400
D400
D3C0
D040
CFC0
E040
FFC0
7F00
ENDCHAR
STARTCHAR Dcaron
ENCODING 270
SWIDTH 846 0
DWIDTH 14 0
BBX 12 18 1 -2
BITMAP
1840
27A0
67A0
7DC0
4260
4010
CF90
D050
D330
D330
D330
D330
D330
D050
CF90
C020
FFC0
FF00
ENDCHAR
STARTCHAR dcaron
ENCODING 271
SWIDTH 846 0
DWIDTH 14 0
BBX 12 18 1 -2
BITMAP
1840
27A0
67A0
7DC0
4260
4010
CF90
D050
D330
D330
D330
D330
D330
D050
CF90
C020
FFC0
FF00
ENDCHAR
STARTCHAR Dcroat
ENCODING 272
SWIDTH 856 0
DWIDTH 14 0
BBX 13 14 0 -2
BITMAP
3FF0
2008
67E8
6818
6998
4898
4C98
C898
E998
E818
67E8
6010
7FE0
7FC0
ENDCHAR
STARTCHAR dcroat
ENCODING 273
SWIDTH 856 0
DWIDTH 14 0
BBX 13 14 0 -2
BITMAP
3FF0
2008
67E8
6818
6998
4898
4C98
C898
E998
E818
67E8
6010
7FE0
7FC0
ENDCHAR
STARTCHAR Emacron
ENCODING 274
SWIDTH 754 0
DWIDTH 12 0
BBX 11 17 1 -2
BITMAP
1F80
2F40
6040
5FA0
4020
CFA0
D020
D3C0
D040
CF40
D380
D3C0
D020
CFA0
C020
FFC0
FF80
ENDCHAR
STARTCHAR emacron
ENCODING 275
SWIDTH 754 0
DWIDTH 12 0
BBX 11 17 1 -2
BITMAP
1F80
2F40
6040
5FA0
4020
CFA0
D020
D3C0
D040
CF40
D380
D3C0
D020
CFA0
C020
FFC0
FF80
ENDCHAR
STARTCHAR Ebreve
ENCODING 276
SWIDTH 754 0
DWIDTH 12 0
BBX 11 18 1 -2
BITMAP
1DC0
2AC0
6740
7880
4760
4020
CFA0
D020
D3C0
D040
CF40
D380
D3C0
D020
CFA0
C020
FFC0
FF80
ENDCHAR
STARTCHAR ebreve
ENCODING 277
SWIDTH 754 0
DWIDTH 12 0
BBX 11 18 1 -2
BITMAP
1DC0
2AC0
6740
7880
4760
4020
CFA0
D020
D3C0
D040
CF40
D380
D3C0
D020
CFA0
C020
FFC0
FF80
ENDCHAR
STARTCHAR Edotaccent
ENCODING 278
SWIDTH 754 0
DWIDTH 12 0
BBX 11 18 1 -2
BITMAP
0F00
1100
3300
3100
4EE0
C020
CFA0
D020
D3C0
D040
CF40
D380
D3C0
D020
CFA0
C020
FFC0
FF80
ENDCHAR
STARTCHAR edotaccent
ENCODING 279
SWIDTH 754 0
DWIDTH 12 0
BBX 11 18 1 -2
BITMAP
0F00
1100
3300
3100
4EE0
C020
CFA0
D020
D3C0
D040
CF40
D380
D3C0
D020
CFA0
C020
FFC0
FF80
ENDCHAR
STARTCHAR Eogonek
ENCODING 280
SWIDTH 754 0
DWIDTH 12 0
BBX 11 17 1 -5
BITMAP
7FE0
C020
CFA0
D020
D3C0
D040
CF40
D380
D3C0
D020
CFA0
C0A0
FF40
FFA0
0E20
0FC0
0780
ENDCHAR
STARTCHAR eogonek
ENCODING 281
SWIDTH 754 0
DWIDTH 12 0
BBX 11 17 1 -5
BITMAP
7FE0
C020
CFA0
D020
D3C0
D040
CF40
D380
D3C0
D020
CFA0
C0A0
FF40
FFA0
0E20
0FC0
0780
ENDCHAR
STARTCHAR Ecaron
ENCODING 282
SWIDTH 754 0
DWIDTH 12 0
BBX 11 18 1 -2
BITMAP
1880
6740
6F40
7980
4660
4020
CFA0
D020
D3C0
D040
CF40
D380
D3C0
D020
CFA0
C020
FFC0
FF80
ENDCHAR
STARTCHAR ecaron
ENCODING 283
SWIDTH 754 0
DWIDTH 12 0
BBX 11 18 1 -2
BITMAP
1880
6740
6F40
7980
4660
4020
CFA0
D020
D3C0
D040
CF40
D380
D3C0
D020
CFA0
C020
FFC0
FF80
ENDCHAR
STARTCHAR Gcircumflex
ENCODING 284
SWIDTH 808 0
DWIDTH 13 0
BBX 11 18 1 -2
BITMAP
0200
1FE0
1020
3FE0
7020
4020
4FA0
D020
D7C0
D4E0
D520
D760
D760
D060
CFE0
E020
FFE0
7FC0
ENDCHAR
STARTCHAR gcircumflex
ENCODING 285
SWIDTH 808 0
DWIDTH 13 0
BBX 11 18 1 -2
BITMAP
0200
1FE0
1020
3FE0
7020
4020
4FA0
D020
D7C0
D4E0
D520
D760
D760
D060
CFE0
E020
FFE0
7FC0
ENDCHAR
STARTCHAR Gbreve
ENCODING 286
SWIDTH 808 0
DWIDTH 13 0
BBX 11 18 1 -2
BITMAP
1CC0
2B40
67A0
7840
77A0
2020
4FA0
D020
D7C0
D4E0
D520
D760
D760
D060
CFE0
E020
FFE0
7FC0
ENDCHAR
STARTCHAR gbreve
ENCODING 287
SWIDTH 808 0
DWIDTH 13 0
BBX 11 18 1 -2
BITMAP
1CC0
2B40
67A0
7840
77A0
2020
4FA0
D020
D7C0
D4E0
D520
D760
D760
D060
CFE0
E020
FFE0
7FC0
ENDCHAR
STARTCHAR Gdotaccent
ENCODING 288
SWIDTH 808 0
DWIDTH 13 0
BBX 11 18 1 -2
BITMAP
0780
0880
1A80
1880
1760
2020
4FA0
D020
D7C0
D4E0
D520
D760
D760
D060
CFE0
E020
FFE0
7FC0
ENDCHAR
STARTCHAR gdotaccent
ENCODING 289
SWIDTH 808 0
DWIDTH 13 0
BBX 11 18 1 -2
BITMAP
0780
0880
1A80
1880
1760
2020
4FA0
D020
D7C0
D4E0
D520
D760
D760
D060
CFE0
E020
FFE0
7FC0
ENDCHAR
STARTCHAR Gcommaaccent
ENCODING 290
SWIDTH 808 0
DWIDTH 13 0
BBX 11 19 1 -7
BITMAP
1FE0
2FA0
5020
D7C0
D780
D4E0
D520
D760
D760
D060
CFE0
E020
FFE0
7A40
1980
1F80
1A80
1F00
1E00
ENDCHAR
STARTCHAR gcommaaccent
ENCODING 291
SWIDTH 808 0
DWIDTH 13 0
BBX 11 19 1 -7
BITMAP
1FE0
2FA0
5020
D7C0
D780
D4E0
D520
D760
D760
D060
CFE0
E020
FFE0
7A40
1980
1F80
1A80
1F00
1E00
ENDCHAR
STARTCHAR Hcircumflex
ENCODING 292
SWIDTH 859 0
DWIDTH 14 0
BBX 12 18 1 -2
BITMAP
0200
1FE0
3020
7FE0
4310
4510
D330
D330
D330
D030
CFD0
D030
D330
D330
D330
C310
FFE0
F3C0
ENDCHAR
STARTCHAR hcircumflex
ENCODING 293
SWIDTH 859 0
DWIDTH 14 0
BBX 12 18 1 -2
BITMAP
0200
1FE0
3020
7FE0
4310
4510
D330
D330
D330
D030
CFD0
D030
D330
D330
D330
C310
FFE0
F3C0
ENDCHAR
STARTCHAR Hbar
ENCODING 294
SWIDTH 879 0
DWIDTH 14 0
BBX 14 14 0 -2
BITMAP
3E7C
2284
6994
4FF4
C814
E994
E814
6814
67E4
6814
6994
6184
7FF8
79E0
ENDCHAR
STARTCHAR hbar
ENCODING 295
SWIDTH 879 0
DWIDTH 14 0
BBX 14 14 0 -2
BITMAP
3E7C
2284
6994
4FF4
C814
E994
E814
6814
67E4
6814
6994
6184
7FF8
79E0
ENDCHAR
STARTCHAR Itilde
ENCODING 296
SWIDTH 705 0
DWIDTH 11 0
BBX 11 18 0 -2
BITMAP
0FC0
1020
27A0
6E40
71A0
6020
6FA0
FA40
FA80
1A80
1A80
1A80
1A40
2220
6FA0
E020
FFC0
FF80
ENDCHAR
STARTCHAR itilde
ENCODING 297
SWIDTH 705 0
DWIDTH 11 0
BBX 11 18 0 -2
BITMAP
0FC0
1020
27A0
6E40
71A0
6020
6FA0
FA40
FA80
1A80
1A80
1A80
1A40
2220
6FA0
E020
FFC0
FF80
ENDCHAR
STARTCHAR Imacron
ENCODING 298
SWIDTH 705 0
DWIDTH 11 0
BBX 11 17 0 -2
BITMAP
1FC0
27A0
6020
7FE0
6020
6FA0
FA40
FA80
1A80
1A80
1A80
1A40
2220
6FA0
E020
FFC0
FF80
ENDCHAR
STARTCHAR imacron
ENCODING 299
SWIDTH 705 0
DWIDTH 11 0
BBX 11 17 0 -2
BITMAP
1FC0
27A0
6020
7FE0
6020
6FA0
FA40
FA80
1A80
1A80
1A80
1A40
2220
6FA0
E020
FFC0
FF80
ENDCHAR
STARTCHAR Ibreve
ENCODING 300
SWIDTH 705 0
DWIDTH 11 0
BBX 11 18 0 -2
BITMAP
1CC0
2BA0
6720
7840
67A0
2020
EFA0
FA40
FA80
1A80
1A80
1A80
1A40
2220
6FA0
E020
FFC0
FF80
ENDCHAR
STARTCHAR ibreve
ENCODING 301
SWIDTH 705 0
DWIDTH 11 0
BBX 11 18 0 -2
BITMAP
1CC0
2BA0
6720
7840
67A0
2020
EFA0
FA40
FA80
1A80
1A80
1A80
1A40
2220
6FA0
E020
FFC0
FF80
ENDCHAR
STARTCHAR Iogonek
ENCODING 302
SWIDTH 705 0
DWIDTH 11 0
BBX 11 17 0 -5
BITMAP
3FE0
6020
EFA0
FA40
FA80
1A80
1A80
1A80
1A40
2220
6FA0
E0A0
FEE0
FEA0
0620
0FC0
0780
ENDCHAR
STARTCHAR iogonek
ENCODING 303
SWIDTH 705 0
DWIDTH 11 0
BBX 11 17 0 -5
BITMAP
3FE0
6020
EFA0
FA40
FA80
1A80
1A80
1A80
1A40
2220
6FA0
E0A0
FEE0
FEA0
0620
0FC0
0780
ENDCHAR
STARTCHAR Idotaccent
ENCODING 304
SWIDTH 705 0
DWIDTH 11 0
BBX 11 18 0 -2
BITMAP
0700
0880
1A80
1880
2760
6020
EFA0
FA40
FA80
1A80
1A80
1A80
1A40
2220
6FA0
E020
FFC0
FF80
ENDCHAR
STARTCHAR dotlessi
ENCODING 305
SWIDTH 705 0
DWIDTH 11 0
BBX 11 14 0 -2
BITMAP
3FE0
6020
EFA0
FA40
FA80
1A80
1A80
1A80
1A40
2220
6FA0
E020
FFC0
FF80
ENDCHAR
STARTCHAR IJ
ENCODING 306
SWIDTH 844 0
DWIDTH 14 0
BBX 12 14 1 -2
BITMAP
7DF0
C510
D350
D350
D350
D350
C750
FB50
FE50
4050
DF90
C020
FFC0
FF00
ENDCHAR
STARTCHAR ij
ENCODING 307
SWIDTH 844 0
DWIDTH 14 0
BBX 12 14 1 -2
BITMAP
7DF0
C510
D350
D350
D350
D350
C750
FB50
FE50
4050
DF90
C020
FFC0
FF00
ENDCHAR
STARTCHAR Jcircumflex
ENCODING 308
SWIDTH 788 0
DWIDTH 13 0
BBX 13 18 0 -2
BITMAP
0040
03F8
0608
0EF8
0F08
0910
0350
0350
0350
1F50
6350
EB50
EB50
E850
E790
F020
7FC0
3F00
ENDCHAR
STARTCHAR jcircumflex
ENCODING 309
SWIDTH 788 0
DWIDTH 13 0
BBX 13 18 0 -2
BITMAP
0040
03F8
0608
0EF8
0F08
0910
0350
0350
0350
1F50
6350
EB50
EB50
E850
E790
F020
7FC0
3F00
ENDCHAR
STARTCHAR Kcommaaccent
ENCODING 310
SWIDTH 846 0
DWIDTH 14 0
BBX 12 19 1 -7
BITMAP
7DF0
D250
D2A0
D2A0
D110
CF90
D050
D330
D330
D330
C310
C310
FFE0
FA40
1980
1F80
1A80
1F00
1E00
ENDCHAR
STARTCHAR kcommaaccent
ENCODING 311
SWIDTH 846 0
DWIDTH 14 0
BBX 12 19 1 -7
BITMAP
7DF0
D250
D2A0
D2A0
D110
CF90
D050
D330
D330
D330
C310
C310
FFE0
FA40
1980
1F80
1A80
1F00
1E00
ENDCHAR
STARTCHAR kgreenlandic
ENCODING 312
SWIDTH 846 0
DWIDTH 14 0
BBX 12 14 1 -2
BITMAP
7DF0
C510
D260
D2A0
D4A0
D110
CF90
D050
D330
D330
D330
C310
FFE0
F3C0
ENDCHAR
STARTCHAR Lacute
ENCODING 313
SWIDTH 795 0
DWIDTH 13 0
BBX 11 18 1 -2
BITMAP
0700
7880
5E80
C300
FE00
C400
D400
D400
D400
D4E0
D520
D360
D360
D060
CFE0
C020
FFE0
FF80
ENDCHAR
STARTCHAR lacute
ENCODING 314
SWIDTH 795 0
DWIDTH 13 0
BBX 11 18 1 -2
BITMAP
0700
7880
5E80
C300
FE00
C400
D400
D400
D400
D4E0
D520
D360
D360
D060
CFE0
C020
FFE0
FF80
ENDCHAR
STARTCHAR Lcommaaccent
ENCODING 315
SWIDTH 795 0
DWIDTH 13 0
BBX 11 19 1 -7
BITMAP
7C00
C400
D400
D400
D400
D4E0
D520
D360
D360
D060
CFE0
C020
FFE0
FA80
1980
1F80
1A80
1F00
1E00
ENDCHAR
STARTCHAR lcommaaccent
ENCODING 316
SWIDTH 795 0
DWIDTH 13 0
BBX 11 19 1 -7
BITMAP
7C00
C400
D400
D400
D400
D4E0
D520
D360
D360
D060
CFE0
C020
FFE0
FA80
1980
1F80
1A80
1F00
1E00
ENDCHAR
STARTCHAR Lcaron
ENCODING 317
SWIDTH 795 0
DWIDTH 13 0
BBX 11 14 1 -2
BITMAP
7DE0
C320
D260
D220
D320
D3E0
D320
D360
D360
D060
CFE0
C020
FFE0
FF80
ENDCHAR
STARTCHAR lcaron
ENCODING 318
SWIDTH 795 0
DWIDTH 13 0
BBX 11 14 1 -2
BITMAP
7DE0
C320
D260
D220
D320
D3E0
D320
D360
D360
D060
CFE0
C020
FFE0
FF80
ENDCHAR
STARTCHAR Ldot
ENCODING 319
SWIDTH 795 0
DWIDTH 13 0
BBX 11 14 1 -2
BITMAP
7C00
C400
D4E0
D520
D360
D320
D320
D3E0
D320
D060
CFE0
C020
FFE0
FFC0
ENDCHAR
STARTCHAR ldot
ENCODING 320
SWIDTH 795 0
DWIDTH 13 0
BBX 11 14 1 -2
BITMAP
7C00
C400
D4E0
D520
D360
D320
D320
D3E0
D320
D060
CFE0
C020
FFE0
FFC0
ENDCHAR
STARTCHAR Lslash
ENCODING 321
SWIDTH 805 0
DWIDTH 13 0
BBX 13 14 0 -2
BITMAP
3E00
2200
6A00
6900
4880
4EF0
C988
E9A8
E9A8
6828
67E8
6008
7FF0
7FE0
ENDCHAR
STARTCHAR lslash
ENCODING 322
SWIDTH 805 0
DWIDTH 13 0
BBX 13 14 0 -2
BITMAP
3E00
2200
6A00
6900
4880
4EF0
C988
E9A8
E9A8
6828
67E8
6008
7FF0
7FE0
ENDCHAR
STARTCHAR Nacute
ENCODING 323
SWIDTH 853 0
DWIDTH 14 0
BBX 12 18 1 -2
BITMAP
07C0
19A0
3620
70C0
4F30
4510
DB30
D530
D2B0
D230
D530
D6B0
D650
D730
D730
C710
FBE0
F3C0
ENDCHAR
STARTCHAR nacute
ENCODING 324
SWIDTH 853 0
DWIDTH 14 0
BBX 12 18 1 -2
BITMAP
07C0
19A0
3620
70C0
4F30
4510
DB30
D530
D2B0
D230
D530
D6B0
D650
D730
D730
C710
FBE0
F3C0
ENDCHAR
STARTCHAR Ncommaaccent
ENCODING 325
SWIDTH 853 0
DWIDTH 14 0
BBX 12 19 1 -7
BITMAP
7DF0
D330
D930
D4B0
D230
D130
D4B0
D650
D730
D730
C710
C710
FFE0
FA40
1980
1F80
1A80
1F00
1E00
ENDCHAR
STARTCHAR ncommaaccent
ENCODING 326
SWIDTH 853 0
DWIDTH 14 0
BBX 12 19 1 -7
BITMAP
7DF0
D330
D930
D4B0
D230
D130
D4B0
D650
D730
D730
C710
C710
FFE0
FA40
1980
1F80
1A80
1F00
1E00
ENDCHAR
STARTCHAR Ncaron
ENCODING 327
SWIDTH 853 0
DWIDTH 14 0
BBX 12 18 1 -2
BITMAP
1840
27A0
67A0
7840
47B0
4510
DB30
D530
D2B0
D230
D530
D6B0
D650
D730
D730
C710
FBE0
F3C0
ENDCHAR
STARTCHAR ncaron
ENCODING 328
SWIDTH 853 0
DWIDTH 14 0
BBX 12 18 1 -2
BITMAP
1840
27A0
67A0
7840
47B0
4510
DB30
D530
D2B0
D230
D530
D6B0
D650
D730
D730
C710
FBE0
F3C0
ENDCHAR
STARTCHAR napostrophe
ENCODING 329
SWIDTH 853 0
DWIDTH 14 0
BBX 12 20 1 -2
BITMAP
3800
4400
DC00
CC00
F800
D800
F8F0
C510
DB30
D530
D2B0
D230
D530
D6B0
D650
D730
D730
C710
FBE0
F3C0
ENDCHAR
STARTCHAR Eng
ENCODING 330
SWIDTH 846 0
DWIDTH 14 0
BBX 12 15 1 -3
BITMAP
1FE0
2F90
5050
D350
D750
D750
D750
D750
D750
D750
C650
C650
FE90
FEE0
0F80
ENDCHAR
STARTCHAR eng
ENCODING 331
SWIDTH 846 0
DWIDTH 14 0
BBX 12 15 1 -3
BITMAP
1FE0
2F90
5050
D350
D750
D750
D750
D750
D750
D750
C650
C650
FE90
FEE0
0F80
ENDCHAR
STARTCHAR Omacron
ENCODING 332
SWIDTH 837 0
DWIDTH 13 0
BBX 12 18 1 -2
BITMAP
1FC0
2020
67A0
6020
7FC0
2FB0
5050
D350
D750
D750
D750
D750
D750
D050
CF90
E020
FFC0
3F00
ENDCHAR
STARTCHAR omacron
ENCODING 333
SWIDTH 837 0
DWIDTH 13 0
BBX 12 18 1 -2
BITMAP
1FC0
2020
67A0
6020
7FC0
2FB0
5050
D350
D750
D750
D750
D750
D750
D050
CF90
E020
FFC0
3F00
ENDCHAR
STARTCHAR Obreve
ENCODING 334
SWIDTH 837 0
DWIDTH 13 0
BBX 12 18 1 -2
BITMAP
1CC0
2DA0
6320
7040
7FE0
2F90
5050
D350
D750
D750
D750
D750
D750
D050
CF90
E020
FFC0
3F00
ENDCHAR
STARTCHAR obreve
ENCODING 335
SWIDTH 837 0
DWIDTH 13 0
BBX 12 18 1 -2
BITMAP
1CC0
2DA0
6320
7040
7FE0
2F90
5050
D350
D750
D750
D750
D750
D750
D050
CF90
E020
FFC0
3F00
ENDCHAR
STARTCHAR Ohungarumlaut
ENCODING 336
SWIDTH 837 0
DWIDTH 13 0
BBX 12 19 1 -2
BITMAP
0EE0
1120
3560
2B60
6220
7DC0
2FB0
5050
D350
D750
D750
D750
D750
D750
D050
CF90
E020
FFC0
3F00
ENDCHAR
STARTCHAR ohungarumlaut
ENCODING 337
SWIDTH 837 0
DWIDTH 13 0
BBX 12 19 1 -2
BITMAP
0EE0
1120
3560
2B60
6220
7DC0
2FB0
5050
D350
D750
D750
D750
D750
D750
D050
CF90
E020
FFC0
3F00
ENDCHAR
STARTCHAR OE
ENCODING 338
SWIDTH 1115 0
DWIDTH 18 0
BBX 16 14 1 -2
BITMAP
1FFF
2001
4FFF
D741
D74E
D741
D739
D74E
D34F
D041
CFFF
E001
FFFF
7FFE
ENDCHAR
STARTCHAR oe
ENCODING 339
SWIDTH 1115 0
DWIDTH 18 0
BBX 16 14 1 -2
BITMAP
1FFF
2001
4FFF
D741
D74E
D741
D739
D74E
D34F
D041
CFFF
E001
FFFF
7FFE
ENDCHAR
STARTCHAR Racute
ENCODING 340
SWIDTH 843 0
DWIDTH 13 0
BBX 12 18 1 -2
BITMAP
03C0
1C20
27A0
61C0
7FC0
4020
CF10
D290
D260
D0A0
CFD0
D030
D330
D330
C310
C710
FBE0
F3C0
ENDCHAR
STARTCHAR racute
ENCODING 341
SWIDTH 843 0
DWIDTH 13 0
BBX 12 18 1 -2
BITMAP
03C0
1C20
27A0
61C0
7FC0
4020
CF10
D290
D260
D0A0
CFD0
D030
D330
D330
C310
C710
FBE0
F3C0
ENDCHAR
STARTCHAR Rcommaaccent
ENCODING 342
SWIDTH 843 0
DWIDTH 13 0
BBX 12 19 1 -7
BITMAP
7FC0
CF20
D090
D250
D260
D0A0
CFD0
D030
D330
D330
C310
C310
FFE0
FA40
1980
1F80
1A80
1F00
1E00
ENDCHAR
STARTCHAR rcommaaccent
ENCODING 343
SWIDTH 843 0
DWIDTH 13 0
BBX 12 19 1 -7
BITMAP
7FC0
CF20
D090
D250
D260
D0A0
CFD0
D030
D330
D330
C310
C310
FFE0
FA40
1980
1F80
1A80
1F00
1E00
ENDCHAR
STARTCHAR Rcaron
ENCODING 344
SWIDTH 843 0
DWIDTH 13 0
BBX 12 18 1 -2
BITMAP
1840
27A0
67A0
7840
7FC0
4020
CF10
D290
D260
D0A0
CFD0
D030
D330
D330
C310
C710
FBE0
F3C0
ENDCHAR
STARTCHAR rcaron
ENCODING 345
SWIDTH 843 0
DWIDTH 13 0
BBX 12 18 1 -2
BITMAP
1840
27A0
67A0
7840
7FC0
4020
CF10
D290
D260
D0A0
CFD0
D030
D330
D330
C310
C710
FBE0
F3C0
ENDCHAR
STARTCHAR Sacute
ENCODING 346
SWIDTH 750 0
DWIDTH 12 0
BBX 12 18 0 -2
BITMAP
07E0
19A0
3620
33C0
3C30
2010
27D0
6820
6BC0
E820
E790
F850
7F50
2050
6F90
E020
FFC0
FF00
ENDCHAR
STARTCHAR sacute
ENCODING 347
SWIDTH 750 0
DWIDTH 12 0
BBX 12 18 0 -2
BITMAP
07E0
19A0
3620
33C0
3C30
2010
27D0
6820
6BC0
E820
E790
F850
7F50
2050
6F90
E020
FFC0
FF00
ENDCHAR
STARTCHAR Scircumflex
ENCODING 348
SWIDTH 750 0
DWIDTH 12 0
BBX 12 18 0 -2
BITMAP
0100
1FE0
1020
3FE0
7010
6010
27D0
6820
6BC0
E820
E790
F850
7F50
2050
6F90
E020
FFC0
FF00
ENDCHAR
STARTCHAR scircumflex
ENCODING 349
SWIDTH 750 0
DWIDTH 12 0
BBX 12 18 0 -2
BITMAP
0100
1FE0
1020
3FE0
7010
6010
27D0
6820
6BC0
E820
E790
F850
7F50
2050
6F90
E020
FFC0
FF00
ENDCHAR
STARTCHAR Scedilla
ENCODING 350
SWIDTH 750 0
DWIDTH 12 0
BBX 12 16 0 -4
BITMAP
1FF0
2010
67D0
6820
EBC0
E820
E790
7850
7F50
2050
6F90
E120
FAC0
F880
1F00
3C00
ENDCHAR
STARTCHAR scedilla
ENCODING 351
SWIDTH 750 0
DWIDTH 12 0
BBX 12 16 0 -4
BITMAP
1FF0
2010
67D0
6820
EBC0
E820
E790
7850
7F50
2050
6F90
E120
FAC0
F880
1F00
3C00
ENDCHAR
STARTCHAR Scaron
ENCODING 352
SWIDTH 750 0
DWIDTH 12 0
BBX 12 18 0 -2
BITMAP
1C40
33A0
37A0
3CC0
3330
1010
27D0
6820
EBC0
E820
E790
F850
7F50
2050
6F90
E020
FFC0
FF00
ENDCHAR
STARTCHAR scaron
ENCODING 353
SWIDTH 750 0
DWIDTH 12 0
BBX 12 18 0 -2
BITMAP
1C40
33A0
37A0
3CC0
3330
1010
27D0
6820
EBC0
E820
E790
F850
7F50
2050
6F90
E020
FFC0
FF00
ENDCHAR
STARTCHAR Tcommaaccent
ENCODING 354
SWIDTH 756 0
DWIDTH 12 0
BBX 12 19 0 -7
BITMAP
3FF0
4FD0
C110
F960
F940
1940
1940
1940
1940
1940
1940
1840
1F80
1A40
1940
1F40
1A80
1F00
1E00
ENDCHAR
STARTCHAR tcommaaccent
ENCODING 355
SWIDTH 756 0
DWIDTH 12 0
BBX 12 19 0 -7
BITMAP
3FF0
4FD0
C110
F960
F940
1940
1940
1940
1940
1940
1940
1840
1F80
1A40
1940
1F40
1A80
1F00
1E00
ENDCHAR
STARTCHAR Tcaron
ENCODING 356
SWIDTH 756 0
DWIDTH 12 0
BBX 12 18 0 -2
BITMAP
1C40
33A0
77A0
7CC0
4330
4010
CFD0
C110
F960
F940
1940
1940
1940
1940
1940
1840
1F80
1E00
ENDCHAR
STARTCHAR tcaron
ENCODING 357
SWIDTH 756 0
DWIDTH 12 0
BBX 12 18 0 -2
BITMAP
1C40
33A0
77A0
7CC0
4330
4010
CFD0
C110
F960
F940
1940
1940
1940
1940
1940
1840
1F80
1E00
ENDCHAR
STARTCHAR Tbar
ENCODING 358
SWIDTH 756 0
DWIDTH 12 0
BBX 12 14 0 -2
BITMAP
3FF0
4010
CFD0
E110
F960
1960
2120
67A0
6120
7940
7940
1840
1F80
1E00
ENDCHAR
STARTCHAR tbar
ENCODING 359
SWIDTH 756 0
DWIDTH 12 0
BBX 12 14 0 -2
BITMAP
3FF0
4010
CFD0
E110
F960
1960
2120
67A0
6120
7940
7940
1840
1F80
1E00
ENDCHAR
STARTCHAR Utilde
ENCODING 360
SWIDTH 846 0
DWIDTH 14 0
BBX 12 18 1 -2
BITMAP
0FC0
1020
27A0
7840
47B0
C310
D350
D350
D350
D350
D350
D350
D350
D050
CF90
E020
FFC0
3F00
ENDCHAR
STARTCHAR utilde
ENCODING 361
SWIDTH 846 0
DWIDTH 14 0
BBX 12 18 1 -2
BITMAP
0FC0
1020
27A0
7840
47B0
C310
D350
D350
D350
D350
D350
D350
D350
D050
CF90
E020
FFC0
3F00
ENDCHAR
STARTCHAR Umacron
ENCODING 362
SWIDTH 846 0
DWIDTH 14 0
BBX 12 18 1 -2
BITMAP
0FC0
1020
27A0
6020
7FF0
4310
D350
D350
D350
D350
D350
D350
D350
D050
CF90
E020
FFC0
3F00
ENDCHAR
STARTCHAR umacron
ENCODING 363
SWIDTH 846 0
DWIDTH 14 0
BBX 12 18 1 -2
BITMAP
0FC0
1020
27A0
6020
7FF0
4310
D350
D350
D350
D350
D350
D350
D350
D050
CF90
E020
FFC0
3F00
ENDCHAR
STARTCHAR Ubreve
ENCODING 364
SWIDTH 846 0
DWIDTH 14 0
BBX 12 18 1 -2
BITMAP
1CC0
2B40
67A0
7840
47B0
C310
D350
D350
D350
D350
D350
D350
D350
D050
CF90
E020
FFC0
3F00
ENDCHAR
STARTCHAR ubreve
ENCODING 365
SWIDTH 846 0
DWIDTH 14 0
BBX 12 18 1 -2
BITMAP
1CC0
2B40
67A0
7840
47B0
C310
D350
D350
D350
D350
D350
D350
D350
D050
CF90
E020
FFC0
3F00
ENDCHAR
STARTCHAR Uring
ENCODING 366
SWIDTH 846 0
DWIDTH 14 0
BBX 12 21 1 -2
BITMAP
0F80
1740
28A0
6B40
6BA0
6720
7840
47B0
C510
D350
D350
D350
D350
D350
D350
D350
D050
CF90
E020
FFC0
3F00
ENDCHAR
STARTCHAR uring
ENCODING 367
SWIDTH 846 0
DWIDTH 14 0
BBX 12 21 1 -2
BITMAP
0F80
1740
28A0
6B40
6BA0
6720
7840
47B0
C510
D350
D350
D350
D350
D350
D350
D350
D050
CF90
E020
FFC0
3F00
ENDCHAR
STARTCHAR Uhungarumlaut
ENCODING 368
SWIDTH 846 0
DWIDTH 14 0
BBX 12 19 1 -2
BITMAP
0EE0
1110
3560
3B60
2320
7FF0
4310
D350
D350
D350
D350
D350
D350
D350
D050
CF90
E020
FFC0
3F00
ENDCHAR
STARTCHAR uhungarumlaut
ENCODING 369
SWIDTH 846 0
DWIDTH 14 0
BBX 12 19 1 -2
BITMAP
0EE0
1110
3560
3B60
2320
7FF0
4310
D350
D350
D350
D350
D350
D350
D350
D050
CF90
E020
FFC0
3F00
ENDCHAR
STARTCHAR Uogonek
ENCODING 370
SWIDTH 846 0
DWIDTH 14 0
BBX 12 17 1 -5
BITMAP
7CF0
C510
D350
D350
D350
D350
D350
D350
D350
D050
CF90
E220
FAC0
7B40
1840
1F80
1F00
ENDCHAR
STARTCHAR uogonek
ENCODING 371
SWIDTH 846 0
DWIDTH 14 0
BBX 12 17 1 -5
BITMAP
7CF0
C510
D350
D350
D350
D350
D350
D350
D350
D050
CF90
E220
FAC0
7B40
1840
1F80
1F00
ENDCHAR
STARTCHAR Wcircumflex
ENCODING 372
SWIDTH 931 0
DWIDTH 15 0
BBX 13 18 1 -2
BITMAP
0100
0FE0
1020
3FE0
47D8
C4C8
D5D8
D5D8
D7D8
D458
D558
D298
D458
D558
E928
E388
FFF0
7BC0
ENDCHAR
STARTCHAR wcircumflex
ENCODING 373
SWIDTH 931 0
DWIDTH 15 0
BBX 13 18 1 -2
BITMAP
0100
0FE0
1020
3FE0
47D8
C4C8
D5D8
D5D8
D7D8
D458
D558
D298
D458
D558
E928
E388
FFF0
7BC0
ENDCHAR
STARTCHAR Ycircumflex
ENCODING 374
SWIDTH 805 0
DWIDTH 13 0
BBX 13 18 0 -2
BITMAP
0100
0FE0
1020
3120
2FD8
6388
EBA8
EBA8
EBA8
E548
F450
73A0
7920
3D40
1D40
1C40
1F80
1F00
ENDCHAR
STARTCHAR ycircumflex
ENCODING 375
SWIDTH 805 0
DWIDTH 13 0
BBX 13 18 0 -2
BITMAP
0100
0FE0
1020
3120
2FD8
6388
EBA8
EBA8
EBA8
E548
F450
73A0
7920
3D40
1D40
1C40
1F80
1F00
ENDCHAR
STARTCHAR Ydieresis
ENCODING 376
SWIDTH 805 0
DWIDTH 13 0
BBX 13 18 0 -2
BITMAP
0EE0
1110
3550
7110
7FF8
6388
EBA8
EBA8
EBA8
E548
E450
73A0
7920
3D40
1D40
1C40
1F80
1F00
ENDCHAR
STARTCHAR Zacute
ENCODING 377
SWIDTH 760 0
DWIDTH 12 0
BBX 12 18 0 -2
BITMAP
07E0
19A0
3620
33C0
2C30
2010
6FD0
6050
7EA0
7D40
0940
1280
25E0
6810
67D0
E010
FFE0
FFC0
ENDCHAR
STARTCHAR zacute
ENCODING 378
SWIDTH 760 0
DWIDTH 12 0
BBX 12 18 0 -2
BITMAP
07E0
19A0
3620
33C0
2C30
2010
6FD0
6050
7EA0
7D40
0940
1280
25E0
6810
67D0
E010
FFE0
FFC0
ENDCHAR
STARTCHAR Zdotaccent
ENCODING 379
SWIDTH 760 0
DWIDTH 12 0
BBX 12 18 0 -2
BITMAP
0780
0840
1940
1880
2770
2010
6FD0
6050
7EA0
7D40
0940
1280
25E0
6810
67D0
E010
FFE0
FFC0
ENDCHAR
STARTCHAR zdotaccent
ENCODING 380
SWIDTH 760 0
DWIDTH 12 0
BBX 12 18 0 -2
BITMAP
0780
0840
1940
1880
2770
2010
6FD0
6050
7EA0
7D40
0940
1280
25E0
6810
67D0
E010
FFE0
FFC0
ENDCHAR
STARTCHAR Zcaron
ENCODING 381
SWIDTH 760 0
DWIDTH 12 0
BBX 12 18 0 -2
BITMAP
1C40
33A0
37A0
3CC0
2330
2010
6FD0
6050
7EA0
7D40
0940
1280
25E0
6810
67D0
E010
FFE0
FFC0
ENDCHAR
STARTCHAR zcaron
ENCODING 382
SWIDTH 760 0
DWIDTH 12 0
BBX 12 18 0 -2
BITMAP
1C40
33A0
37A0
3CC0
2330
2010
6FD0
6050
7EA0
7D40
0940
1280
25E0
6810
67D0
E010
FFE0
FFC0
ENDCHAR
STARTCHAR Schwa
ENCODING 399
SWIDTH 815 0
DWIDTH 13 0
BBX 13 14 0 -2
BITMAP
1FF0
37C8
3028
3FA8
2028
2028
6FE8
E828
EBA8
E828
E7C8
7030
7FC0
3F80
ENDCHAR
STARTCHAR florin
ENCODING 402
SWIDTH 674 0
DWIDTH 11 0
BBX 10 14 0 -2
BITMAP
07C0
0840
09C0
1AC0
3AC0
2240
6FC0
E240
FA80
E280
6D00
E300
FC00
F800
ENDCHAR
STARTCHAR Ohorn
ENCODING 416
SWIDTH 847 0
DWIDTH 14 0
BBX 13 16 1 -2
BITMAP
0030
0048
1F98
2FE8
5050
D350
D750
D750
D750
D750
D750
D050
CF90
E020
FFC0
7F00
ENDCHAR
STARTCHAR ohorn
ENCODING 417
SWIDTH 847 0
DWIDTH 14 0
BBX 13 16 1 -2
BITMAP
0030
0048
1F98
2FE8
5050
D350
D750
D750
D750
D750
D750
D050
CF90
E020
FFC0
7F00
ENDCHAR
STARTCHAR Uhorn
ENCODING 431
SWIDTH 856 0
DWIDTH 14 0
BBX 13 16 1 -2
BITMAP
0038
0048
7D98
C528
D350
D350
D350
D350
D350
D350
D350
D050
CF90
E020
FFC0
3F00
ENDCHAR
STARTCHAR uhorn
ENCODING 432
SWIDTH 856 0
DWIDTH 14 0
BBX 13 16 1 -2
BITMAP
0038
0048
7D98
C528
D350
D350
D350
D350
D350
D350
D350
D050
CF90
E020
FFC0
3F00
ENDCHAR
STARTCHAR Acaron
ENCODING 461
SWIDTH 830 0
DWIDTH 13 0
BBX 13 18 0 -2
BITMAP
0C20
13D0
33D0
3E60
39A0
0810
1390
3550
2528
2BA8
6828
6FE8
6828
EBA8
E388
E388
FDF0
71E0
ENDCHAR
STARTCHAR acaron
ENCODING 462
SWIDTH 830 0
DWIDTH 13 0
BBX 13 18 0 -2
BITMAP
0C20
13D0
33D0
3E60
39A0
0810
1390
3550
2528
2BA8
6828
6FE8
6828
EBA8
E388
E388
FDF0
71E0
ENDCHAR
STARTCHAR Icaron
ENCODING 463
SWIDTH 705 0
DWIDTH 11 0
BBX 11 18 0 -2
BITMAP
1840
27A0
67A0
7CC0
6360
6020
EFA0
FA40
FA80
1A80
1A80
1A80
1A40
2220
6FA0
E020
FFC0
FF80
ENDCHAR
STARTCHAR icaron
ENCODING 464
SWIDTH 705 0
DWIDTH 11 0
BBX 11 18 0 -2
BITMAP
1840
27A0
67A0
7CC0
6360
6020
EFA0
FA40
FA80
1A80
1A80
1A80
1A40
2220
6FA0
E020
FFC0
FF80
ENDCHAR
STARTCHAR Ocaron
ENCODING 465
SWIDTH 837 0
DWIDTH 13 0
BBX 12 18 1 -2
BITMAP
1FE0
20A0
6720
7CC0
7360
2F90
5050
D350
D750
D750
D750
D750
D750
D050
CF90
E020
FFC0
3F00
ENDCHAR
STARTCHAR ocaron
ENCODING 466
SWIDTH 837 0
DWIDTH 13 0
BBX 12 18 1 -2
BITMAP
1FE0
20A0
6720
7CC0
7360
2F90
5050
D350
D750
D750
D750
D750
D750
D050
CF90
E020
FFC0
3F00
ENDCHAR
STARTCHAR Ucaron
ENCODING 467
SWIDTH 846 0
DWIDTH 14 0
BBX 12 18 1 -2
BITMAP
1FE0
20A0
7720
78C0
4770
C510
D350
D350
D350
D350
D350
D350
D350
D050
CF90
E020
FFC0
3F00
ENDCHAR
STARTCHAR ucaron
ENCODING 468
SWIDTH 846 0
DWIDTH 14 0
BBX 12 18 1 -2
BITMAP
1FE0
20A0
7720
78C0
4770
C510
D350
D350
D350
D350
D350
D350
D350
D050
CF90
E020
FFC0
3F00
ENDCHAR
STARTCHAR Udieresismacron
ENCODING 469
SWIDTH 846 0
DWIDTH 14 0
BBX 12 21 1 -2
BITMAP
1FC0
27A0
6020
7FC0
6220
6AA0
6220
7FF0
4310
D350
D350
D350
D350
D350
D350
D350
D050
CF90
E020
FFC0
3F00
ENDCHAR
STARTCHAR udieresismacron
ENCODING 470
SWIDTH 846 0
DWIDTH 14 0
BBX 12 21 1 -2
BITMAP
1FC0
27A0
6020
7FC0
6220
6AA0
6220
7FF0
4310
D350
D350
D350
D350
D350
D350
D350
D050
CF90
E020
FFC0
3F00
ENDCHAR
STARTCHAR Udieresisacute
ENCODING 471
SWIDTH 846 0
DWIDTH 14 0
BBX 12 21 1 -2
BITMAP
0780
0F80
1C80
1FC0
2220
6AA0
6220
7FF0
C310
D350
D350
D350
D350
D350
D350
D350
D050
CF90
E020
FFC0
3F00
ENDCHAR
STARTCHAR udieresisacute
ENCODING 472
SWIDTH 846 0
DWIDTH 14 0
BBX 12 21 1 -2
BITMAP
0780
0F80
1C80
1FC0
2220
6AA0
6220
7FF0
C310
D350
D350
D350
D350
D350
D350
D350
D050
CF90
E020
FFC0
3F00
ENDCHAR
STARTCHAR Udieresiscaron
ENCODING 473
SWIDTH 846 0
DWIDTH 14 0
BBX 12 22 1 -2
BITMAP
1840
27A0
67A0
7840
7FC0
2220
6AA0
6220
7FF0
4310
D350
D350
D350
D350
D350
D350
D350
D050
CF90
E020
FFC0
3F00
ENDCHAR
STARTCHAR udieresiscaron
ENCODING 474
SWIDTH 846 0
DWIDTH 14 0
BBX 12 22 1 -2
BITMAP
1840
27A0
67A0
7840
7FC0
2220
6AA0
6220
7FF0
4310
D350
D350
D350
D350
D350
D350
D350
D050
CF90
E020
FFC0
3F00
ENDCHAR
STARTCHAR Udieresisgrave
ENCODING 475
SWIDTH 846 0
DWIDTH 14 0
BBX 12 21 1 -2
BITMAP
0F00
1B00
1880
1FC0
2220
6AA0
6220
7FF0
C310
D350
D350
D350
D350
D350
D350
D350
D050
CF90
E020
FFC0
3F00
ENDCHAR
STARTCHAR udieresisgrave
ENCODING 476
SWIDTH 846 0
DWIDTH 14 0
BBX 12 21 1 -2
BITMAP
0F00
1B00
1880
1FC0
2220
6AA0
6220
7FF0
C310
D350
D350
D350
D350
D350
D350
D350
D050
CF90
E020
FFC0
3F00
ENDCHAR
STARTCHAR Gcaron
ENCODING 486
SWIDTH 808 0
DWIDTH 13 0
BBX 11 18 1 -2
BITMAP
1880
2740
6740
7D80
7260
2020
4FA0
D020
D7C0
D4E0
D520
D760
D760
D060
CFE0
E020
FFE0
7FC0
ENDCHAR
STARTCHAR gcaron
ENCODING 487
SWIDTH 808 0
DWIDTH 13 0
BBX 11 18 1 -2
BITMAP
1880
2740
6740
7D80
7260
2020
4FA0
D020
D7C0
D4E0
D520
D760
D760
D060
CFE0
E020
FFE0
7FC0
ENDCHAR
STARTCHAR Scommaaccent
ENCODING 536
SWIDTH 750 0
DWIDTH 12 0
BBX 12 19 0 -7
BITMAP
1FF0
27D0
6810
6BE0
E860
E610
E1D0
7F50
6050
2050
6F90
E020
FFC0
FB40
1880
1E80
1F80
0F00
1E00
ENDCHAR
STARTCHAR scommaaccent
ENCODING 537
SWIDTH 750 0
DWIDTH 12 0
BBX 12 19 0 -7
BITMAP
1FF0
27D0
6810
6BE0
E860
E610
E1D0
7F50
6050
2050
6F90
E020
FFC0
FB40
1880
1E80
1F80
0F00
1E00
ENDCHAR
STARTCHAR uni021A
ENCODING 538
SWIDTH 756 0
DWIDTH 12 0
BBX 12 19 0 -7
BITMAP
3FF0
4FD0
C110
F960
F940
1940
1940
1940
1940
1940
1940
1840
1F80
1A40
1940
1F40
1A80
1F00
1E00
ENDCHAR
STARTCHAR uni021B
ENCODING 539
SWIDTH 756 0
DWIDTH 12 0
BBX 12 19 0 -7
BITMAP
3FF0
4FD0
C110
F960
F940
1940
1940
1940
1940
1940
1940
1840
1F80
1A40
1940
1F40
1A80
1F00
1E00
ENDCHAR
STARTCHAR dotlessj
ENCODING 567
SWIDTH 788 0
DWIDTH 13 0
BBX 12 14 0 -2
BITMAP
01F0
0110
0350
0350
0350
1F50
6350
EB50
EB50
E850
E790
F020
7FC0
3F00
ENDCHAR
STARTCHAR ascript
ENCODING 593
SWIDTH 846 0
DWIDTH 14 0
BBX 12 14 1 -2
BITMAP
1FE0
2F90
5050
D350
D750
D750
D750
D750
D750
D050
CFD0
E010
FFE0
7FC0
ENDCHAR
STARTCHAR schwa
ENCODING 601
SWIDTH 815 0
DWIDTH 13 0
BBX 13 14 0 -2
BITMAP
1FF0
37C8
3028
3FA8
2028
2028
6FE8
E828
EBA8
E828
E7C8
7030
7FC0
3F80
ENDCHAR
STARTCHAR gscript
ENCODING 609
SWIDTH 815 0
DWIDTH 13 0
BBX 13 15 0 -3
BITMAP
0FF0
17C8
2828
6BA8
EBA8
E828
E828
E7E8
7028
7FA8
1028
37C8
3010
3FE0
3F80
ENDCHAR
STARTCHAR commaturnedmod
ENCODING 699
SWIDTH 600 0
DWIDTH 10 0
BBX 6 7 2 5
BITMAP
3C
68
E4
DC
C4
F8
F0
ENDCHAR
STARTCHAR apostrophemod
ENCODING 700
SWIDTH 600 0
DWIDTH 10 0
BBX 6 7 2 5
BITMAP
3C
54
CC
FC
D4
F8
F0
ENDCHAR
STARTCHAR ringhalfright
ENCODING 702
SWIDTH 412 0
DWIDTH 7 0
BBX 6 8 0 4
BITMAP
3C
4C
F4
F4
4C
C4
F8
F0
ENDCHAR
STARTCHAR ringhalfleft
ENCODING 703
SWIDTH 412 0
DWIDTH 7 0
BBX 6 8 0 4
BITMAP
3C
4C
D4
D4
CC
E4
FC
78
ENDCHAR
STARTCHAR circumflex
ENCODING 710
SWIDTH 600 0
DWIDTH 10 0
BBX 9 6 0 10
BITMAP
0400
3F80
4080
FF80
FF00
8200
ENDCHAR
STARTCHAR caron
ENCODING 711
SWIDTH 600 0
DWIDTH 10 0
BBX 9 6 0 10
BITMAP
3000
4F80
CF80
F080
FF00
3800
ENDCHAR
STARTCHAR verticallinemod
ENCODING 712
SWIDTH 456 0
DWIDTH 7 0
BBX 6 8 1 4
BITMAP
7C
C4
D4
D4
D4
C4
F8
F0
ENDCHAR
STARTCHAR firsttonechinese
ENCODING 713
SWIDTH 600 0
DWIDTH 10 0
BBX 9 5 0 10
BITMAP
3F80
4F80
C080
FF80
FE00
ENDCHAR
STARTCHAR secondtonechinese
ENCODING 714
SWIDTH 600 0
DWIDTH 10 0
BBX 9 6 0 10
BITMAP
0F80
3180
5E80
E380
FF00
E000
ENDCHAR
STARTCHAR fourthtonechinese
ENCODING 715
SWIDTH 600 0
DWIDTH 10 0
BBX 9 6 0 10
BITMAP
3F00
4080
CF80
FC80
FF00
0E00
ENDCHAR
STARTCHAR verticallinelowmod
ENCODING 716
SWIDTH 456 0
DWIDTH 7 0
BBX 6 8 1 -4
BITMAP
7C
C4
D4
D4
D4
C4
F8
F0
ENDCHAR
STARTCHAR breve
ENCODING 728
SWIDTH 600 0
DWIDTH 10 0
BBX 9 6 0 10
BITMAP
3980
5680
CF80
E080
FF00
7C00
ENDCHAR
STARTCHAR dotaccent
ENCODING 729
SWIDTH 600 0
DWIDTH 10 0
BBX 6 6 2 10
BITMAP
3C
44
D4
C4
F8
F0
ENDCHAR
STARTCHAR ring
ENCODING 730
SWIDTH 600 0
DWIDTH 10 0
BBX 9 9 0 10
BITMAP
1700
2E80
5180
D680
D780
CE80
E080
FF00
7C00
ENDCHAR
STARTCHAR ogonek
ENCODING 731
SWIDTH 600 0
DWIDTH 10 0
BBX 6 7 2 -5
BITMAP
38
54
D4
DC
C4
F8
F0
ENDCHAR
STARTCHAR tilde
ENCODING 732
SWIDTH 600 0
DWIDTH 10 0
BBX 9 6 0 10
BITMAP
1F80
2080
4F80
C080
FF00
FE00
ENDCHAR
STARTCHAR hungarumlaut
ENCODING 733
SWIDTH 600 0
DWIDTH 10 0
BBX 10 7 0 10
BITMAP
1980
2640
5540
D540
C480
FF00
EE00
ENDCHAR
STARTCHAR gravecmb
ENCODING 768
SWIDTH 100 0
DWIDTH 2 0
BBX 9 6 -4 10
BITMAP
3F00
4080
CF80
FC80
FF00
0E00
ENDCHAR
STARTCHAR acutecmb
ENCODING 769
SWIDTH 100 0
DWIDTH 2 0
BBX 9 6 -4 10
BITMAP
0F80
3180
5E80
E380
FF00
E000
ENDCHAR
STARTCHAR circumflexcmb
ENCODING 770
SWIDTH 100 0
DWIDTH 2 0
BBX 9 6 -4 10
BITMAP
0400
3F80
4080
FF80
FF00
8200
ENDCHAR
STARTCHAR tildecmb
ENCODING 771
SWIDTH 100 0
DWIDTH 2 0
BBX 9 6 -4 10
BITMAP
1F80
2080
6F80
E080
FF00
FE00
ENDCHAR
STARTCHAR uni0304
ENCODING 772
SWIDTH 600 0
DWIDTH 10 0
BBX 9 5 0 10
BITMAP
3F80
4F80
C080
FF80
FE00
ENDCHAR
STARTCHAR brevecmb
ENCODING 774
SWIDTH 100 0
DWIDTH 2 0
BBX 9 6 -4 10
BITMAP
3980
5680
CF80
E080
FF00
7C00
ENDCHAR
STARTCHAR dotaccentcmb
ENCODING 775
SWIDTH 100 0
DWIDTH 2 0
BBX 6 6 -2 10
BITMAP
3C
44
D4
C4
F8
F0
ENDCHAR
STARTCHAR dieresiscmb
ENCODING 776
SWIDTH 100 0
DWIDTH 2 0
BBX 10 6 -4 10
BITMAP
3B80
4440
D540
C440
FF80
FF00
ENDCHAR
STARTCHAR hookcmb
ENCODING 777
SWIDTH 100 0
DWIDTH 2 0
BBX 7 7 -2 10
BITMAP
3C
5A
FE
EE
64
F8
40
ENDCHAR
STARTCHAR ringcmb
ENCODING 778
SWIDTH 100 0
DWIDTH 2 0
BBX 9 9 -4 10
BITMAP
1700
2E80
5180
D680
D780
CE80
E080
FF00
7C00
ENDCHAR
STARTCHAR hungarumlautcmb
ENCODING 779
SWIDTH 100 0
DWIDTH 2 0
BBX 11 7 -4 10
BITMAP
1DC0
2220
6AC0
6EC0
4640
FF80
EF00
ENDCHAR
STARTCHAR caroncmb
ENCODING 780
SWIDTH 100 0
DWIDTH 2 0
BBX 9 6 -4 10
BITMAP
3000
4F80
CF80
F080
FF00
3800
ENDCHAR
STARTCHAR horncmb
ENCODING 795
SWIDTH 100 0
DWIDTH 2 0
BBX 5 6 -2 8
BITMAP
18
28
D8
E8
F0
E0
ENDCHAR
STARTCHAR dotbelowcmb
ENCODING 803
SWIDTH 100 0
DWIDTH 2 0
BBX 6 6 -2 -6
BITMAP
3C
44
D4
C4
F8
F0
ENDCHAR
STARTCHAR dieresisbelowcmb
ENCODING 804
SWIDTH 100 0
DWIDTH 2 0
BBX 10 6 -4 -6
BITMAP
3B80
4440
D540
C440
FF80
FF00
ENDCHAR
STARTCHAR commaaccent
ENCODING 806
SWIDTH 600 0
DWIDTH 10 0
BBX 6 7 2 -7
BITMAP
3C
54
CC
FC
D4
F8
F0
ENDCHAR
STARTCHAR cedillacmb
ENCODING 807
SWIDTH 100 0
DWIDTH 2 0
BBX 7 7 -3 -4
BITMAP
08
16
2A
6A
64
78
F0
ENDCHAR
STARTCHAR ogonekcmb
ENCODING 808
SWIDTH 100 0
DWIDTH 2 0
BBX 6 7 -2 -5
BITMAP
1C
34
54
DC
E4
FC
78
ENDCHAR
STARTCHAR brevebelowcmb
ENCODING 814
SWIDTH 100 0
DWIDTH 2 0
BBX 9 6 -4 -6
BITMAP
3980
5680
CF80
E080
FF00
7C00
ENDCHAR
STARTCHAR macronbelowcmb
ENCODING 817
SWIDTH 100 0
DWIDTH 2 0
BBX 9 5 -4 -5
BITMAP
1F80
6F80
E080
FF80
FE00
ENDCHAR
STARTCHAR uni0394
ENCODING 916
SWIDTH 830 0
DWIDTH 13 0
BBX 13 14 0 -2
BITMAP
0FE0
1020
37D0
3450
3550
2528
69A8
6BA8
6BA8
6828
6FE8
E008
FFF0
7FE0
ENDCHAR
STARTCHAR uni03A9
ENCODING 937
SWIDTH 877 0
DWIDTH 14 0
BBX 14 14 0 -2
BITMAP
0FF0
13C8
2424
6994
6994
6994
6994
6994
7998
44A4
4CB4
C084
FFF8
FFF0
ENDCHAR
STARTCHAR uni03BC
ENCODING 956
SWIDTH 813 0
DWIDTH 13 0
BBX 12 13 1 -3
BITMAP
38E0
4510
D750
D750
D750
D750
D750
D050
DF90
D060
C780
FF00
F000
ENDCHAR
STARTCHAR pi
ENCODING 960
SWIDTH 821 0
DWIDTH 13 0
BBX 12 11 1 -2
BITMAP
7FF0
DFD0
D050
D750
D750
D750
D750
D750
C710
FBE0
F3C0
ENDCHAR
STARTCHAR Ddotbelow
ENCODING 7692
SWIDTH 846 0
DWIDTH 14 0
BBX 12 18 1 -6
BITMAP
7FE0
C010
CF90
D050
D330
D330
D330
D330
D330
D050
CF90
C020
FFC0
F880
1A80
1880
1F00
1E00
ENDCHAR
STARTCHAR ddotbelow
ENCODING 7693
SWIDTH 846 0
DWIDTH 14 0
BBX 12 18 1 -6
BITMAP
7FE0
C010
CF90
D050
D330
D330
D330
D330
D330
D050
CF90
C020
FFC0
F880
1A80
1880
1F00
1E00
ENDCHAR
STARTCHAR Dlinebelow
ENCODING 7694
SWIDTH 846 0
DWIDTH 14 0
BBX 12 18 1 -6
BITMAP
7FE0
C010
CF90
D050
D330
D330
D330
D330
D330
D050
CF90
C020
FFC0
E020
27A0
6020
7FC0
7F00
ENDCHAR
STARTCHAR dlinebelow
ENCODING 7695
SWIDTH 846 0
DWIDTH 14 0
BBX 12 18 1 -6
BITMAP
7FE0
C010
CF90
D050
D330
D330
D330
D330
D330
D050
CF90
C020
FFC0
E020
27A0
6020
7FC0
7F00
ENDCHAR
STARTCHAR Gmacron
ENCODING 7712
SWIDTH 808 0
DWIDTH 13 0
BBX 11 17 1 -2
BITMAP
0FC0
17A0
7020
7FC0
6020
4FA0
D020
D7C0
D4E0
D520
D760
D760
D060
CFE0
E020
FFE0
7FC0
ENDCHAR
STARTCHAR gmacron
ENCODING 7713
SWIDTH 808 0
DWIDTH 13 0
BBX 11 17 1 -2
BITMAP
0FC0
17A0
7020
7FC0
6020
4FA0
D020
D7C0
D4E0
D520
D760
D760
D060
CFE0
E020
FFE0
7FC0
ENDCHAR
STARTCHAR Hdotbelow
ENCODING 7716
SWIDTH 859 0
DWIDTH 14 0
BBX 12 18 1 -6
BITMAP
7CF0
C510
D330
D330
D330
D030
CFD0
D030
D330
D330
D330
C310
FFE0
F840
1A80
1880
1F00
1E00
ENDCHAR
STARTCHAR hdotbelow
ENCODING 7717
SWIDTH 859 0
DWIDTH 14 0
BBX 12 18 1 -6
BITMAP
7CF0
C510
D330
D330
D330
D030
CFD0
D030
D330
D330
D330
C310
FFE0
F840
1A80
1880
1F00
1E00
ENDCHAR
STARTCHAR Hbrevebelow
ENCODING 7722
SWIDTH 859 0
DWIDTH 14 0
BBX 12 18 1 -6
BITMAP
7CF0
C510
D330
D330
D330
D030
CFD0
D030
D330
D330
D330
C310
FFE0
E320
6840
77C0
7F80
3E00
ENDCHAR
STARTCHAR hbrevebelow
ENCODING 7723
SWIDTH 859 0
DWIDTH 14 0
BBX 12 18 1 -6
BITMAP
7CF0
C510
D330
D330
D330
D030
CFD0
D030
D330
D330
D330
C310
FFE0
E320
6840
77C0
7F80
3E00
ENDCHAR
STARTCHAR Ldotbelow
ENCODING 7734
SWIDTH 795 0
DWIDTH 13 0
BBX 11 18 1 -6
BITMAP
7C00
C400
D400
D400
D400
D4E0
D520
D360
D360
D060
CFE0
C020
FFE0
F880
1A80
1880
1F00
1E00
ENDCHAR
STARTCHAR ldotbelow
ENCODING 7735
SWIDTH 795 0
DWIDTH 13 0
BBX 11 18 1 -6
BITMAP
7C00
C400
D400
D400
D400
D4E0
D520
D360
D360
D060
CFE0
C020
FFE0
F880
1A80
1880
1F00
1E00
ENDCHAR
STARTCHAR Ldotbelowmacron
ENCODING 7736
SWIDTH 795 0
DWIDTH 13 0
BBX 11 21 1 -6
BITMAP
1FC0
2740
6040
7F80
4300
D400
D400
D400
D4E0
D520
D360
D360
D060
CFE0
C020
FFE0
F880
1A80
1880
1F00
1E00
ENDCHAR
STARTCHAR ldotbelowmacron
ENCODING 7737
SWIDTH 795 0
DWIDTH 13 0
BBX 11 21 1 -6
BITMAP
1FC0
2740
6040
7F80
4300
D400
D400
D400
D4E0
D520
D360
D360
D060
CFE0
C020
FFE0
F880
1A80
1880
1F00
1E00
ENDCHAR
STARTCHAR Llinebelow
ENCODING 7738
SWIDTH 795 0
DWIDTH 13 0
BBX 11 17 1 -5
BITMAP
7C00
C400
D400
D400
D400
D4E0
D520
D360
D360
D060
CFE0
C020
FFE0
EF40
6040
7F80
7F00
ENDCHAR
STARTCHAR llinebelow
ENCODING 7739
SWIDTH 795 0
DWIDTH 13 0
BBX 11 17 1 -5
BITMAP
7C00
C400
D400
D400
D400
D4E0
D520
D360
D360
D060
CFE0
C020
FFE0
EF40
6040
7F80
7F00
ENDCHAR
STARTCHAR Mdotbelow
ENCODING 7746
SWIDTH 949 0
DWIDTH 15 0
BBX 13 18 1 -6
BITMAP
7C78
C288
C9A8
D558
D298
D558
D458
D658
D7D8
D7D8
D5D8
C5C8
FBF8
F470
0D40
0C40
0F80
0F00
ENDCHAR
STARTCHAR mdotbelow
ENCODING 7747
SWIDTH 949 0
DWIDTH 15 0
BBX 13 18 1 -6
BITMAP
7C78
C288
C9A8
D558
D298
D558
D458
D658
D7D8
D7D8
D5D8
C5C8
FBF8
F470
0D40
0C40
0F80
0F00
ENDCHAR
STARTCHAR Ndotaccent
ENCODING 7748
SWIDTH 853 0
DWIDTH 14 0
BBX 12 18 1 -2
BITMAP
0780
0880
1A80
1880
6770
C310
D930
D530
D2B0
D230
D530
D6B0
D650
D730
D730
C710
FBE0
F3C0
ENDCHAR
STARTCHAR ndotaccent
ENCODING 7749
SWIDTH 853 0
DWIDTH 14 0
BBX 12 18 1 -2
BITMAP
0780
0880
1A80
1880
6770
C310
D930
D530
D2B0
D230
D530
D6B0
D650
D730
D730
C710
FBE0
F3C0
ENDCHAR
STARTCHAR Ndotbelow
ENCODING 7750
SWIDTH 853 0
DWIDTH 14 0
BBX 12 18 1 -6
BITMAP
7CF0
C510
DB30
D530
D2B0
D230
D530
D6B0
D650
D730
D730
C710
FFE0
F840
1A80
1880
1F00
1E00
ENDCHAR
STARTCHAR ndotbelow
ENCODING 7751
SWIDTH 853 0
DWIDTH 14 0
BBX 12 18 1 -6
BITMAP
7CF0
C510
DB30
D530
D2B0
D230
D530
D6B0
D650
D730
D730
C710
FFE0
F840
1A80
1880
1F00
1E00
ENDCHAR
STARTCHAR Nlinebelow
ENCODING 7752
SWIDTH 853 0
DWIDTH 14 0
BBX 12 17 1 -5
BITMAP
7CF0
C510
DB30
D530
D2B0
D230
D530
D6B0
D650
D730
D730
C710
FFE0
F7A0
7020
7FC0
7F80
ENDCHAR
STARTCHAR nlinebelow
ENCODING 7753
SWIDTH 853 0
DWIDTH 14 0
BBX 12 17 1 -5
BITMAP
7CF0
C510
DB30
D530
D2B0
D230
D530
D6B0
D650
D730
D730
C710
FFE0
F7A0
7020
7FC0
7F80
ENDCHAR
STARTCHAR Rdotbelow
ENCODING 7770
SWIDTH 843 0
DWIDTH 13 0
BBX 12 18 1 -6
BITMAP
7FC0
C020
CF10
D290
D260
D0A0
CFD0
D030
D330
D330
C310
C310
FFE0
F840
1980
1880
1F00
1E00
ENDCHAR
STARTCHAR rdotbelow
ENCODING 7771
SWIDTH 843 0
DWIDTH 13 0
BBX 12 18 1 -6
BITMAP
7FC0
C020
CF10
D290
D260
D0A0
CFD0
D030
D330
D330
C310
C310
FFE0
F840
1980
1880
1F00
1E00
ENDCHAR
STARTCHAR Rdotbelowmacron
ENCODING 7772
SWIDTH 843 0
DWIDTH 13 0
BBX 12 21 1 -6
BITMAP
1F80
2F40
6040
7FC0
4020
CF10
D290
D260
D0A0
CFD0
D030
D330
D330
C310
C310
FFE0
F840
1980
1880
1F00
1E00
ENDCHAR
STARTCHAR rdotbelowmacron
ENCODING 7773
SWIDTH 843 0
DWIDTH 13 0
BBX 12 21 1 -6
BITMAP
1F80
2F40
6040
7FC0
4020
CF10
D290
D260
D0A0
CFD0
D030
D330
D330
C310
C310
FFE0
F840
1980
1880
1F00
1E00
ENDCHAR
STARTCHAR Rlinebelow
ENCODING 7774
SWIDTH 843 0
DWIDTH 13 0
BBX 12 17 1 -5
BITMAP
7FC0
CF20
D090
D250
D260
D0A0
CFD0
D030
D330
D330
C310
C310
FFE0
E7A0
6020
7FC0
7F00
ENDCHAR
STARTCHAR rlinebelow
ENCODING 7775
SWIDTH 843 0
DWIDTH 13 0
BBX 12 17 1 -5
BITMAP
7FC0
CF20
D090
D250
D260
D0A0
CFD0
D030
D330
D330
C310
C310
FFE0
E7A0
6020
7FC0
7F00
ENDCHAR
STARTCHAR Sdotaccent
ENCODING 7776
SWIDTH 750 0
DWIDTH 12 0
BBX 12 18 0 -2
BITMAP
0780
0840
1940
1880
1770
2010
27D0
6820
EBC0
E820
E790
7850
7F50
2050
6F90
E020
FFC0
FF00
ENDCHAR
STARTCHAR sdotaccent
ENCODING 7777
SWIDTH 750 0
DWIDTH 12 0
BBX 12 18 0 -2
BITMAP
0780
0840
1940
1880
1770
2010
27D0
6820
EBC0
E820
E790
7850
7F50
2050
6F90
E020
FFC0
FF00
ENDCHAR
STARTCHAR Sdotbelow
ENCODING 7778
SWIDTH 750 0
DWIDTH 12 0
BBX 12 18 0 -6
BITMAP
1FF0
2010
67D0
6820
EBC0
E820
E790
7850
7F50
2050
6F90
E020
FFC0
F840
1940
1840
1F80
1E00
ENDCHAR
STARTCHAR sdotbelow
ENCODING 7779
SWIDTH 750 0
DWIDTH 12 0
BBX 12 18 0 -6
BITMAP
1FF0
2010
67D0
6820
EBC0
E820
E790
7850
7F50
2050
6F90
E020
FFC0
F840
1940
1840
1F80
1E00
ENDCHAR
STARTCHAR Tdotbelow
ENCODING 7788
SWIDTH 756 0
DWIDTH 12 0
BBX 12 18 0 -6
BITMAP
3FF0
4010
CFD0
C110
F960
F940
1940
1940
1940
1940
1940
1840
1F80
1840
1940
1880
1F00
1E00
ENDCHAR
STARTCHAR tdotbelow
ENCODING 7789
SWIDTH 756 0
DWIDTH 12 0
BBX 12 18 0 -6
BITMAP
3FF0
4010
CFD0
C110
F960
F940
1940
1940
1940
1940
1940
1840
1F80
1840
1940
1880
1F00
1E00
ENDCHAR
STARTCHAR Tlinebelow
ENCODING 7790
SWIDTH 756 0
DWIDTH 12 0
BBX 12 17 0 -5
BITMAP
3FF0
4FD0
C110
F960
F940
1940
1940
1940
1940
1940
1840
1840
1FC0
17A0
3020
3FC0
3F80
ENDCHAR
STARTCHAR tlinebelow
ENCODING 7791
SWIDTH 756 0
DWIDTH 12 0
BBX 12 17 0 -5
BITMAP
3FF0
4FD0
C110
F960
F940
1940
1940
1940
1940
1940
1840
1840
1FC0
17A0
3020
3FC0
3F80
ENDCHAR
STARTCHAR Wgrave
ENCODING 7808
SWIDTH 931 0
DWIDTH 15 0
BBX 13 18 1 -2
BITMAP
0E80
1760
30A0
3C20
47D8
C5C8
D5D8
D5D8
D7D8
D458
D558
D298
D458
D558
E928
E388
FFF0
7BC0
ENDCHAR
STARTCHAR wgrave
ENCODING 7809
SWIDTH 931 0
DWIDTH 15 0
BBX 13 18 1 -2
BITMAP
0E80
1760
30A0
3C20
47D8
C5C8
D5D8
D5D8
D7D8
D458
D558
D298
D458
D558
E928
E388
FFF0
7BC0
ENDCHAR
STARTCHAR Wacute
ENCODING 7810
SWIDTH 931 0
DWIDTH 15 0
BBX 13 18 1 -2
BITMAP
02E0
0DD0
1210
3060
4FF8
C4C8
D5D8
D5D8
D7D8
D458
D558
D298
D458
D558
E928
E388
FFF0
7BC0
ENDCHAR
STARTCHAR wacute
ENCODING 7811
SWIDTH 931 0
DWIDTH 15 0
BBX 13 18 1 -2
BITMAP
02E0
0DD0
1210
3060
4FF8
C4C8
D5D8
D5D8
D7D8
D458
D558
D298
D458
D558
E928
E388
FFF0
7BC0
ENDCHAR
STARTCHAR Wdieresis
ENCODING 7812
SWIDTH 931 0
DWIDTH 15 0
BBX 13 18 1 -2
BITMAP
0EE0
1110
3550
3110
3FF8
47C8
D4D8
D5D8
D7D8
D458
D558
D298
D458
D558
E928
E388
FFF0
7BC0
ENDCHAR
STARTCHAR wdieresis
ENCODING 7813
SWIDTH 931 0
DWIDTH 15 0
BBX 13 18 1 -2
BITMAP
0EE0
1110
3550
3110
3FF8
47C8
D4D8
D5D8
D7D8
D458
D558
D298
D458
D558
E928
E388
FFF0
7BC0
ENDCHAR
STARTCHAR Ydotaccent
ENCODING 7822
SWIDTH 805 0
DWIDTH 13 0
BBX 13 18 0 -2
BITMAP
0380
0440
1D40
1C40
23B8
6388
EBA8
EBA8
E9A8
E548
F450
73A0
7920
3D40
1D40
1C40
1F80
1F00
ENDCHAR
STARTCHAR ydotaccent
ENCODING 7823
SWIDTH 805 0
DWIDTH 13 0
BBX 13 18 0 -2
BITMAP
0380
0440
1D40
1C40
23B8
6388
EBA8
EBA8
E9A8
E548
F450
73A0
7920
3D40
1D40
1C40
1F80
1F00
ENDCHAR
STARTCHAR Zdotbelow
ENCODING 7826
SWIDTH 760 0
DWIDTH 12 0
BBX 12 18 0 -6
BITMAP
3FF0
2010
6FD0
6050
7EA0
7D40
0940
1280
25E0
6810
67D0
E010
FFE0
F840
1940
1840
1F80
1E00
ENDCHAR
STARTCHAR zdotbelow
ENCODING 7827
SWIDTH 760 0
DWIDTH 12 0
BBX 12 18 0 -6
BITMAP
3FF0
2010
6FD0
6050
7EA0
7D40
0940
1280
25E0
6810
67D0
E010
FFE0
F840
1940
1840
1F80
1E00
ENDCHAR
STARTCHAR tdieresis
ENCODING 7831
SWIDTH 756 0
DWIDTH 12 0
BBX 12 18 0 -2
BITMAP
1EE0
2120
6560
6120
5ED0
4010
CFD0
C110
F960
F940
1940
1940
1940
1940
1940
1840
1F80
1E00
ENDCHAR
STARTCHAR Germandbls
ENCODING 7838
SWIDTH 859 0
DWIDTH 14 0
BBX 13 14 1 -2
BITMAP
7FC0
C020
CF20
D0A0
D2A0
D290
D2C8
D3A8
D3A8
D228
D2C8
C210
FFE0
FF80
ENDCHAR
STARTCHAR Adotbelow
ENCODING 7840
SWIDTH 830 0
DWIDTH 13 0
BBX 13 18 0 -6
BITMAP
0FE0
0810
1390
3550
2528
2BA8
6828
6FE8
6828
EBA8
E388
E388
FFF0
7420
0D40
0C40
0F80
0F00
ENDCHAR
STARTCHAR adotbelow
ENCODING 7841
SWIDTH 830 0
DWIDTH 13 0
BBX 13 18 0 -6
BITMAP
0FE0
0810
1390
3550
2528
2BA8
6828
6FE8
6828
EBA8
E388
E388
FFF0
7420
0D40
0C40
0F80
0F00
ENDCHAR
STARTCHAR Ahookabove
ENCODING 7842
SWIDTH 830 0
DWIDTH 13 0
BBX 13 19 0 -2
BITMAP
07C0
0BA0
1F40
1CA0
0DC0
0A20
0810
1390
3550
2528
2BA8
6828
6FE8
6828
EBA8
E388
E388
FDF0
71E0
ENDCHAR
STARTCHAR ahookabove
ENCODING 7843
SWIDTH 830 0
DWIDTH 13 0
BBX 13 19 0 -2
BITMAP
07C0
0BA0
1F40
1CA0
0DC0
0A20
0810
1390
3550
2528
2BA8
6828
6FE8
6828
EBA8
E388
E388
FDF0
71E0
ENDCHAR
STARTCHAR Acircumflexacute
ENCODING 7844
SWIDTH 830 0
DWIDTH 13 0
BBX 13 21 0 -2
BITMAP
00F0
0170
0310
03E0
0FA0
1050
37D0
3820
3020
1390
3550
2528
2BA8
6828
6FE8
6828
EBA8
E388
E388
FDF0
71E0
ENDCHAR
STARTCHAR acircumflexacute
ENCODING 7845
SWIDTH 830 0
DWIDTH 13 0
BBX 13 21 0 -2
BITMAP
00F0
0170
0310
03E0
0FA0
1050
37D0
3820
3020
1390
3550
2528
2BA8
6828
6FE8
6828
EBA8
E388
E388
FDF0
71E0
ENDCHAR
STARTCHAR Acircumflexgrave
ENCODING 7846
SWIDTH 830 0
DWIDTH 13 0
BBX 13 21 0 -2
BITMAP
01E0
0350
0310
03E0
0FA0
1050
37D0
3820
3020
1390
3550
2528
2BA8
6828
6FE8
6828
EBA8
E388
E388
FDF0
71E0
ENDCHAR
STARTCHAR acircumflexgrave
ENCODING 7847
SWIDTH 830 0
DWIDTH 13 0
BBX 13 21 0 -2
BITMAP
01E0
0350
0310
03E0
0FA0
1050
37D0
3820
3020
1390
3550
2528
2BA8
6828
6FE8
6828
EBA8
E388
E388
FDF0
71E0
ENDCHAR
STARTCHAR Acircumflexhookabove
ENCODING 7848
SWIDTH 830 0
DWIDTH 13 0
BBX 13 23 0 -2
BITMAP
00F0
0178
03F8
03B8
0188
0670
0B90
1050
37D0
3820
3020
1390
3550
2528
2BA8
6828
6FE8
6828
EBA8
E388
E388
FDF0
71E0
ENDCHAR
STARTCHAR acircumflexhookabove
ENCODING 7849
SWIDTH 830 0
DWIDTH 13 0
BBX 13 23 0 -2
BITMAP
00F0
0178
03F8
03B8
0188
0670
0B90
1050
37D0
3820
3020
1390
3550
2528
2BA8
6828
6FE8
6828
EBA8
E388
E388
FDF0
71E0
ENDCHAR
STARTCHAR Acircumflextilde
ENCODING 7850
SWIDTH 830 0
DWIDTH 13 0
BBX 13 22 0 -2
BITMAP
07E0
0810
13D0
37A0
3C60
2B90
1050
37D0
3820
3020
1390
3550
2528
2BA8
6828
6FE8
6828
EBA8
E388
E388
FDF0
71E0
ENDCHAR
STARTCHAR acircumflextilde
ENCODING 7851
SWIDTH 830 0
DWIDTH 13 0
BBX 13 22 0 -2
BITMAP
07E0
0810
13D0
37A0
3C60
2B90
1050
37D0
3820
3020
1390
3550
2528
2BA8
6828
6FE8
6828
EBA8
E388
E388
FDF0
71E0
ENDCHAR
STARTCHAR Acircumflexdotbelow
ENCODING 7852
SWIDTH 830 0
DWIDTH 13 0
BBX 13 22 0 -6
BITMAP
0140
0FA0
1050
37D0
3820
3020
1390
3550
2528
2BA8
6828
6FE8
6828
EBA8
E388
E388
FFF0
7420
0D40
0C40
0F80
0F00
ENDCHAR
STARTCHAR acircumflexdotbelow
ENCODING 7853
SWIDTH 830 0
DWIDTH 13 0
BBX 13 22 0 -6
BITMAP
0140
0FA0
1050
37D0
3820
3020
1390
3550
2528
2BA8
6828
6FE8
6828
EBA8
E388
E388
FFF0
7420
0D40
0C40
0F80
0F00
ENDCHAR
STARTCHAR Abreveacute
ENCODING 7854
SWIDTH 830 0
DWIDTH 13 0
BBX 13 21 0 -2
BITMAP
03E0
02A0
0620
0FE0
1550
3390
3820
3FE0
1820
1390
3550
2528
2BA8
6828
6FE8
6828
EBA8
E388
E388
FDF0
71E0
ENDCHAR
STARTCHAR abreveacute
ENCODING 7855
SWIDTH 830 0
DWIDTH 13 0
BBX 13 21 0 -2
BITMAP
03E0
02A0
0620
0FE0
1550
3390
3820
3FE0
1820
1390
3550
2528
2BA8
6828
6FE8
6828
EBA8
E388
E388
FDF0
71E0
ENDCHAR
STARTCHAR Abrevegrave
ENCODING 7856
SWIDTH 830 0
DWIDTH 13 0
BBX 13 21 0 -2
BITMAP
0F80
1B80
1C80
1F60
15D0
3390
3820
3FE0
1820
1390
3550
2528
2BA8
6828
6FE8
6828
EBA8
E388
E388
FDF0
71E0
ENDCHAR
STARTCHAR abrevegrave
ENCODING 7857
SWIDTH 830 0
DWIDTH 13 0
BBX 13 21 0 -2
BITMAP
0F80
1B80
1C80
1F60
15D0
3390
3820
3FE0
1820
1390
3550
2528
2BA8
6828
6FE8
6828
EBA8
E388
E388
FDF0
71E0
ENDCHAR
STARTCHAR Abrevehookabove
ENCODING 7858
SWIDTH 830 0
DWIDTH 13 0
BBX 13 23 0 -2
BITMAP
03C0
05A0
0DE0
0E60
0FA0
0FE0
1550
3390
3820
3FE0
1820
1390
3550
2528
2BA8
6828
6FE8
6828
EBA8
E388
E388
FDF0
71E0
ENDCHAR
STARTCHAR abrevehookabove
ENCODING 7859
SWIDTH 830 0
DWIDTH 13 0
BBX 13 23 0 -2
BITMAP
03C0
05A0
0DE0
0E60
0FA0
0FE0
1550
3390
3820
3FE0
1820
1390
3550
2528
2BA8
6828
6FE8
6828
EBA8
E388
E388
FDF0
71E0
ENDCHAR
STARTCHAR Abrevetilde
ENCODING 7860
SWIDTH 830 0
DWIDTH 13 0
BBX 13 22 0 -2
BITMAP
07E0
0810
13D0
3020
3FE0
3550
3390
3820
3FE0
1820
1390
3550
2528
2BA8
6828
6FE8
6828
EBA8
E388
E388
FDF0
71E0
ENDCHAR
STARTCHAR abrevetilde
ENCODING 7861
SWIDTH 830 0
DWIDTH 13 0
BBX 13 22 0 -2
BITMAP
07E0
0810
13D0
3020
3FE0
3550
3390
3820
3FE0
1820
1390
3550
2528
2BA8
6828
6FE8
6828
EBA8
E388
E388
FDF0
71E0
ENDCHAR
STARTCHAR Abrevedotbelow
ENCODING 7862
SWIDTH 830 0
DWIDTH 13 0
BBX 13 22 0 -6
BITMAP
0E60
15D0
3390
3820
3FE0
1820
1390
3550
2528
2BA8
6828
6FE8
6828
EBA8
E388
E388
FFF0
7420
0D40
0C40
0F80
0F00
ENDCHAR
STARTCHAR abrevedotbelow
ENCODING 7863
SWIDTH 830 0
DWIDTH 13 0
BBX 13 22 0 -6
BITMAP
0E60
15D0
3390
3820
3FE0
1820
1390
3550
2528
2BA8
6828
6FE8
6828
EBA8
E388
E388
FFF0
7420
0D40
0C40
0F80
0F00
ENDCHAR
STARTCHAR Edotbelow
ENCODING 7864
SWIDTH 754 0
DWIDTH 12 0
BBX 11 18 1 -6
BITMAP
7FE0
C020
CFA0
D020
D3C0
D040
CF40
D380
D3C0
D020
CFA0
C020
FFC0
F080
3280
3080
3F00
3C00
ENDCHAR
STARTCHAR edotbelow
ENCODING 7865
SWIDTH 754 0
DWIDTH 12 0
BBX 11 18 1 -6
BITMAP
7FE0
C020
CFA0
D020
D3C0
D040
CF40
D380
D3C0
D020
CFA0
C020
FFC0
F080
3280
3080
3F00
3C00
ENDCHAR
STARTCHAR Ehookabove
ENCODING 7866
SWIDTH 754 0
DWIDTH 12 0
BBX 11 19 1 -2
BITMAP
0F00
1680
3F80
3980
3B00
44E0
C020
CFA0
D020
D3C0
D040
CF40
D380
D3C0
D020
CFA0
C020
FFC0
FF80
ENDCHAR
STARTCHAR ehookabove
ENCODING 7867
SWIDTH 754 0
DWIDTH 12 0
BBX 11 19 1 -2
BITMAP
0F00
1680
3F80
3980
3B00
44E0
C020
CFA0
D020
D3C0
D040
CF40
D380
D3C0
D020
CFA0
C020
FFC0
FF80
ENDCHAR
STARTCHAR Etilde
ENCODING 7868
SWIDTH 754 0
DWIDTH 12 0
BBX 11 18 1 -2
BITMAP
1FC0
2040
6F40
6C40
53A0
4020
CFA0
D020
D3C0
D040
CF40
D380
D3C0
D020
CFA0
C020
FFC0
FF80
ENDCHAR
STARTCHAR etilde
ENCODING 7869
SWIDTH 754 0
DWIDTH 12 0
BBX 11 18 1 -2
BITMAP
1FC0
2040
6F40
6C40
53A0
4020
CFA0
D020
D3C0
D040
CF40
D380
D3C0
D020
CFA0
C020
FFC0
FF80
ENDCHAR
STARTCHAR Ecircumflexacute
ENCODING 7870
SWIDTH 754 0
DWIDTH 12 0
BBX 11 21 1 -2
BITMAP
03E0
02A0
0660
0780
3F40
2040
7FC0
4020
4020
CFA0
D020
D3C0
D040
CF40
D380
D3C0
D020
CFA0
C020
FFC0
FF80
ENDCHAR
STARTCHAR ecircumflexacute
ENCODING 7871
SWIDTH 754 0
DWIDTH 12 0
BBX 11 21 1 -2
BITMAP
03E0
02A0
0660
0780
3F40
2040
7FC0
4020
4020
CFA0
D020
D3C0
D040
CF40
D380
D3C0
D020
CFA0
C020
FFC0
FF80
ENDCHAR
STARTCHAR Ecircumflexgrave
ENCODING 7872
SWIDTH 754 0
DWIDTH 12 0
BBX 11 21 1 -2
BITMAP
0380
0640
0EC0
0FC0
3F40
2040
7FC0
4020
4020
CFA0
D020
D3C0
D040
CF40
D380
D3C0
D020
CFA0
C020
FFC0
FF80
ENDCHAR
STARTCHAR ecircumflexgrave
ENCODING 7873
SWIDTH 754 0
DWIDTH 12 0
BBX 11 21 1 -2
BITMAP
0380
0640
0EC0
0FC0
3F40
2040
7FC0
4020
4020
CFA0
D020
D3C0
D040
CF40
D380
D3C0
D020
CFA0
C020
FFC0
FF80
ENDCHAR
STARTCHAR Ecircumflexhookabove
ENCODING 7874
SWIDTH 754 0
DWIDTH 12 0
BBX 12 23 1 -2
BITMAP
01C0
02D0
07B0
0770
03B0
1CC0
2F40
6040
7FC0
4020
4020
CFA0
D020
D3C0
D040
CF40
D380
D3C0
D020
CFA0
C020
FFC0
FF80
ENDCHAR
STARTCHAR ecircumflexhookabove
ENCODING 7875
SWIDTH 754 0
DWIDTH 12 0
BBX 12 23 1 -2
BITMAP
01C0
02D0
07B0
0770
03B0
1CC0
2F40
6040
7FC0
4020
4020
CFA0
D020
D3C0
D040
CF40
D380
D3C0
D020
CFA0
C020
FFC0
FF80
ENDCHAR
STARTCHAR Ecircumflextilde
ENCODING 7876
SWIDTH 754 0
DWIDTH 12 0
BBX 11 22 1 -2
BITMAP
1FC0
2040
6F40
6E40
7980
6F40
6040
7FC0
4020
4020
CFA0
D020
D3C0
D040
CF40
D380
D3C0
D020
CFA0
C020
FFC0
FF80
ENDCHAR
STARTCHAR ecircumflextilde
ENCODING 7877
SWIDTH 754 0
DWIDTH 12 0
BBX 11 22 1 -2
BITMAP
1FC0
2040
6F40
6E40
7980
6F40
6040
7FC0
4020
4020
CFA0
D020
D3C0
D040
CF40
D380
D3C0
D020
CFA0
C020
FFC0
FF80
ENDCHAR
STARTCHAR Ecircumflexdotbelow
ENCODING 7878
SWIDTH 754 0
DWIDTH 12 0
BBX 11 22 1 -6
BITMAP
0200
1FC0
2040
7FC0
4020
4020
CFA0
D020
D3C0
D040
CF40
D380
D3C0
D020
CFA0
C020
FFC0
F080
3300
3100
3E00
3C00
ENDCHAR
STARTCHAR ecircumflexdotbelow
ENCODING 7879
SWIDTH 754 0
DWIDTH 12 0
BBX 11 22 1 -6
BITMAP
0200
1FC0
2040
7FC0
4020
4020
CFA0
D020
D3C0
D040
CF40
D380
D3C0
D020
CFA0
C020
FFC0
F080
3300
3100
3E00
3C00
ENDCHAR
STARTCHAR Ihookabove
ENCODING 7880
SWIDTH 705 0
DWIDTH 11 0
BBX 11 19 0 -2
BITMAP
0F80
1740
3E80
3940
1B80
2460
6020
EFA0
FA40
FA80
1A80
1A80
1A80
1A40
2220
6FA0
E020
FFC0
FF80
ENDCHAR
STARTCHAR ihookabove
ENCODING 7881
SWIDTH 705 0
DWIDTH 11 0
BBX 11 19 0 -2
BITMAP
0F80
1740
3E80
3940
1B80
2460
6020
EFA0
FA40
FA80
1A80
1A80
1A80
1A40
2220
6FA0
E020
FFC0
FF80
ENDCHAR
STARTCHAR Idotbelow
ENCODING 7882
SWIDTH 705 0
DWIDTH 11 0
BBX 11 18 0 -6
BITMAP
3FE0
6020
EFA0
FA40
FA80
1A80
1A80
1A80
1A40
2220
6FA0
E020
FFC0
F880
1A80
1880
1F00
1E00
ENDCHAR
STARTCHAR idotbelow
ENCODING 7883
SWIDTH 705 0
DWIDTH 11 0
BBX 11 18 0 -6
BITMAP
3FE0
6020
EFA0
FA40
FA80
1A80
1A80
1A80
1A40
2220
6FA0
E020
FFC0
F880
1A80
1880
1F00
1E00
ENDCHAR
STARTCHAR Odotbelow
ENCODING 7884
SWIDTH 837 0
DWIDTH 13 0
BBX 12 18 1 -6
BITMAP
1FE0
2F90
5050
D350
D750
D750
D750
D750
D750
D050
CF90
E020
FFC0
7880
1A80
1880
1F00
1E00
ENDCHAR
STARTCHAR odotbelow
ENCODING 7885
SWIDTH 837 0
DWIDTH 13 0
BBX 12 18 1 -6
BITMAP
1FE0
2F90
5050
D350
D750
D750
D750
D750
D750
D050
CF90
E020
FFC0
7880
1A80
1880
1F00
1E00
ENDCHAR
STARTCHAR Ohookabove
ENCODING 7886
SWIDTH 837 0
DWIDTH 13 0
BBX 12 19 1 -2
BITMAP
0F80
1740
3E80
3940
1F80
1060
6F90
5050
D350
D750
D750
D750
D750
D750
D050
CF90
E020
FFC0
3F00
ENDCHAR
STARTCHAR ohookabove
ENCODING 7887
SWIDTH 837 0
DWIDTH 13 0
BBX 12 19 1 -2
BITMAP
0F80
1740
3E80
3940
1F80
1060
6F90
5050
D350
D750
D750
D750
D750
D750
D050
CF90
E020
FFC0
3F00
ENDCHAR
STARTCHAR Ocircumflexacute
ENCODING 7888
SWIDTH 837 0
DWIDTH 13 0
BBX 12 22 1 -2
BITMAP
00E0
0160
02A0
0620
09C0
1720
20A0
6FA0
7060
4F90
5050
D350
D750
D750
D750
D750
D750
D050
CF90
E020
FFC0
3F00
ENDCHAR
STARTCHAR ocircumflexacute
ENCODING 7889
SWIDTH 837 0
DWIDTH 13 0
BBX 12 22 1 -2
BITMAP
00E0
0160
02A0
0620
09C0
1720
20A0
6FA0
7060
4F90
5050
D350
D750
D750
D750
D750
D750
D050
CF90
E020
FFC0
3F00
ENDCHAR
STARTCHAR Ocircumflexgrave
ENCODING 7890
SWIDTH 837 0
DWIDTH 13 0
BBX 12 21 1 -2
BITMAP
03C0
06E0
0620
09C0
1720
20A0
6FA0
7060
4F90
5050
D350
D750
D750
D750
D750
D750
D050
CF90
E020
FFC0
3F00
ENDCHAR
STARTCHAR ocircumflexgrave
ENCODING 7891
SWIDTH 837 0
DWIDTH 13 0
BBX 12 21 1 -2
BITMAP
03C0
06E0
0620
09C0
1720
20A0
6FA0
7060
4F90
5050
D350
D750
D750
D750
D750
D750
D050
CF90
E020
FFC0
3F00
ENDCHAR
STARTCHAR Ocircumflexhookabove
ENCODING 7892
SWIDTH 837 0
DWIDTH 13 0
BBX 12 23 1 -2
BITMAP
01E0
02F0
07D0
0770
0310
0CE0
1720
20A0
6FA0
7060
4F90
5050
D350
D750
D750
D750
D750
D750
D050
CF90
E020
FFC0
3F00
ENDCHAR
STARTCHAR ocircumflexhookabove
ENCODING 7893
SWIDTH 837 0
DWIDTH 13 0
BBX 12 23 1 -2
BITMAP
01E0
02F0
07D0
0770
0310
0CE0
1720
20A0
6FA0
7060
4F90
5050
D350
D750
D750
D750
D750
D750
D050
CF90
E020
FFC0
3F00
ENDCHAR
STARTCHAR Ocircumflextilde
ENCODING 7894
SWIDTH 837 0
DWIDTH 13 0
BBX 12 22 1 -2
BITMAP
0FC0
1020
27A0
6F40
78C0
5720
20A0
6FA0
7060
4F90
5050
D350
D750
D750
D750
D750
D750
D050
CF90
E020
FFC0
3F00
ENDCHAR
STARTCHAR ocircumflextilde
ENCODING 7895
SWIDTH 837 0
DWIDTH 13 0
BBX 12 22 1 -2
BITMAP
0FC0
1020
27A0
6F40
78C0
5720
20A0
6FA0
7060
4F90
5050
D350
D750
D750
D750
D750
D750
D050
CF90
E020
FFC0
3F00
ENDCHAR
STARTCHAR Ocircumflexdotbelow
ENCODING 7896
SWIDTH 837 0
DWIDTH 13 0
BBX 12 22 1 -6
BITMAP
0280
1F40
20A0
6FA0
7060
4F90
5050
D350
D750
D750
D750
D750
D750
D050
CF90
E020
FFC0
7880
1A80
1880
1F00
1E00
ENDCHAR
STARTCHAR ocircumflexdotbelow
ENCODING 7897
SWIDTH 837 0
DWIDTH 13 0
BBX 12 22 1 -6
BITMAP
0280
1F40
20A0
6FA0
7060
4F90
5050
D350
D750
D750
D750
D750
D750
D050
CF90
E020
FFC0
7880
1A80
1880
1F00
1E00
ENDCHAR
STARTCHAR Ohornacute
ENCODING 7898
SWIDTH 847 0
DWIDTH 14 0
BBX 13 18 1 -2
BITMAP
0180
3F40
6070
67C8
7818
4FE8
D050
D350
D750
D750
D750
D750
D750
D050
CF90
E020
FFC0
7F00
ENDCHAR
STARTCHAR ohornacute
ENCODING 7899
SWIDTH 847 0
DWIDTH 14 0
BBX 13 18 1 -2
BITMAP
0180
3F40
6070
67C8
7818
4FE8
D050
D350
D750
D750
D750
D750
D750
D050
CF90
E020
FFC0
7F00
ENDCHAR
STARTCHAR Ohorngrave
ENCODING 7900
SWIDTH 847 0
DWIDTH 14 0
BBX 13 18 1 -2
BITMAP
3F80
6740
E070
FFC8
6018
4FE8
5050
D350
D750
D750
D750
D750
D750
D050
CF90
E020
FFC0
7F00
ENDCHAR
STARTCHAR ohorngrave
ENCODING 7901
SWIDTH 847 0
DWIDTH 14 0
BBX 13 18 1 -2
BITMAP
3F80
6740
E070
FFC8
6018
4FE8
5050
D350
D750
D750
D750
D750
D750
D050
CF90
E020
FFC0
7F00
ENDCHAR
STARTCHAR Ohornhookabove
ENCODING 7902
SWIDTH 847 0
DWIDTH 14 0
BBX 13 19 1 -2
BITMAP
0F80
1740
3E80
3B70
1FC8
1018
6FE8
5050
D350
D750
D750
D750
D750
D750
D050
CF90
E020
FFC0
7F00
ENDCHAR
STARTCHAR ohornhookabove
ENCODING 7903
SWIDTH 847 0
DWIDTH 14 0
BBX 13 19 1 -2
BITMAP
0F80
1740
3E80
3B70
1FC8
1018
6FE8
5050
D350
D750
D750
D750
D750
D750
D050
CF90
E020
FFC0
7F00
ENDCHAR
STARTCHAR Ohorntilde
ENCODING 7904
SWIDTH 847 0
DWIDTH 14 0
BBX 13 18 1 -2
BITMAP
18C0
2F40
6030
6EC8
7118
4FE8
5050
D350
D750
D750
D750
D750
D750
D050
CF90
E020
FFC0
7F00
ENDCHAR
STARTCHAR ohorntilde
ENCODING 7905
SWIDTH 847 0
DWIDTH 14 0
BBX 13 18 1 -2
BITMAP
18C0
2F40
6030
6EC8
7118
4FE8
5050
D350
D750
D750
D750
D750
D750
D050
CF90
E020
FFC0
7F00
ENDCHAR
STARTCHAR Ohorndotbelow
ENCODING 7906
SWIDTH 847 0
DWIDTH 14 0
BBX 13 20 1 -6
BITMAP
0030
0048
1F98
2FE8
5050
D350
D750
D750
D750
D750
D750
D050
CF90
E020
FFC0
7880
1A80
1880
1F00
1E00
ENDCHAR
STARTCHAR ohorndotbelow
ENCODING 7907
SWIDTH 847 0
DWIDTH 14 0
BBX 13 20 1 -6
BITMAP
0030
0048
1F98
2FE8
5050
D350
D750
D750
D750
D750
D750
D050
CF90
E020
FFC0
7880
1A80
1880
1F00
1E00
ENDCHAR
STARTCHAR Udotbelow
ENCODING 7908
SWIDTH 846 0
DWIDTH 14 0
BBX 12 18 1 -6
BITMAP
7CF0
C510
D350
D350
D350
D350
D350
D350
D350
D050
CF90
E020
FFC0
7880
1A80
1880
1F00
1E00
ENDCHAR
STARTCHAR udotbelow
ENCODING 7909
SWIDTH 846 0
DWIDTH 14 0
BBX 12 18 1 -6
BITMAP
7CF0
C510
D350
D350
D350
D350
D350
D350
D350
D050
CF90
E020
FFC0
7880
1A80
1880
1F00
1E00
ENDCHAR
STARTCHAR Uhookabove
ENCODING 7910
SWIDTH 846 0
DWIDTH 14 0
BBX 12 19 1 -2
BITMAP
0780
0B40
1FC0
1FC0
1C80
6770
C510
D350
D350
D350
D350
D350
D350
D350
D050
CF90
E020
FFC0
3F00
ENDCHAR
STARTCHAR uhookabove
ENCODING 7911
SWIDTH 846 0
DWIDTH 14 0
BBX 12 19 1 -2
BITMAP
0780
0B40
1FC0
1FC0
1C80
6770
C510
D350
D350
D350
D350
D350
D350
D350
D050
CF90
E020
FFC0
3F00
ENDCHAR
STARTCHAR Uhornacute
ENCODING 7912
SWIDTH 856 0
DWIDTH 14 0
BBX 13 18 1 -2
BITMAP
01C0
3F40
6078
61C8
5F18
C528
D350
D350
D350
D350
D350
D350
D350
D050
CF90
E020
FFC0
3F00
ENDCHAR
STARTCHAR uhornacute
ENCODING 7913
SWIDTH 856 0
DWIDTH 14 0
BBX 13 18 1 -2
BITMAP
01C0
3F40
6078
61C8
5F18
C528
D350
D350
D350
D350
D350
D350
D350
D050
CF90
E020
FFC0
3F00
ENDCHAR
STARTCHAR Uhorngrave
ENCODING 7914
SWIDTH 856 0
DWIDTH 14 0
BBX 13 18 1 -2
BITMAP
3E80
6F40
E078
F848
C798
C328
D350
D350
D350
D350
D350
D350
D350
D050
CF90
E020
FFC0
3F00
ENDCHAR
STARTCHAR uhorngrave
ENCODING 7915
SWIDTH 856 0
DWIDTH 14 0
BBX 13 18 1 -2
BITMAP
3E80
6F40
E078
F848
C798
C328
D350
D350
D350
D350
D350
D350
D350
D050
CF90
E020
FFC0
3F00
ENDCHAR
STARTCHAR Uhornhookabove
ENCODING 7916
SWIDTH 856 0
DWIDTH 14 0
BBX 13 19 1 -2
BITMAP
0780
1B40
1EC0
1B78
1CC8
6718
C528
D350
D350
D350
D350
D350
D350
D350
D050
CF90
E020
FFC0
3F00
ENDCHAR
STARTCHAR uhornhookabove
ENCODING 7917
SWIDTH 856 0
DWIDTH 14 0
BBX 13 19 1 -2
BITMAP
0780
1B40
1EC0
1B78
1CC8
6718
C528
D350
D350
D350
D350
D350
D350
D350
D050
CF90
E020
FFC0
3F00
ENDCHAR
STARTCHAR Uhorntilde
ENCODING 7918
SWIDTH 856 0
DWIDTH 14 0
BBX 13 18 1 -2
BITMAP
19C0
2E40
6178
6848
5798
C528
D350
D350
D350
D350
D350
D350
D350
D050
CF90
E020
FFC0
3F00
ENDCHAR
STARTCHAR uhorntilde
ENCODING 7919
SWIDTH 856 0
DWIDTH 14 0
BBX 13 18 1 -2
BITMAP
19C0
2E40
6178
6848
5798
C528
D350
D350
D350
D350
D350
D350
D350
D050
CF90
E020
FFC0
3F00
ENDCHAR
STARTCHAR Uhorndotbelow
ENCODING 7920
SWIDTH 856 0
DWIDTH 14 0
BBX 13 20 1 -6
BITMAP
0038
0048
7D98
C528
D350
D350
D350
D350
D350
D350
D350
D050
CF90
E020
FFC0
7880
1A80
1880
1F00
1E00
ENDCHAR
STARTCHAR uhorndotbelow
ENCODING 7921
SWIDTH 856 0
DWIDTH 14 0
BBX 13 20 1 -6
BITMAP
0038
0048
7D98
C528
D350
D350
D350
D350
D350
D350
D350
D050
CF90
E020
FFC0
7880
1A80
1880
1F00
1E00
ENDCHAR
STARTCHAR Ygrave
ENCODING 7922
SWIDTH 805 0
DWIDTH 13 0
BBX 13 18 0 -2
BITMAP
0E80
1760
30A0
3C20
23D8
6388
EBA8
EBA8
E928
E548
F450
73A0
7920
3D40
1D40
1C40
1F80
1F00
ENDCHAR
STARTCHAR ygrave
ENCODING 7923
SWIDTH 805 0
DWIDTH 13 0
BBX 13 18 0 -2
BITMAP
0E80
1760
30A0
3C20
23D8
6388
EBA8
EBA8
E928
E548
F450
73A0
7920
3D40
1D40
1C40
1F80
1F00
ENDCHAR
STARTCHAR Ydotbelow
ENCODING 7924
SWIDTH 805 0
DWIDTH 13 0
BBX 13 18 0 -6
BITMAP
3EF8
6388
EBA8
EBA8
E928
E548
F450
73A0
7920
3D40
1D40
1C40
1F80
1C40
0D40
1C40
1F80
1E00
ENDCHAR
STARTCHAR ydotbelow
ENCODING 7925
SWIDTH 805 0
DWIDTH 13 0
BBX 13 18 0 -6
BITMAP
3EF8
6388
EBA8
EBA8
E928
E548
F450
73A0
7920
3D40
1D40
1C40
1F80
1C40
0D40
1C40
1F80
1E00
ENDCHAR
STARTCHAR Yhookabove
ENCODING 7926
SWIDTH 805 0
DWIDTH 13 0
BBX 13 19 0 -2
BITMAP
0780
0BC0
1FA0
1DA0
0C40
33B8
6388
EBA8
EBA8
E928
E548
F450
73A0
7920
3D40
1D40
1C40
1F80
1F00
ENDCHAR
STARTCHAR yhookabove
ENCODING 7927
SWIDTH 805 0
DWIDTH 13 0
BBX 13 19 0 -2
BITMAP
0780
0BC0
1FA0
1DA0
0C40
33B8
6388
EBA8
EBA8
E928
E548
F450
73A0
7920
3D40
1D40
1C40
1F80
1F00
ENDCHAR
STARTCHAR Ytilde
ENCODING 7928
SWIDTH 805 0
DWIDTH 13 0
BBX 13 18 0 -2
BITMAP
0FE0
1020
33A0
3420
2BD8
6388
EBA8
EBA8
E928
E548
F450
73A0
7920
3D40
1D40
1C40
1F80
1F00
ENDCHAR
STARTCHAR ytilde
ENCODING 7929
SWIDTH 805 0
DWIDTH 13 0
BBX 13 18 0 -2
BITMAP
0FE0
1020
33A0
3420
2BD8
6388
EBA8
EBA8
E928
E548
F450
73A0
7920
3D40
1D40
1C40
1F80
1F00
ENDCHAR
STARTCHAR enspace
ENCODING 8192
SWIDTH 500 0
DWIDTH 8 0
BBX 1 1 0 0
BITMAP
00
ENDCHAR
STARTCHAR emspace
ENCODING 8193
SWIDTH 1000 0
DWIDTH 16 0
BBX 1 1 0 0
BITMAP
00
ENDCHAR
STARTCHAR uni2002
ENCODING 8194
SWIDTH 500 0
DWIDTH 8 0
BBX 1 1 0 0
BITMAP
00
ENDCHAR
STARTCHAR uni2003
ENCODING 8195
SWIDTH 1000 0
DWIDTH 16 0
BBX 1 1 0 0
BITMAP
00
ENDCHAR
STARTCHAR space.tab_en
ENCODING 8199
SWIDTH 1100 0
DWIDTH 18 0
BBX 1 1 0 0
BITMAP
00
ENDCHAR
STARTCHAR uni2010
ENCODING 8208
SWIDTH 520 0
DWIDTH 8 0
BBX 8 6 0 2
BITMAP
3F
41
CD
C1
FE
FC
ENDCHAR
STARTCHAR figuredash
ENCODING 8210
SWIDTH 834 0
DWIDTH 13 0
BBX 12 6 1 2
BITMAP
3FE0
4010
DFD0
C010
FFE0
FFC0
ENDCHAR
STARTCHAR endash
ENCODING 8211
SWIDTH 834 0
DWIDTH 13 0
BBX 12 6 1 2
BITMAP
3FE0
4010
DFD0
C010
FFE0
FFC0
ENDCHAR
STARTCHAR emdash
ENCODING 8212
SWIDTH 1234 0
DWIDTH 20 0
BBX 18 6 1 2
BITMAP
3FFFC0
400040
DFFF40
C00040
FFFF80
FFFF00
ENDCHAR
STARTCHAR horizontalbar
ENCODING 8213
SWIDTH 1234 0
DWIDTH 20 0
BBX 18 6 1 2
BITMAP
3FFFC0
400040
DFFF40
C00040
FFFF80
FFFF00
ENDCHAR
STARTCHAR quoteleft
ENCODING 8216
SWIDTH 484 0
DWIDTH 8 0
BBX 7 8 0 4
BITMAP
1E
2E
74
72
EE
E2
FE
78
ENDCHAR
STARTCHAR quoteright
ENCODING 8217
SWIDTH 484 0
DWIDTH 8 0
BBX 7 8 0 4
BITMAP
3E
6E
66
E6
FE
6A
7C
78
ENDCHAR
STARTCHAR quotesinglbase
ENCODING 8218
SWIDTH 484 0
DWIDTH 8 0
BBX 7 9 0 -4
BITMAP
1E
22
6E
E6
FE
6A
64
78
60
ENDCHAR
STARTCHAR quotedblleft
ENCODING 8220
SWIDTH 784 0
DWIDTH 13 0
BBX 12 8 0 4
BITMAP
1EF0
2D70
77A0
F190
ED70
E110
FFF0
FFC0
ENDCHAR
STARTCHAR quotedblright
ENCODING 8221
SWIDTH 784 0
DWIDTH 13 0
BBX 12 8 0 4
BITMAP
3FF0
6D70
E530
E530
FDF0
E950
7FE0
7380
ENDCHAR
STARTCHAR quotedblbase
ENCODING 8222
SWIDTH 784 0
DWIDTH 13 0
BBX 12 9 0 -4
BITMAP
1EF0
2110
ED70
E530
FDF0
E950
6720
7BC0
6300
ENDCHAR
STARTCHAR dagger
ENCODING 8224
SWIDTH 818 0
DWIDTH 13 0
BBX 13 14 0 -2
BITMAP
07C0
0C40
1D50
2128
6FE8
E108
FD70
FD60
0D40
0D40
0D40
0C40
0F80
0F00
ENDCHAR
STARTCHAR daggerdbl
ENCODING 8225
SWIDTH 818 0
DWIDTH 13 0
BBX 13 14 0 -2
BITMAP
07C0
1C70
2108
6FE8
E108
FD70
FD70
2108
6FE8
E108
FD78
FC60
0F80
0F00
ENDCHAR
STARTCHAR bullet
ENCODING 8226
SWIDTH 543 0
DWIDTH 9 0
BBX 8 8 0 1
BITMAP
1F
6F
EB
EB
EF
E1
FF
FC
ENDCHAR
STARTCHAR ellipsis
ENCODING 8230
SWIDTH 1210 0
DWIDTH 19 0
BBX 19 7 0 -2
BITMAP
1E7BE0
218420
69A4A0
E9A4A0
E18420
FFFFC0
7BEF80
ENDCHAR
STARTCHAR perthousand
ENCODING 8240
SWIDTH 1517 0
DWIDTH 24 0
BBX 24 14 0 -2
BITMAP
1F7800
2EC800
75D800
F5A800
F5A800
F1B79E
EEBB6D
FF56B7
7F56B7
0356B7
0354B3
023B6D
07FFFE
071E7C
ENDCHAR
STARTCHAR minute
ENCODING 8242
SWIDTH 456 0
DWIDTH 7 0
BBX 7 8 0 4
BITMAP
3E
62
6A
6A
6A
62
7C
F8
ENDCHAR
STARTCHAR second
ENCODING 8243
SWIDTH 766 0
DWIDTH 12 0
BBX 12 8 0 4
BITMAP
3FF0
6110
6950
6950
6B50
6310
7FE0
FFC0
ENDCHAR
STARTCHAR guilsinglleft
ENCODING 8249
SWIDTH 663 0
DWIDTH 11 0
BBX 9 10 1 0
BITMAP
0780
3880
4E80
D080
D700
D080
CE80
F080
FF00
3E00
ENDCHAR
STARTCHAR guilsinglright
ENCODING 8250
SWIDTH 663 0
DWIDTH 11 0
BBX 9 10 1 0
BITMAP
3C00
4300
CE80
C180
FD80
C380
5C80
C100
FE00
F000
ENDCHAR
STARTCHAR fraction
ENCODING 8260
SWIDTH 417 0
DWIDTH 7 0
BBX 7 14 0 -2
BITMAP
1E
12
36
2A
6A
6A
6C
6C
6C
D4
D4
C4
F8
E0
ENDCHAR
STARTCHAR zero.sups
ENCODING 8304
SWIDTH 656 0
DWIDTH 11 0
BBX 8 10 1 2
BITMAP
3F
5D
AF
AF
AF
AF
A3
9D
C1
FE
ENDCHAR
STARTCHAR foursuperior
ENCODING 8308
SWIDTH 608 0
DWIDTH 10 0
BBX 9 11 0 1
BITMAP
3F80
7780
F780
F780
F180
EF80
E180
FE80
7E80
0F00
0E00
ENDCHAR
STARTCHAR five.sups
ENCODING 8309
SWIDTH 593 0
DWIDTH 9 0
BBX 9 10 0 2
BITMAP
3F80
6F80
6F00
6880
6E80
7D80
6180
6E80
FF00
FC00
ENDCHAR
STARTCHAR six.sups
ENCODING 8310
SWIDTH 628 0
DWIDTH 10 0
BBX 9 11 1 1
BITMAP
3F00
4F00
DE00
D180
DE80
DD80
D580
CE80
F300
FC00
3800
ENDCHAR
STARTCHAR seven.sups
ENCODING 8311
SWIDTH 577 0
DWIDTH 9 0
BBX 9 10 0 2
BITMAP
3F80
5E80
FD80
F980
1680
2900
6A00
6200
7C00
7000
ENDCHAR
STARTCHAR eight.sups
ENCODING 8312
SWIDTH 638 0
DWIDTH 10 0
BBX 10 11 0 1
BITMAP
1F80
2640
6F40
7980
6F40
76C0
F0C0
EF40
F880
7F00
3C00
ENDCHAR
STARTCHAR nine.sups
ENCODING 8313
SWIDTH 628 0
DWIDTH 10 0
BBX 10 11 0 1
BITMAP
1F80
2F40
74C0
F6C0
EFC0
E0C0
7EC0
2F40
6080
7F00
7C00
ENDCHAR
STARTCHAR parenleft.sups
ENCODING 8317
SWIDTH 434 0
DWIDTH 7 0
BBX 6 12 0 2
BITMAP
1C
24
5C
54
D8
D8
D8
D8
D4
D4
6C
78
ENDCHAR
STARTCHAR parenright.sups
ENCODING 8318
SWIDTH 435 0
DWIDTH 7 0
BBX 6 12 0 2
BITMAP
38
44
DC
EC
6C
2C
2C
2C
2C
4C
5C
F0
ENDCHAR
STARTCHAR n.sups
ENCODING 8319
SWIDTH 673 0
DWIDTH 11 0
BBX 9 10 1 2
BITMAP
3F00
5E80
A180
AD80
AD80
AD80
AD80
AD80
8C80
FF00
ENDCHAR
STARTCHAR zero.sinf
ENCODING 8320
SWIDTH 656 0
DWIDTH 11 0
BBX 8 10 1 -1
BITMAP
3F
5D
AF
AF
AF
AF
A3
9D
C1
FE
ENDCHAR
STARTCHAR one.sinf
ENCODING 8321
SWIDTH 557 0
DWIDTH 9 0
BBX 9 10 0 -1
BITMAP
3F00
6D00
6500
7500
7500
3500
3500
6E80
FF00
FE00
ENDCHAR
STARTCHAR two.sinf
ENCODING 8322
SWIDTH 585 0
DWIDTH 9 0
BBX 9 10 0 -1
BITMAP
3F80
6E80
6580
7980
6E80
7100
D780
CF80
FF80
FE00
ENDCHAR
STARTCHAR three.sinf
ENCODING 8323
SWIDTH 584 0
DWIDTH 9 0
BBX 9 10 0 -1
BITMAP
3F00
6C80
FE80
F300
3680
7D80
6180
6E80
FF00
FC00
ENDCHAR
STARTCHAR four.sinf
ENCODING 8324
SWIDTH 620 0
DWIDTH 10 0
BBX 9 11 0 -2
BITMAP
3F80
5580
D580
D580
D180
CF80
E180
FC80
7C80
0F00
0E00
ENDCHAR
STARTCHAR five.sinf
ENCODING 8325
SWIDTH 593 0
DWIDTH 9 0
BBX 9 10 0 -1
BITMAP
3F80
6F80
6F00
6880
6E80
7D80
6180
6E80
FF00
FC00
ENDCHAR
STARTCHAR six.sinf
ENCODING 8326
SWIDTH 628 0
DWIDTH 10 0
BBX 9 11 1 -2
BITMAP
3F00
4F00
DE00
D180
DE80
DD80
D580
CE80
F300
FC00
3800
ENDCHAR
STARTCHAR seven.sinf
ENCODING 8327
SWIDTH 577 0
DWIDTH 9 0
BBX 9 10 0 -1
BITMAP
3F80
5E80
FD80
F980
1680
2900
6A00
6200
7C00
7000
ENDCHAR
STARTCHAR eight.sinf
ENCODING 8328
SWIDTH 638 0
DWIDTH 10 0
BBX 10 11 0 -2
BITMAP
1F80
2640
6F40
7980
6F40
76C0
F0C0
EF40
F880
7F00
3C00
ENDCHAR
STARTCHAR nine.sinf
ENCODING 8329
SWIDTH 628 0
DWIDTH 10 0
BBX 10 11 0 -2
BITMAP
1F80
2F40
74C0
F6C0
EFC0
E0C0
7EC0
2F40
6080
7F00
7C00
ENDCHAR
STARTCHAR parenleft.sinf
ENCODING 8333
SWIDTH 434 0
DWIDTH 7 0
BBX 6 12 0 -1
BITMAP
1C
24
5C
54
D8
D8
D8
D8
D4
D4
6C
78
ENDCHAR
STARTCHAR parenright.sinf
ENCODING 8334
SWIDTH 435 0
DWIDTH 7 0
BBX 6 12 0 -1
BITMAP
38
44
DC
EC
6C
2C
2C
2C
2C
4C
5C
F0
ENDCHAR
STARTCHAR colonsign
ENCODING 8353
SWIDTH 728 0
DWIDTH 12 0
BBX 10 16 1 -3
BITMAP
0580
0A80
14C0
2FC0
5040
D3C0
D780
D400
D400
D3C0
D040
CFC0
E4C0
7A80
1F00
1E00
ENDCHAR
STARTCHAR lira
ENCODING 8356
SWIDTH 795 0
DWIDTH 13 0
BBX 12 14 0 -2
BITMAP
0FE0
1020
27A0
6820
69C0
4D00
E970
CC90
E9B0
E830
67F0
6010
7FF0
7FC0
ENDCHAR
STARTCHAR naira
ENCODING 8358
SWIDTH 853 0
DWIDTH 14 0
BBX 14 14 0 -2
BITMAP
3E78
2288
6D98
6A98
6954
4914
EA98
CA54
EB24
EB98
6B98
6388
7DF0
79E0
ENDCHAR
STARTCHAR peseta
ENCODING 8359
SWIDTH 812 0
DWIDTH 13 0
BBX 13 14 0 -2
BITMAP
3FE0
6010
67C8
6828
49B8
C9A8
E828
E7D0
6830
69C0
6980
6200
7C00
7800
ENDCHAR
STARTCHAR dong
ENCODING 8363
SWIDTH 782 0
DWIDTH 13 0
BBX 12 17 0 -5
BITMAP
01F0
0310
05F0
0C50
0F50
17D0
2850
4B50
CB50
EA50
E7A0
F040
7FC0
27A0
6020
7FC0
7F00
ENDCHAR
STARTCHAR Euro
ENCODING 8364
SWIDTH 748 0
DWIDTH 12 0
BBX 12 14 0 -2
BITMAP
0FF0
1010
27D0
69E0
4820
4FC0
E9C0
CFC0
C840
E9E0
67D0
7010
7FE0
3FC0
ENDCHAR
STARTCHAR peso
ENCODING 8369
SWIDTH 812 0
DWIDTH 13 0
BBX 13 14 0 -2
BITMAP
3FE0
6010
6FC8
4838
E9A8
C9A8
C838
E7D0
E820
69C0
6980
6200
7C00
7800
ENDCHAR
STARTCHAR guarani
ENCODING 8370
SWIDTH 788 0
DWIDTH 13 0
BBX 11 16 1 -3
BITMAP
0700
0880
1260
6FA0
5020
D7C0
D780
D560
D720
D760
D060
CFA0
E220
F8C0
3F80
1E00
ENDCHAR
STARTCHAR cedi
ENCODING 8373
SWIDTH 728 0
DWIDTH 12 0
BBX 10 16 1 -3
BITMAP
0700
0880
3240
4FC0
5040
D3C0
D780
D400
D400
D3C0
D040
CFC0
F240
7880
1F00
1E00
ENDCHAR
STARTCHAR indianrupee
ENCODING 8377
SWIDTH 713 0
DWIDTH 11 0
BBX 11 14 0 -2
BITMAP
3FE0
6FE0
E120
FD20
6FE0
E120
FD40
6FA0
E060
FE60
FE60
0620
07C0
0780
ENDCHAR
STARTCHAR turkishlira
ENCODING 8378
SWIDTH 795 0
DWIDTH 13 0
BBX 13 14 0 -2
BITMAP
3E00
6200
6B00
4F00
5A00
ED70
DB88
EBA8
EB28
6828
67D0
6020
7FC0
7F00
ENDCHAR
STARTCHAR ruble
ENCODING 8381
SWIDTH 782 0
DWIDTH 13 0
BBX 12 14 0 -2
BITMAP
3FE0
6010
67D0
69B0
69B0
6830
67D0
6830
69C0
4C80
C900
E200
FC00
7800
ENDCHAR
STARTCHAR liter
ENCODING 8467
SWIDTH 749 0
DWIDTH 12 0
BBX 10 14 1 -2
BITMAP
1F80
2F40
50C0
D6C0
D6C0
D0C0
DF40
D040
D780
D040
CF40
E040
FF80
7E00
ENDCHAR
STARTCHAR uni2117
ENCODING 8471
SWIDTH 967 0
DWIDTH 15 0
BBX 14 16 1 -3
BITMAP
1FF8
3914
6FFC
DB1C
DCDC
DDDC
DDDC
DFDC
DC3C
DDFC
D93C
EE3C
D7EC
EC38
FFF0
7FC0
ENDCHAR
STARTCHAR uni2120
ENCODING 8480
SWIDTH 1003 0
DWIDTH 16 0
BBX 16 9 0 3
BITMAP
1FF7
3FED
57D5
DDDB
E2DB
FEDB
5C99
FFFE
FFDC
ENDCHAR
STARTCHAR trademark
ENCODING 8482
SWIDTH 1003 0
DWIDTH 16 0
BBX 16 9 0 3
BITMAP
3FF7
5EED
F7D5
F7DB
37DB
37DB
3399
3FFE
3BDC
ENDCHAR
STARTCHAR Omega
ENCODING 8486
SWIDTH 877 0
DWIDTH 14 0
BBX 14 14 0 -2
BITMAP
0FF0
13C8
2424
6994
6994
6994
6994
6994
7998
44A4
4CB4
C084
FFF8
FFF0
ENDCHAR
STARTCHAR estimated
ENCODING 8494
SWIDTH 815 0
DWIDTH 13 0
BBX 13 14 0 -2
BITMAP
0FF0
1388
2C68
6BA8
6BA8
E828
EFC8
E818
EBE0
E810
E7D0
7010
7FE0
3F80
ENDCHAR
STARTCHAR onethird
ENCODING 8531
SWIDTH 1269 0
DWIDTH 20 0
BBX 20 14 0 -2
BITMAP
3F3C00
6D4400
65D400
75D7E0
35D590
35D450
35D7D0
2EAEF0
E0AE30
FFAFB0
FFAC30
018DD0
01FFE0
03DF80
ENDCHAR
STARTCHAR twothirds
ENCODING 8532
SWIDTH 1269 0
DWIDTH 20 0
BBX 20 14 0 -2
BITMAP
3FBC00
6E4400
655400
7957E0
2ED590
71D450
57D7D0
C86EF0
C0AE30
FFAFB0
FFAC30
018DD0
01FFE0
03DF80
ENDCHAR
STARTCHAR oneeighth
ENCODING 8539
SWIDTH 1283 0
DWIDTH 21 0
BBX 20 14 0 -2
BITMAP
3F3C00
6D4400
65D400
75D7E0
35D5D0
35D630
35DAB0
2EADD0
60AA30
FFABB0
FFAA30
0189D0
01FFE0
03DF80
ENDCHAR
STARTCHAR threeeighths
ENCODING 8540
SWIDTH 1293 0
DWIDTH 21 0
BBX 20 14 0 -2
BITMAP
3F3C00
6CE400
E2D400
FED7E0
3755D0
7D5630
6156B0
6E55D0
E0AA30
FFAAF0
FDAA30
018DD0
01FFE0
01CF80
ENDCHAR
STARTCHAR fiveeighths
ENCODING 8541
SWIDTH 1303 0
DWIDTH 21 0
BBX 21 14 0 -2
BITMAP
3FBC00
6F6400
6FEC00
68D6E0
6E55D0
7D5630
6156F0
6E55D0
609A28
FFAAD8
7DAA28
018DD0
01FFE0
01CFC0
ENDCHAR
STARTCHAR seveneighths
ENCODING 8542
SWIDTH 1241 0
DWIDTH 20 0
BBX 20 14 0 -2
BITMAP
3FF800
5E4800
C15800
FD6DC0
F3ABA0
2CAC60
69ADE0
6BABA0
63B450
7F55B0
735420
031BE0
03FFC0
039F80
ENDCHAR
STARTCHAR arrowleft
ENCODING 8592
SWIDTH 1100 0
DWIDTH 18 0
BBX 13 12 2 -1
BITMAP
0080
0140
0640
0978
3708
25E8
F308
7870
3E60
1F40
0780
0200
ENDCHAR
STARTCHAR arrowup
ENCODING 8593
SWIDTH 1100 0
DWIDTH 18 0
BBX 12 12 3 -1
BITMAP
0300
0480
0A40
1340
34A0
2310
4210
FEE0
FAC0
1880
1F00
1E00
ENDCHAR
STARTCHAR arrowright
ENCODING 8594
SWIDTH 1100 0
DWIDTH 18 0
BBX 12 12 3 -1
BITMAP
0600
0900
18C0
3B20
4290
DE50
C3A0
F840
F880
1B00
1C00
1000
ENDCHAR
STARTCHAR arrowdown
ENCODING 8595
SWIDTH 1100 0
DWIDTH 18 0
BBX 12 12 3 -1
BITMAP
0780
0A80
1A80
2270
6210
E5A0
F540
7A40
3880
3D00
1E00
0C00
ENDCHAR
STARTCHAR arrowupleft
ENCODING 8598
SWIDTH 1100 0
DWIDTH 18 0
BBX 11 10 3 0
BITMAP
3F80
6460
EB20
6940
6B40
74A0
7260
7720
3FC0
2300
ENDCHAR
STARTCHAR arrowupright
ENCODING 8599
SWIDTH 1100 0
DWIDTH 18 0
BBX 11 10 3 0
BITMAP
0FE0
30A0
2760
72A0
7BA0
24A0
2A20
7340
FF80
3300
ENDCHAR
STARTCHAR arrowdownright
ENCODING 8600
SWIDTH 1100 0
DWIDTH 18 0
BBX 11 10 3 0
BITMAP
1CC0
2340
6420
F2A0
79A0
3260
21A0
7820
7FE0
0FC0
ENDCHAR
STARTCHAR arrowdownleft
ENCODING 8601
SWIDTH 1100 0
DWIDTH 18 0
BBX 11 10 3 0
BITMAP
1CC0
1320
30A0
2540
6A40
6920
6E20
60C0
7F80
FC00
ENDCHAR
STARTCHAR uni21AA
ENCODING 8618
SWIDTH 1100 0
DWIDTH 18 0
BBX 14 15 2 -3
BITMAP
1FF8
2FE8
6BF0
6FE0
EE80
EE60
EF10
E84C
E7F4
7848
7F10
1E60
0680
0700
0400
ENDCHAR
STARTCHAR uni21AB
ENCODING 8619
SWIDTH 1100 0
DWIDTH 18 0
BBX 13 15 2 -3
BITMAP
1FF8
37F8
3FD8
3FF8
0178
0678
08F8
3618
4FE8
F210
F8E0
3C80
1F80
0F00
0200
ENDCHAR
STARTCHAR uni21B0
ENCODING 8624
SWIDTH 1100 0
DWIDTH 18 0
BBX 13 14 2 -2
BITMAP
0100
0280
0480
18F0
2608
47E8
F2D8
F8D8
3E58
1FD8
06D8
00C8
00F0
00E0
ENDCHAR
STARTCHAR uni21B1
ENCODING 8625
SWIDTH 1100 0
DWIDTH 18 0
BBX 13 13 3 -2
BITMAP
0780
0C40
1E30
2088
5FC8
D6B0
D440
D480
D700
D400
C800
F000
E000
ENDCHAR
STARTCHAR uni21B2
ENCODING 8626
SWIDTH 1100 0
DWIDTH 18 0
BBX 13 13 2 -2
BITMAP
0078
00D8
0158
0258
0CD8
1218
2FE8
6610
F0E0
7CC0
3E80
0F00
0600
ENDCHAR
STARTCHAR uni21B3
ENCODING 8627
SWIDTH 1100 0
DWIDTH 18 0
BBX 13 13 2 -2
BITMAP
3C00
F400
F500
F6C0
F620
F0D8
EFA8
F048
7E10
3E60
0680
0700
0C00
ENDCHAR
STARTCHAR partialdiff
ENCODING 8706
SWIDTH 792 0
DWIDTH 13 0
BBX 12 14 0 -2
BITMAP
1FE0
1790
3050
3030
3F30
13B0
2C50
6B30
EB30
E830
E7D0
F030
7FC0
3F80
ENDCHAR
STARTCHAR Delta
ENCODING 8710
SWIDTH 830 0
DWIDTH 13 0
BBX 13 14 0 -2
BITMAP
0FE0
1020
37D0
3450
3550
2528
69A8
6BA8
6BA8
6828
6FE8
E008
FFF0
7FE0
ENDCHAR
STARTCHAR product
ENCODING 8719
SWIDTH 859 0
DWIDTH 14 0
BBX 12 14 1 -2
BITMAP
7FF0
4FD0
D030
D330
D330
D330
D330
D330
D330
D330
D330
C710
FBE0
F3C0
ENDCHAR
STARTCHAR summation
ENCODING 8721
SWIDTH 750 0
DWIDTH 12 0
BBX 12 15 0 -3
BITMAP
3FF0
27D0
6810
6920
64C0
7240
7D40
3940
1280
2500
28F0
6FD0
E010
FFE0
FFC0
ENDCHAR
STARTCHAR minus
ENCODING 8722
SWIDTH 834 0
DWIDTH 13 0
BBX 12 5 1 2
BITMAP
7FF0
DFD0
C010
FFE0
FF80
ENDCHAR
STARTCHAR uni2215
ENCODING 8725
SWIDTH 417 0
DWIDTH 7 0
BBX 7 14 0 -2
BITMAP
1E
12
36
2A
6A
6A
6C
6C
6C
D4
D4
C4
F8
E0
ENDCHAR
STARTCHAR uni2219
ENCODING 8729
SWIDTH 464 0
DWIDTH 7 0
BBX 7 7 0 2
BITMAP
1E
22
EA
EA
E2
FC
F8
ENDCHAR
STARTCHAR radical
ENCODING 8730
SWIDTH 841 0
DWIDTH 13 0
BBX 14 15 0 -2
BITMAP
007C
00D4
00D4
0098
1DA8
23A8
49A8
C5B0
F550
F250
3A50
39A0
1C20
1FC0
1F80
ENDCHAR
STARTCHAR infinity
ENCODING 8734
SWIDTH 978 0
DWIDTH 16 0
BBX 15 10 0 0
BITMAP
1FFE
2FFE
6AB6
EAB6
EBB6
EA96
EDEE
E292
FFFC
7FF8
ENDCHAR
STARTCHAR integral
ENCODING 8747
SWIDTH 574 0
DWIDTH 9 0
BBX 9 16 0 -3
BITMAP
0F80
1380
3480
3480
3500
3500
3500
3500
3500
3500
3500
4500
4D00
C200
FC00
F800
ENDCHAR
STARTCHAR approxequal
ENCODING 8776
SWIDTH 834 0
DWIDTH 13 0
BBX 12 10 1 0
BITMAP
3FF0
5FD0
C010
FFE0
FFE0
4010
DFD0
C010
FFE0
FF80
ENDCHAR
STARTCHAR notequal
ENCODING 8800
SWIDTH 834 0
DWIDTH 13 0
BBX 12 12 1 -1
BITMAP
07C0
7930
5FD0
C110
FAE0
FAC0
4230
DFD0
C210
F0E0
FBC0
3C00
ENDCHAR
STARTCHAR lessequal
ENCODING 8804
SWIDTH 814 0
DWIDTH 13 0
BBX 11 14 1 -2
BITMAP
01E0
0E20
33A0
4C20
D1C0
D700
C8E0
E7A0
FE20
4020
CFA0
C020
FFC0
FF80
ENDCHAR
STARTCHAR greaterequal
ENCODING 8805
SWIDTH 814 0
DWIDTH 13 0
BBX 11 14 1 -2
BITMAP
3C00
4380
CE60
E1A0
FC60
7F60
30E0
4F20
C3C0
C020
CFA0
C020
FFC0
FF80
ENDCHAR
STARTCHAR block
ENCODING 9608
SWIDTH 1000 0
DWIDTH 16 0
BBX 18 18 -1 -3
BITMAP
FFFFC0
FFFFC0
FFFFC0
FFFFC0
FFFFC0
FFFFC0
FFFFC0
FFFFC0
FFFFC0
FFFFC0
FFFFC0
FFFFC0
FFFFC0
FFFFC0
FFFFC0
FFFFC0
FFFFC0
FFFFC0
ENDCHAR
STARTCHAR blacksquare
ENCODING 9632
SWIDTH 1100 0
DWIDTH 18 0
BBX 10 10 4 0
BITMAP
3F80
4040
C640
C940
C940
CE40
C040
C040
FF80
FE00
ENDCHAR
STARTCHAR blackuppointingtriangle
ENCODING 9650
SWIDTH 1100 0
DWIDTH 18 0
BBX 12 10 3 0
BITMAP
0300
0480
0880
0A40
1340
27A0
2010
6010
FFE0
FF80
ENDCHAR
STARTCHAR whiteuppointingtriangle
ENCODING 9651
SWIDTH 1100 0
DWIDTH 18 0
BBX 9 8 5 2
BITMAP
0800
1400
1200
2100
4100
4080
8080
FF80
ENDCHAR
STARTCHAR blackrightpointingtriangle
ENCODING 9654
SWIDTH 1100 0
DWIDTH 18 0
BBX 10 12 4 -1
BITMAP
3000
4800
C600
C100
C8C0
CE40
C880
C300
CC00
D000
E000
8000
ENDCHAR
STARTCHAR whiterightpointingtriangle
ENCODING 9655
SWIDTH 1100 0
DWIDTH 18 0
BBX 8 9 6 1
BITMAP
E0
98
84
83
81
86
88
B0
C0
ENDCHAR
STARTCHAR blackdownpointingtriangle
ENCODING 9660
SWIDTH 1100 0
DWIDTH 18 0
BBX 12 10 3 0
BITMAP
3FF0
6010
E7A0
7340
7240
3880
3C80
1D00
0E00
0800
ENDCHAR
STARTCHAR whitedownpointingtriangle
ENCODING 9661
SWIDTH 1100 0
DWIDTH 18 0
BBX 9 8 5 2
BITMAP
FF80
8080
4080
4100
2100
1200
1200
0C00
ENDCHAR
STARTCHAR blackleftpointingtriangle
ENCODING 9664
SWIDTH 1100 0
DWIDTH 18 0
BBX 10 11 4 0
BITMAP
0080
0340
0440
1840
2340
4740
F140
F840
3E40
1F80
0700
ENDCHAR
STARTCHAR whiteleftpointingtriangle
ENCODING 9665
SWIDTH 1100 0
DWIDTH 18 0
BBX 8 9 6 1
BITMAP
07
19
61
81
81
61
11
0D
02
ENDCHAR
STARTCHAR blackdiamond
ENCODING 9670
SWIDTH 1100 0
DWIDTH 18 0
BBX 12 12 3 -1
BITMAP
0300
0480
0840
1320
2490
4490
E320
F040
7880
3D00
1E00
0800
ENDCHAR
STARTCHAR lozenge
ENCODING 9674
SWIDTH 831 0
DWIDTH 13 0
BBX 12 14 1 -2
BITMAP
0FC0
1040
27A0
68A0
4A50
5350
D750
CA50
EAA0
E8A0
7740
7040
7F80
3E00
ENDCHAR
STARTCHAR uni25D6
ENCODING 9686
SWIDTH 546 0
DWIDTH 9 0
BBX 9 18 0 -3
BITMAP
0080
0F80
1F80
3F80
7F80
7F80
FF80
FF80
FF80
FF80
FF80
FF80
7F80
7F80
3F80
3F80
0F80
0380
ENDCHAR
STARTCHAR uni25D7
ENCODING 9687
SWIDTH 546 0
DWIDTH 9 0
BBX 10 18 -1 -3
BITMAP
8000
F800
FE00
FF00
FF80
FF80
FF80
FFC0
FFC0
FFC0
FFC0
FF80
FF80
FF80
FF00
FE00
FC00
F000
ENDCHAR
STARTCHAR uni25DC
ENCODING 9692
SWIDTH 1280 0
DWIDTH 20 0
BBX 17 18 2 -3
BITMAP
000300
00FF80
07FF80
0FFF80
1FFF80
3FFF80
7FFF80
7FFF80
7FFF80
FFFF80
FFFF80
FFFF80
FFFF80
FFFF80
FFFF80
FFFF80
FFFF80
FFFF80
ENDCHAR
STARTCHAR uni25DD
ENCODING 9693
SWIDTH 1280 0
DWIDTH 20 0
BBX 17 18 2 -3
BITMAP
E00000
FF8000
FFE000
FFF800
FFFC00
FFFC00
FFFE00
FFFE00
FFFF00
FFFF00
FFFF00
FFFF80
FFFF80
FFFF80
FFFF80
FFFF80
FFFF80
FFFF80
ENDCHAR
STARTCHAR uni25DE
ENCODING 9694
SWIDTH 1280 0
DWIDTH 20 0
BBX 17 18 2 -3
BITMAP
FFFF00
FFFF80
FFFF80
FFFF80
FFFF80
FFFF80
FFFF80
FFFF80
FFFF00
FFFF00
FFFF00
FFFE00
FFFE00
FFFC00
FFF800
FFF000
FFC000
FE0000
ENDCHAR
STARTCHAR uni25DF
ENCODING 9695
SWIDTH 1280 0
DWIDTH 20 0
BBX 17 18 2 -3
BITMAP
FFFF00
FFFF80
FFFF80
FFFF80
FFFF80
FFFF80
FFFF80
FFFF80
FFFF80
FFFF80
7FFF80
7FFF80
3FFF80
1FFF80
0FFF80
07FF80
01FF80
003F80
ENDCHAR
STARTCHAR uni261A
ENCODING 9754
SWIDTH 1100 0
DWIDTH 18 0
BBX 14 10 2 0
BITMAP
3FFC
4014
C614
F814
1E14
1A14
1C14
0FE4
1FF8
0070
ENDCHAR
STARTCHAR uni261B
ENCODING 9755
SWIDTH 1100 0
DWIDTH 18 0
BBX 14 10 2 0
BITMAP
7BF8
4C04
C864
C818
C860
C8E0
C820
CFC0
FF00
E000
ENDCHAR
STARTCHAR uni261C
ENCODING 9756
SWIDTH 1100 0
DWIDTH 18 0
BBX 12 9 4 1
BITMAP
7E70
81D0
F850
2050
1850
1850
1050
0FD0
0020
ENDCHAR
STARTCHAR uni261D
ENCODING 9757
SWIDTH 1100 0
DWIDTH 18 0
BBX 8 12 6 0
BITMAP
40
A0
A0
B8
B6
96
82
82
82
FE
81
FF
ENDCHAR
STARTCHAR uni261E
ENCODING 9758
SWIDTH 1100 0
DWIDTH 18 0
BBX 12 9 4 1
BITMAP
EFE0
B010
A1F0
A080
A180
A300
A100
BE00
4000
ENDCHAR
STARTCHAR uni261F
ENCODING 9759
SWIDTH 1100 0
DWIDTH 18 0
BBX 8 12 6 0
BITMAP
FF
81
FF
82
81
81
81
B5
7D
05
05
06
ENDCHAR
STARTCHAR uni27A1
ENCODING 10145
SWIDTH 650 0
DWIDTH 10 0
BBX 11 24 -1 -6
BITMAP
6000
7000
7800
F800
FC00
FE00
FF00
FF00
FF80
FFC0
FFE0
FFE0
FFE0
FFE0
FFC0
FF80
FF80
FF00
FE00
FE00
BC00
7800
7000
7000
ENDCHAR
STARTCHAR uni2B1B
ENCODING 11035
SWIDTH 1280 0
DWIDTH 20 0
BBX 17 18 2 -3
BITMAP
FFFF00
FFFF80
FFFF80
FFFF80
FFFF80
FFFF80
FFFF80
FFFF80
FFFF80
FFFF80
FFFF80
FFFF80
FFFF80
FFFF80
FFFF80
FFFF80
FFFF80
FFFF80
ENDCHAR
STARTCHAR uni2B24
ENCODING 11044
SWIDTH 1280 0
DWIDTH 20 0
BBX 18 19 1 -4
BITMAP
01F000
0FFC00
1FFF00
3FFF00
7FFF80
7FFFC0
7FFFC0
FFFFC0
FFFFC0
FFFFC0
FFFFC0
FFFFC0
7FFFC0
7FFFC0
3FFF80
3FFF00
1FFE00
07FC00
004000
ENDCHAR
STARTCHAR A.salt
ENCODING 57600
SWIDTH 836 0
DWIDTH 13 0
BBX 12 14 1 -2
BITMAP
1FE0
2790
4850
D350
D750
D750
D050
CFD0
D050
D750
D750
C710
FBE0
F3C0
ENDCHAR
STARTCHAR Agrave.salt
ENCODING 57601
SWIDTH 836 0
DWIDTH 13 0
BBX 12 18 1 -2
BITMAP
1F00
20E0
67A0
7F20
70E0
2790
4850
D350
D750
D750
D050
CFD0
D050
D750
D750
C710
FBE0
F3C0
ENDCHAR
STARTCHAR Aacute.salt
ENCODING 57602
SWIDTH 836 0
DWIDTH 13 0
BBX 12 18 1 -2
BITMAP
0740
18A0
3720
77C0
7860
4790
4850
D350
D750
D750
D050
CFD0
D050
D750
D750
C710
FBE0
F3C0
ENDCHAR
STARTCHAR Acircumflex.salt
ENCODING 57603
SWIDTH 836 0
DWIDTH 13 0
BBX 12 18 1 -2
BITMAP
0F80
1360
24A0
67A0
7860
4790
4850
D350
D750
D750
D050
CFD0
D050
D750
D750
C710
FBE0
F3C0
ENDCHAR
STARTCHAR Atilde.salt
ENCODING 57604
SWIDTH 836 0
DWIDTH 13 0
BBX 12 17 1 -2
BITMAP
1FE0
27A0
6F40
70E0
4790
4850
D350
D750
D750
D050
CFD0
D050
D750
D750
C710
FBE0
F3C0
ENDCHAR
STARTCHAR Adieresis.salt
ENCODING 57605
SWIDTH 836 0
DWIDTH 13 0
BBX 12 17 1 -2
BITMAP
3FE0
6AA0
6720
78E0
4790
4850
D350
D750
D750
D050
CFD0
D050
D750
D750
C710
FBE0
F3C0
ENDCHAR
STARTCHAR Aring.salt
ENCODING 57606
SWIDTH 836 0
DWIDTH 13 0
BBX 12 18 1 -2
BITMAP
0F80
1740
2AA0
6BA0
68A0
4790
4850
D350
D750
D750
D050
CFD0
D050
D750
D750
C710
FBE0
F3C0
ENDCHAR
STARTCHAR Amacron.salt
ENCODING 57607
SWIDTH 836 0
DWIDTH 13 0
BBX 12 17 1 -2
BITMAP
1FE0
27A0
6720
78E0
4790
4850
D350
D750
D750
D050
CFD0
D050
D750
D750
C710
FBE0
F3C0
ENDCHAR
STARTCHAR Abreve.salt
ENCODING 57608
SWIDTH 836 0
DWIDTH 13 0
BBX 12 18 1 -2
BITMAP
1DE0
2AA0
67A0
7CC0
7360
2790
4850
D350
D750
D750
D050
CFD0
D050
D750
D750
C710
FBE0
F3C0
ENDCHAR
STARTCHAR Aogonek.salt
ENCODING 57609
SWIDTH 836 0
DWIDTH 13 0
BBX 12 17 1 -5
BITMAP
1FE0
2790
4850
D350
D750
D750
D050
CFD0
D050
D750
D750
C750
FB60
F350
0710
07E0
03C0
ENDCHAR
STARTCHAR E.salt
ENCODING 57610
SWIDTH 743 0
DWIDTH 12 0
BBX 11 14 1 -2
BITMAP
1FE0
27A0
5820
D3C0
D780
D040
DF40
D080
D7C0
D020
CFA0
E020
FFC0
7F80
ENDCHAR
STARTCHAR Egrave.salt
ENCODING 57611
SWIDTH 743 0
DWIDTH 12 0
BBX 11 18 1 -2
BITMAP
1F00
28C0
67C0
7E40
71A0
27A0
5820
D3C0
D780
D040
DF40
D080
D7C0
D020
CFA0
E020
FFC0
7F80
ENDCHAR
STARTCHAR Eacute.salt
ENCODING 57612
SWIDTH 743 0
DWIDTH 12 0
BBX 11 18 1 -2
BITMAP
07C0
1840
2F40
6380
7C60
47A0
5820
D3C0
D780
D040
DF40
D080
D7C0
D020
CFA0
E020
FFC0
7F80
ENDCHAR
STARTCHAR Ecircumflex.salt
ENCODING 57613
SWIDTH 743 0
DWIDTH 12 0
BBX 11 18 1 -2
BITMAP
0F80
3740
2840
6740
78A0
47A0
5820
D3C0
D780
D040
DF40
D080
D7C0
D020
CFA0
E020
FFC0
7F80
ENDCHAR
STARTCHAR Edieresis.salt
ENCODING 57614
SWIDTH 743 0
DWIDTH 12 0
BBX 11 17 1 -2
BITMAP
3FE0
6AA0
6220
7DE0
47A0
5820
D3C0
D780
D040
DF40
D080
D7C0
D020
CFA0
E020
FFC0
7F80
ENDCHAR
STARTCHAR Emacron.salt
ENCODING 57615
SWIDTH 743 0
DWIDTH 12 0
BBX 11 17 1 -2
BITMAP
3FC0
2740
6040
7FA0
47A0
5820
D3C0
D780
D040
DF40
D080
D7C0
D020
CFA0
E020
FFC0
7F80
ENDCHAR
STARTCHAR Ebreve.salt
ENCODING 57616
SWIDTH 743 0
DWIDTH 12 0
BBX 11 18 1 -2
BITMAP
3DE0
2AA0
67C0
7040
7FA0
27A0
5820
D3C0
D780
D040
DF40
D080
D7C0
D020
CFA0
E020
FFC0
7F80
ENDCHAR
STARTCHAR Edotaccent.salt
ENCODING 57617
SWIDTH 743 0
DWIDTH 12 0
BBX 11 18 1 -2
BITMAP
0700
0880
1A80
3880
3760
27A0
5820
D3C0
D780
D040
DF40
D080
D7C0
D020
CFA0
E020
FFC0
7F80
ENDCHAR
STARTCHAR Eogonek.salt
ENCODING 57618
SWIDTH 743 0
DWIDTH 12 0
BBX 11 17 1 -5
BITMAP
1FE0
27A0
5820
D3C0
D780
D040
DF40
D080
D7C0
D020
CFA0
E120
FF40
7DA0
0E20
0FC0
0780
ENDCHAR
STARTCHAR Ecaron.salt
ENCODING 57619
SWIDTH 743 0
DWIDTH 12 0
BBX 11 18 1 -2
BITMAP
3FC0
2040
6740
7880
7760
27A0
5820
D3C0
D780
D040
DF40
D080
D7C0
D020
CFA0
E020
FFC0
7F80
ENDCHAR
STARTCHAR I.salt
ENCODING 57620
SWIDTH 471 0
DWIDTH 8 0
BBX 6 14 1 -2
BITMAP
3C
44
D4
D4
D4
D4
D4
D4
D4
D4
D4
C4
F8
F0
ENDCHAR
STARTCHAR Igrave.salt
ENCODING 57621
SWIDTH 471 0
DWIDTH 8 0
BBX 8 18 0 -2
BITMAP
3C
43
DD
F9
E6
22
6A
6A
6A
6A
6A
6A
6A
6A
6A
62
7C
78
ENDCHAR
STARTCHAR Iacute.salt
ENCODING 57622
SWIDTH 471 0
DWIDTH 8 0
BBX 8 18 0 -2
BITMAP
1F
21
6D
EE
F2
E2
6A
6A
6A
6A
6A
6A
6A
6A
6A
62
7C
78
ENDCHAR
STARTCHAR Icircumflex.salt
ENCODING 57623
SWIDTH 471 0
DWIDTH 8 0
BBX 8 18 0 -2
BITMAP
3E
4D
D1
DF
E2
22
6A
6A
6A
6A
6A
6A
6A
6A
6A
62
7C
78
ENDCHAR
STARTCHAR Idieresis.salt
ENCODING 57624
SWIDTH 471 0
DWIDTH 8 0
BBX 9 17 0 -2
BITMAP
7F80
D680
C480
FB00
2200
6A00
6A00
6A00
6A00
6A00
6A00
6A00
6A00
6A00
6200
7C00
7800
ENDCHAR
STARTCHAR Itilde.salt
ENCODING 57625
SWIDTH 471 0
DWIDTH 8 0
BBX 8 17 0 -2
BITMAP
7F
DD
D1
EE
22
6A
6A
6A
6A
6A
6A
6A
6A
6A
62
7C
78
ENDCHAR
STARTCHAR Imacron.salt
ENCODING 57626
SWIDTH 471 0
DWIDTH 8 0
BBX 8 17 0 -2
BITMAP
3F
4D
C1
FE
E2
6A
6A
6A
6A
6A
6A
6A
6A
6A
62
7C
78
ENDCHAR
STARTCHAR Ibreve.salt
ENCODING 57627
SWIDTH 471 0
DWIDTH 8 0
BBX 8 18 0 -2
BITMAP
7F
DB
DD
E2
FE
62
6A
6A
6A
6A
6A
6A
6A
6A
6A
62
7C
78
ENDCHAR
STARTCHAR Iogonek.salt
ENCODING 57628
SWIDTH 471 0
DWIDTH 8 0
BBX 6 17 1 -5
BITMAP
3C
44
D4
D4
D4
D4
D4
D4
D4
D4
D4
D4
D8
D4
C4
F8
F0
ENDCHAR
STARTCHAR Idotaccent.salt
ENCODING 57629
SWIDTH 471 0
DWIDTH 8 0
BBX 6 18 1 -2
BITMAP
3C
44
D4
C4
FC
C4
D4
D4
D4
D4
D4
D4
D4
D4
D4
C4
F8
F0
ENDCHAR
STARTCHAR L.salt
ENCODING 57630
SWIDTH 715 0
DWIDTH 11 0
BBX 10 14 1 -2
BITMAP
7C00
4400
D400
D400
D400
D400
D400
D400
D780
D040
CFC0
C040
FFC0
FF00
ENDCHAR
STARTCHAR Lacute.salt
ENCODING 57631
SWIDTH 715 0
DWIDTH 11 0
BBX 10 18 1 -2
BITMAP
0F80
7080
5E80
C700
FE00
C400
D400
D400
D400
D400
D400
D400
D780
D040
CFC0
C040
FFC0
FF00
ENDCHAR
STARTCHAR Lcommaaccent.salt
ENCODING 57632
SWIDTH 715 0
DWIDTH 11 0
BBX 10 20 1 -8
BITMAP
7C00
4400
D400
D400
D400
D400
D400
D400
D780
D040
CFC0
C040
FFC0
F080
3700
3100
3E80
3D00
3E00
3800
ENDCHAR
STARTCHAR Lcaron.salt
ENCODING 57633
SWIDTH 715 0
DWIDTH 11 0
BBX 11 14 1 -2
BITMAP
7DE0
4220
D2A0
D220
D240
D380
D300
D400
D7C0
D020
CFA0
C020
FFC0
FF00
ENDCHAR
STARTCHAR Ldot.salt
ENCODING 57634
SWIDTH 715 0
DWIDTH 11 0
BBX 11 14 1 -2
BITMAP
7C00
4400
D400
D5E0
D220
D2A0
D220
D3C0
D3C0
D020
CFA0
C020
FFC0
FF00
ENDCHAR
STARTCHAR Lslash.salt
ENCODING 57635
SWIDTH 725 0
DWIDTH 12 0
BBX 12 14 0 -2
BITMAP
1E00
2200
6A00
6B00
6880
4680
C980
EA00
EBE0
6810
67D0
6010
7FE0
7FC0
ENDCHAR
STARTCHAR M.salt
ENCODING 57636
SWIDTH 1170 0
DWIDTH 19 0
BBX 17 14 1 -2
BITMAP
1FFF00
271C80
48E280
D25980
D75980
D75980
D75980
D75980
D75980
D75980
D75980
C71880
FFFF00
F79E00
ENDCHAR
STARTCHAR N.salt
ENCODING 57637
SWIDTH 846 0
DWIDTH 14 0
BBX 12 14 1 -2
BITMAP
1FE0
2790
4850
D350
D750
D750
D750
D750
D750
D750
D750
C710
FBE0
F3C0
ENDCHAR
STARTCHAR Ntilde.salt
ENCODING 57638
SWIDTH 846 0
DWIDTH 14 0
BBX 12 17 1 -2
BITMAP
1FE0
27A0
6740
78E0
4790
4850
D350
D750
D750
D750
D750
D750
D750
D750
C710
FBE0
F3C0
ENDCHAR
STARTCHAR Nacute.salt
ENCODING 57639
SWIDTH 846 0
DWIDTH 14 0
BBX 12 18 1 -2
BITMAP
0740
18A0
3720
77C0
7860
4790
4850
D350
D750
D750
D750
D750
D750
D750
D750
C710
FBE0
F3C0
ENDCHAR
STARTCHAR Ncommaaccent.salt
ENCODING 57640
SWIDTH 846 0
DWIDTH 14 0
BBX 12 20 1 -8
BITMAP
1FE0
2790
4850
D350
D750
D750
D750
D750
D750
D750
D750
C710
FFE0
F840
1B80
1980
1F80
1B80
1E00
1C00
ENDCHAR
STARTCHAR Ncaron.salt
ENCODING 57641
SWIDTH 846 0
DWIDTH 14 0
BBX 12 18 1 -2
BITMAP
1FE0
20A0
6720
7DC0
7260
2790
4850
D350
D750
D750
D750
D750
D750
D750
D750
C710
FBE0
F3C0
ENDCHAR
STARTCHAR W.salt
ENCODING 57642
SWIDTH 1170 0
DWIDTH 19 0
BBX 17 14 1 -2
BITMAP
7DF780
471880
D75980
D75980
D75980
D75980
D75980
D75980
D75980
D04180
CFBE80
E04180
FFFE00
7EFC00
ENDCHAR
STARTCHAR Wcircumflex.salt
ENCODING 57643
SWIDTH 1170 0
DWIDTH 19 0
BBX 17 18 1 -2
BITMAP
01F000
06E800
050800
0CE800
771780
471880
D75980
D75980
D75980
D75980
D75980
D75980
D75980
D04180
CFBE80
E04180
FFFE00
7EFC00
ENDCHAR
STARTCHAR Wgrave.salt
ENCODING 57644
SWIDTH 1170 0
DWIDTH 19 0
BBX 17 18 1 -2
BITMAP
03E000
051800
0CF800
0FC800
773780
471880
D75980
D75980
D75980
D75980
D75980
D75980
D75980
D04180
CFBE80
E04180
FFFE00
7EFC00
ENDCHAR
STARTCHAR Wacute.salt
ENCODING 57645
SWIDTH 1170 0
DWIDTH 19 0
BBX 17 18 1 -2
BITMAP
00F800
030800
05E800
0C7000
779780
471880
D75980
D75980
D75980
D75980
D75980
D75980
D75980
D04180
CFBE80
E04180
FFFE00
7EFC00
ENDCHAR
STARTCHAR Wdieresis.salt
ENCODING 57646
SWIDTH 1170 0
DWIDTH 19 0
BBX 17 17 1 -2
BITMAP
07FC00
0D5400
1C4C00
67B780
471880
D75980
D75980
D75980
D75980
D75980
D75980
D75980
D04180
CFBE80
E04180
FFFE00
7EFC00
ENDCHAR
STARTCHAR X.salt
ENCODING 57647
SWIDTH 837 0
DWIDTH 13 0
BBX 12 14 1 -2
BITMAP
3DF0
4510
EA50
EAA0
EAA0
4490
4B50
D050
D750
D750
D750
C710
FBE0
F3C0
ENDCHAR
STARTCHAR Y.salt
ENCODING 57648
SWIDTH 806 0
DWIDTH 13 0
BBX 13 14 0 -2
BITMAP
3EF8
6288
EBA8
EBA8
EBA8
E928
EC68
E390
7920
7D40
1D40
1C40
1F80
1F00
ENDCHAR
STARTCHAR Yacute.salt
ENCODING 57649
SWIDTH 806 0
DWIDTH 13 0
BBX 13 18 0 -2
BITMAP
03E0
0C50
1790
30E0
2F98
6288
EBA8
EBA8
EBA8
E928
EC68
E390
7920
7D40
1D40
1C40
1F80
1F00
ENDCHAR
STARTCHAR Ycircumflex.salt
ENCODING 57650
SWIDTH 806 0
DWIDTH 13 0
BBX 13 18 0 -2
BITMAP
07C0
0BA0
1020
33A0
2FD8
6388
EBA8
EBA8
EBA8
E928
EC68
E390
7920
7D40
1D40
1C40
1F80
1F00
ENDCHAR
STARTCHAR Ydieresis.salt
ENCODING 57651
SWIDTH 806 0
DWIDTH 13 0
BBX 13 17 0 -2
BITMAP
1FF0
3550
3110
2FE8
6388
EBA8
EBA8
EBA8
E928
EC68
E390
7920
7D40
1D40
1C40
1F80
1F00
ENDCHAR
STARTCHAR Ygrave.salt
ENCODING 57652
SWIDTH 806 0
DWIDTH 13 0
BBX 13 18 0 -2
BITMAP
0F80
1460
33E0
3E20
23D8
6388
EBA8
EBA8
EBA8
E928
EC68
E390
7920
7D40
1D40
1C40
1F80
1F00
ENDCHAR
STARTCHAR AE.salt
ENCODING 57653
SWIDTH 1113 0
DWIDTH 18 0
BBX 16 14 1 -2
BITMAP
1FFF
27BF
4841
D34F
D74E
D741
D07D
CFC2
D04E
D741
D73F
C701
FBFF
F3FC
ENDCHAR
STARTCHAR IJ.salt
ENCODING 57654
SWIDTH 1133 0
DWIDTH 18 0
BBX 17 14 1 -2
BITMAP
3C0F80
441880
D43A80
D43A80
D43A80
D5FA80
D23A80
D2BA80
D29A80
D28280
D27C80
C30100
FFFE00
F3F800
ENDCHAR
STARTCHAR IJ.stack
ENCODING 57655
SWIDTH 1363 0
DWIDTH 22 0
BBX 21 14 0 -2
BITMAP
3FE078
6DA088
E22198
E26198
FA8198
1A8F98
1A9198
1AB598
1A7598
221428
6F93C8
E01810
FFFFE0
7F9FC0
ENDCHAR
STARTCHAR quoteleft.salt
ENCODING 57656
SWIDTH 407 0
DWIDTH 7 0
BBX 6 7 0 5
BITMAP
1C
3C
74
7C
E4
F8
70
ENDCHAR
STARTCHAR quoteright.salt
ENCODING 57657
SWIDTH 407 0
DWIDTH 7 0
BBX 6 7 0 5
BITMAP
3C
6C
64
FC
64
78
60
ENDCHAR
STARTCHAR ampersand.salt
ENCODING 57658
SWIDTH 732 0
DWIDTH 12 0
BBX 11 16 0 -3
BITMAP
07C0
0D20
11E0
3620
75E0
75C0
7440
6B40
4840
CBC0
C820
E7E0
E120
7C60
3F80
0F00
ENDCHAR
STARTCHAR caron.2
ENCODING 57659
SWIDTH 600 0
DWIDTH 10 0
BBX 6 7 2 5
BITMAP
3C
44
D4
C4
C8
F0
E0
ENDCHAR
STARTCHAR indexup
ENCODING 57660
SWIDTH 1100 0
DWIDTH 18 0
BBX 10 14 4 -2
BITMAP
3800
6800
6800
EE00
CD80
C580
C080
E080
E040
FF80
4040
C040
FF80
FF00
ENDCHAR
STARTCHAR indexdown
ENCODING 57661
SWIDTH 1100 0
DWIDTH 18 0
BBX 10 14 4 -2
BITMAP
7FC0
C040
DF40
E080
6080
4080
C080
CD80
ED00
EE00
E800
E800
F000
4000
ENDCHAR
STARTCHAR indexupleft
ENCODING 57662
SWIDTH 1100 0
DWIDTH 18 0
BBX 12 16 3 -3
BITMAP
1000
2800
6400
F200
7900
3480
6860
5050
E090
E120
F240
7C80
3900
1E00
1C00
0800
ENDCHAR
STARTCHAR indexupright
ENCODING 57663
SWIDTH 1100 0
DWIDTH 18 0
BBX 12 16 3 -3
BITMAP
0020
0050
00A0
0340
04A0
0860
1810
6830
4410
E220
F140
7880
3C80
1F00
0E00
0400
ENDCHAR
STARTCHAR indexdownleft
ENCODING 57664
SWIDTH 1100 0
DWIDTH 18 0
BBX 16 12 1 -1
BITMAP
00E0
0110
01C8
0224
0412
0809
120A
150C
2658
7FA0
EFC0
4300
ENDCHAR
STARTCHAR indexdownright
ENCODING 57665
SWIDTH 1100 0
DWIDTH 18 0
BBX 15 12 1 -1
BITMAP
0180
0240
04C0
0920
1210
2408
6824
F852
5CAA
1E7E
0F9C
0608
ENDCHAR
STARTCHAR indexdownleft.outline
ENCODING 57666
SWIDTH 1100 0
DWIDTH 18 0
BBX 13 10 3 1
BITMAP
0100
0280
0340
04A0
0850
1028
2818
5420
A940
4780
ENDCHAR
STARTCHAR indexdownright.outline
ENCODING 57667
SWIDTH 1100 0
DWIDTH 18 0
BBX 13 10 3 1
BITMAP
0600
0D00
1B00
3480
6840
D020
A050
5128
0AD8
0708
ENDCHAR
STARTCHAR indexupleft.outline
ENCODING 57668
SWIDTH 1100 0
DWIDTH 18 0
BBX 10 13 5 -1
BITMAP
E000
5000
2800
5400
4200
A180
C140
82C0
4580
2B00
1600
2C00
1800
ENDCHAR
STARTCHAR indexupright.outline
ENCODING 57669
SWIDTH 1100 0
DWIDTH 18 0
BBX 10 13 5 -1
BITMAP
01C0
0280
0500
0A80
1180
6080
A0C0
9040
4880
2500
1200
0A00
0400
ENDCHAR
STARTCHAR uni261A.salt
ENCODING 57670
SWIDTH 1100 0
DWIDTH 18 0
BBX 14 10 2 0
BITMAP
3FDC
4034
C214
FD14
7C94
0F14
0F24
0678
07F0
0600
ENDCHAR
STARTCHAR uni261B.salt
ENCODING 57671
SWIDTH 1100 0
DWIDTH 18 0
BBX 14 10 2 0
BITMAP
3BF8
4C04
C8C4
C938
C920
C940
CC80
FE80
EF00
0600
ENDCHAR
STARTCHAR indexdown.salt
ENCODING 57672
SWIDTH 1100 0
DWIDTH 18 0
BBX 10 14 4 -2
BITMAP
1FC0
2040
6FC0
7040
2040
4C40
D340
F940
BF40
1F40
0740
0740
0780
0600
ENDCHAR
STARTCHAR indexdownleft.salt
ENCODING 57673
SWIDTH 1100 0
DWIDTH 18 0
BBX 14 12 2 -1
BITMAP
00C0
0120
0390
0648
0824
1014
1318
2490
4E50
DFD0
E7E0
8080
ENDCHAR
STARTCHAR indexdownright.salt
ENCODING 57674
SWIDTH 1100 0
DWIDTH 18 0
BBX 14 12 2 -1
BITMAP
0200
0D00
1100
22C0
4420
4810
F9C8
FA28
1A64
33F4
3E78
3020
ENDCHAR
STARTCHAR indexup.salt
ENCODING 57675
SWIDTH 1100 0
DWIDTH 18 0
BBX 10 14 4 -2
BITMAP
3800
6800
C800
C800
CE00
C980
C640
C040
E180
FF00
C080
C080
FF00
FE00
ENDCHAR
STARTCHAR indexupleft.salt
ENCODING 57676
SWIDTH 1100 0
DWIDTH 18 0
BBX 12 14 3 -2
BITMAP
3000
6C00
E200
F100
7C80
2480
2460
7890
4120
4E40
FC80
8D00
1E00
0C00
ENDCHAR
STARTCHAR indexupright.salt
ENCODING 57677
SWIDTH 1100 0
DWIDTH 18 0
BBX 12 14 3 -2
BITMAP
0070
0090
0120
0640
04C0
18A0
28A0
4860
E410
F3D0
78E0
3D80
1E00
0C00
ENDCHAR
STARTCHAR uni261C.salt
ENCODING 57678
SWIDTH 1100 0
DWIDTH 18 0
BBX 12 9 4 1
BITMAP
7F70
8090
E850
1450
1250
0A90
0550
0520
0200
ENDCHAR
STARTCHAR uni261D.salt
ENCODING 57679
SWIDTH 1100 0
DWIDTH 18 0
BBX 8 12 6 0
BITMAP
40
A0
A0
A0
B8
A6
9D
83
84
FC
82
FE
ENDCHAR
STARTCHAR uni261E.salt
ENCODING 57680
SWIDTH 1100 0
DWIDTH 18 0
BBX 12 9 4 1
BITMAP
EFC0
B030
A2F0
A500
A500
A500
B200
4A00
0400
ENDCHAR
STARTCHAR uni261F.salt
ENCODING 57681
SWIDTH 1100 0
DWIDTH 18 0
BBX 8 12 6 0
BITMAP
7F
41
7F
22
41
99
E5
3D
05
05
05
07
ENDCHAR
STARTCHAR indexdownleft.salt_outline
ENCODING 57682
SWIDTH 1100 0
DWIDTH 18 0
BBX 12 10 4 1
BITMAP
0300
0580
02C0
0D60
10B0
2050
4C60
9240
AF40
C1C0
ENDCHAR
STARTCHAR indexdownright.salt_outline
ENCODING 57683
SWIDTH 1100 0
DWIDTH 18 0
BBX 12 10 4 1
BITMAP
0800
1400
2400
4B00
9080
A040
6620
29A0
2E50
3030
ENDCHAR
STARTCHAR indexupleft.salt_outline
ENCODING 57684
SWIDTH 1100 0
DWIDTH 18 0
BBX 10 12 5 0
BITMAP
C000
B000
4800
2400
3200
5200
5180
6240
8480
F900
1200
0C00
ENDCHAR
STARTCHAR indexupright.salt_outline
ENCODING 57685
SWIDTH 1100 0
DWIDTH 18 0
BBX 10 12 5 0
BITMAP
0180
0240
0480
0900
1300
2480
E280
A180
5040
2FC0
1400
0C00
ENDCHAR
STARTCHAR block.v
ENCODING 57687
SWIDTH 1000 0
DWIDTH 16 0
BBX 18 18 -1 -3
BITMAP
FFFFC0
FFFFC0
FFFFC0
FFFFC0
FFFFC0
FFFFC0
FFFFC0
FFFFC0
FFFFC0
FFFFC0
FFFFC0
FFFFC0
FFFFC0
FFFFC0
FFFFC0
FFFFC0
FFFFC0
FFFFC0
ENDCHAR
STARTCHAR uni25D6.v
ENCODING 57688
SWIDTH 1335 0
DWIDTH 21 0
BBX 17 10 2 1
BITMAP
008000
0FF800
1FFC00
3FFE00
7FFF00
7FFF80
FFFF80
FFFF80
FFFF80
FFFF80
ENDCHAR
STARTCHAR uni25D7.v
ENCODING 57689
SWIDTH 1335 0
DWIDTH 21 0
BBX 17 10 2 1
BITMAP
FFFF80
FFFF80
FFFF80
FFFF80
7FFF80
7FFF00
3FFF00
3FFE00
0FFC00
03F000
ENDCHAR
STARTCHAR uni27A1.w
ENCODING 57690
SWIDTH 650 0
DWIDTH 10 0
BBX 11 24 0 -6
BITMAP
00C0
01C0
01C0
03E0
07E0
0FE0
0FE0
1FE0
3FE0
7FE0
7FE0
FFE0
FFE0
FFE0
7FE0
3FE0
1FE0
1FE0
0FE0
07E0
03E0
03C0
01C0
00C0
ENDCHAR
STARTCHAR uni27A1.n
ENCODING 57691
SWIDTH 1000 0
DWIDTH 16 0
BBX 24 11 -4 0
BITMAP
7FFFFE
FFFFFF
FFFFFF
3FFFFC
1FFFF8
0FFFF0
03FFC0
01FF80
00FF00
007E00
001800
ENDCHAR
STARTCHAR uni27A1.s
ENCODING 57692
SWIDTH 1000 0
DWIDTH 16 0
BBX 24 11 -4 0
BITMAP
003C00
007E00
01FF80
03FFC0
0FFFE0
1FFFF8
3FFFFC
7FFFFE
FFFFFF
EFFFF7
1FFFF8
ENDCHAR
STARTCHAR uni2B24.salt
ENCODING 57693
SWIDTH 1280 0
DWIDTH 20 0
BBX 17 18 2 -3
BITMAP
07F000
3FFC00
7FFE00
FFFF80
FFFF80
FFFF80
FFFF80
FFFF80
FFFF80
FFFF80
FFFF80
FFFF80
FFFF80
FFFF80
FFFF80
7FFF00
3FFE00
0FF800
ENDCHAR
STARTCHAR uni25DD.curve
ENCODING 57694
SWIDTH 1280 0
DWIDTH 20 0
BBX 17 18 2 -3
BITMAP
FFC000
FFFC00
FFFE00
FFFF00
FFFF00
FFFF80
FFFF80
FFFF80
FFFF80
FFFF80
FFFF80
FFFF80
FFFF80
FFFF80
FFFF80
FFFF80
FFFF80
FFFF80
ENDCHAR
STARTCHAR uni2B1B.trapezoid_e
ENCODING 57695
SWIDTH 1280 0
DWIDTH 20 0
BBX 19 18 2 -3
BITMAP
FFFFE0
FFFFC0
FFFFC0
FFFFC0
FFFFC0
FFFFC0
FFFF80
FFFF80
FFFF80
FFFF80
FFFF80
FFFF00
FFFF00
FFFF00
FFFF00
FFFF00
FFFE00
FFFF00
ENDCHAR
STARTCHAR uni2B1B.trapezoid_w
ENCODING 57696
SWIDTH 1280 0
DWIDTH 20 0
BBX 19 18 0 -3
BITMAP
7FFFC0
FFFFE0
FFFFE0
7FFFE0
7FFFE0
7FFFE0
7FFFE0
7FFFE0
3FFFE0
3FFFE0
3FFFE0
3FFFE0
3FFFE0
1FFFE0
1FFFE0
1FFFE0
1FFFE0
1FFFE0
ENDCHAR
STARTCHAR arrowleft.chevron
ENCODING 57697
SWIDTH 1330 0
DWIDTH 21 0
BBX 21 23 0 -6
BITMAP
00C000
00C000
01FFF8
03FFF8
07FFF8
0FFFF0
0FFFF0
1FFFF0
3FFFE0
7FFFE0
FFFFC0
FFFFC0
7FFFE0
3FFFE0
3FFFE0
1FFFF0
0FFFF0
07FFF8
03FFF8
01FFF8
01C000
00C000
004000
ENDCHAR
STARTCHAR arrowup.chevron
ENCODING 57698
SWIDTH 1280 0
DWIDTH 20 0
BBX 23 23 -1 -6
BITMAP
003000
007C00
00FE00
01FF00
07FF80
0FFFE0
1FFFF0
3FFFF8
7FFFFC
FFFFFE
1FFFF0
1FFFF0
1FFFF0
1FFFF0
1FFFF0
1FFFF0
1FFFF0
1FFFF0
1FFFF0
1FFFF0
1F83F0
1C00F0
100010
ENDCHAR
STARTCHAR arrowright.chevron
ENCODING 57699
SWIDTH 1330 0
DWIDTH 21 0
BBX 21 23 0 -6
BITMAP
001800
001C00
7FFE00
FFFE00
7FFF00
7FFF80
7FFFC0
3FFFE0
3FFFE0
1FFFF0
1FFFF8
1FFFF8
1FFFF0
3FFFF0
3FFFE0
3FFFC0
7FFF80
7FFF00
FFFF00
FFEE00
001C00
001800
001000
ENDCHAR
STARTCHAR arrowdown.chevron
ENCODING 57700
SWIDTH 1280 0
DWIDTH 20 0
BBX 23 23 -1 -6
BITMAP
180030
1E01F0
1FC7F0
1FFFF0
1FFFF0
1FFFF0
1FFFF0
1FFFF0
1FFFF0
1FFFF0
1FFFF0
1FFFF0
1FFFF0
FFFFFE
7FFFFC
3FFFF0
0FFFE0
07FFC0
03FF80
01FF00
00FC00
003800
001000
ENDCHAR
STARTCHAR uni25D6.deco
ENCODING 57701
SWIDTH 560 0
DWIDTH 9 0
BBX 9 20 1 -4
BITMAP
0700
1F80
1F80
3F80
7F80
FF80
FF80
FF80
FF80
FF80
FF80
FF80
FF80
FF80
FF80
7F80
7F80
1F80
1F80
0600
ENDCHAR
STARTCHAR uni25D7.deco
ENCODING 57702
SWIDTH 560 0
DWIDTH 9 0
BBX 9 20 -1 -4
BITMAP
7000
F800
FC00
FE00
FF00
FF80
FF80
FF80
FF80
FF80
FF80
FF80
FF80
FF80
FF80
FF00
FE00
FC00
BC00
7000
ENDCHAR
STARTCHAR uni25D6.v_deco
ENCODING 57703
SWIDTH 1280 0
DWIDTH 20 0
BBX 20 9 0 1
BITMAP
00F800
0FFF00
0FFF80
1FFFC0
7FFFE0
7FFFE0
FFFFF0
FFFFF0
3FFFE0
ENDCHAR
STARTCHAR uni25D7.v_deco
ENCODING 57704
SWIDTH 1280 0
DWIDTH 20 0
BBX 20 9 0 2
BITMAP
3FFFE0
FFFFD0
FFFFF0
BFFFF0
7FFFE0
3FFFE0
1FFF80
0FFF00
03FE00
ENDCHAR
STARTCHAR uni25D6.bevel
ENCODING 57705
SWIDTH 350 0
DWIDTH 6 0
BBX 5 18 1 -3
BITMAP
08
18
78
78
F8
F8
F8
F8
F8
F8
F8
F8
F8
F8
B8
78
28
18
ENDCHAR
STARTCHAR uni25D7.bevel
ENCODING 57706
SWIDTH 350 0
DWIDTH 6 0
BBX 5 18 -1 -3
BITMAP
C0
E0
F0
F8
F8
F8
F8
F8
F8
F8
F8
F8
F8
F8
F8
F0
D0
E0
ENDCHAR
STARTCHAR uni25D6.v_bevel
ENCODING 57707
SWIDTH 1280 0
DWIDTH 20 0
BBX 17 5 2 3
BITMAP
1FFC00
7FFE00
7FFF00
FFFF80
FFFF80
ENDCHAR
STARTCHAR uni25D7.v_bevel
ENCODING 57708
SWIDTH 1280 0
DWIDTH 20 0
BBX 17 5 2 3
BITMAP
FFFF80
FFFE80
7FFF00
3FFE00
1FFC00
ENDCHAR
STARTCHAR uni25D6.spike
ENCODING 57709
SWIDTH 350 0
DWIDTH 6 0
BBX 5 18 1 -3
BITMAP
F8
78
78
38
38
38
38
78
F8
F8
F8
78
38
38
38
78
78
F8
ENDCHAR
STARTCHAR uni25D7.spike
ENCODING 57710
SWIDTH 350 0
DWIDTH 6 0
BBX 6 18 -1 -3
BITMAP
F8
F8
F0
F0
F0
E0
F0
F8
FC
FC
F8
F0
F0
E0
F0
F0
F8
F8
ENDCHAR
STARTCHAR uni25D6.v_spike
ENCODING 57711
SWIDTH 1280 0
DWIDTH 20 0
BBX 18 6 1 3
BITMAP
004000
80E040
F3F1C0
FFFFC0
7FFFC0
7FFFC0
ENDCHAR
STARTCHAR uni25D7.v_spike
ENCODING 57712
SWIDTH 1280 0
DWIDTH 20 0
BBX 18 6 1 3
BITMAP
7FFFC0
7FFFC0
7FFFC0
FBFBC0
C1E0C0
00C000
ENDCHAR
STARTCHAR uni25D6.square
ENCODING 57713
SWIDTH 350 0
DWIDTH 6 0
BBX 4 18 2 -3
BITMAP
F0
F0
F0
F0
F0
F0
F0
F0
F0
F0
F0
F0
F0
F0
F0
F0
F0
F0
ENDCHAR
STARTCHAR uni25D7.square
ENCODING 57714
SWIDTH 350 0
DWIDTH 6 0
BBX 5 18 -1 -3
BITMAP
F0
F8
F8
F8
F8
F8
F8
F8
F8
F8
F8
F8
F8
F8
F8
F8
F8
F8
ENDCHAR
STARTCHAR uni25D6.v_square
ENCODING 57715
SWIDTH 1280 0
DWIDTH 20 0
BBX 17 5 2 3
BITMAP
FFFF80
FFFF80
FFFF80
FFFF80
FFFF80
ENDCHAR
STARTCHAR uni25D7.v_square
ENCODING 57716
SWIDTH 1280 0
DWIDTH 20 0
BBX 17 5 2 3
BITMAP
FFFF80
FFFF80
FFFF80
FFFF80
FFFF00
ENDCHAR
STARTCHAR uni25D6.rounded
ENCODING 57717
SWIDTH 350 0
DWIDTH 6 0
BBX 5 18 1 -3
BITMAP
08
78
78
78
F8
F8
F8
F8
F8
F8
F8
F8
F8
F8
78
78
78
38
ENDCHAR
STARTCHAR uni25D7.rounded
ENCODING 57718
SWIDTH 350 0
DWIDTH 6 0
BBX 5 18 -1 -3
BITMAP
C0
F0
F8
F8
F8
F8
F8
F8
F8
F8
F8
F8
F8
F8
F8
F8
F0
E0
ENDCHAR
STARTCHAR uni25D6.v_rounded
ENCODING 57719
SWIDTH 1280 0
DWIDTH 20 0
BBX 17 5 2 3
BITMAP
3FFE00
FFFF00
FFFF80
FFFF80
FFFF80
ENDCHAR
STARTCHAR uni25D7.v_rounded
ENCODING 57720
SWIDTH 1280 0
DWIDTH 20 0
BBX 17 5 2 3
BITMAP
FFFF80
FFFF80
FFFF00
7FFF00
0FF000
ENDCHAR
STARTCHAR uni21AB.arrow
ENCODING 57721
SWIDTH 1000 0
DWIDTH 16 0
BBX 20 30 -1 -15
BITMAP
FC0000
FFE000
FFF000
FFFC00
FFFE00
FFFE00
FFFF00
FFFF00
FFFF00
FFFF80
FFFF80
FFFF80
FFFF80
FFFF80
FFFF80
FFFF80
FFFF80
FFFF80
1FFF80
1FFF80
FFFFF0
7FFFE0
3FFFC0
1FFF80
0FFF00
07FE00
03FC00
01F800
00F000
004000
ENDCHAR
STARTCHAR uni21AC.arrow
ENCODING 57722
SWIDTH 1000 0
DWIDTH 16 0
BBX 20 29 -1 -3
BITMAP
006000
01F000
03F800
07FC00
0FFE00
1FFF00
3FFFC0
7FFFE0
FFFFF0
FFFF70
1FFF80
FFFF80
FFFF80
FFFF80
FFFF80
FFFF80
FFFF80
FFFF80
FFFF80
FFFF80
FFFF00
FFFF00
FFFF00
FFFE00
FFFE00
FFFC00
FFF800
FFF000
FF8000
ENDCHAR
STARTCHAR uni21AB.v_arrow
ENCODING 57723
SWIDTH 1335 0
DWIDTH 21 0
BBX 29 20 -10 -5
BITMAP
004FFFF8
00CFFFF8
01CFFFF8
03FFFFF8
07FFFFF8
0FFFFFF8
1FFFFFF8
3FFFFFF8
7FFFFFF8
FFFFFFF8
7FFFFFF0
7FFFFFF0
3FFFFFE0
1FFFFFE0
0FFFFFC0
07FFFF00
03FFFC00
01C00000
00C00000
00400000
ENDCHAR
STARTCHAR uni21AC.v_arrow
ENCODING 57724
SWIDTH 1335 0
DWIDTH 21 0
BBX 29 20 2 -5
BITMAP
FFFF9800
FFFF9C00
FFFFDC00
FFFFFE00
FFFFFF00
FFFFFF80
FFFFFFC0
FFFFFFE0
FFFFFFF0
7FFFFFF8
7FFFFFF8
7FFFFFF0
3FFFFFE0
1FFFFFC0
0FFFFF80
07FFFF00
00FFFE00
00001C00
00001C00
00001800
ENDCHAR
STARTCHAR uni25D6.wings
ENCODING 57725
SWIDTH 900 0
DWIDTH 14 0
BBX 15 24 0 -6
BITMAP
1FF0
1FF0
1FF0
7FFE
FFFE
FFFE
FFFE
FFFE
FFFE
FFFE
FFFE
FFFE
FFFE
FFFE
FFFE
FFFE
FFFE
FFFE
FFFE
FFFE
EFFE
1FF8
1FF0
1FF0
ENDCHAR
STARTCHAR uni25D7.wings
ENCODING 57726
SWIDTH 900 0
DWIDTH 14 0
BBX 15 24 -1 -6
BITMAP
0FF0
1FF0
1FF0
FFFE
FFFE
FFFE
FFFE
FFFE
FFFE
FFFE
FFFE
FFFE
FFFE
FFFE
FFFE
FFFE
FFFE
FFFE
FFFE
FFFE
FFFE
1FF0
1FF0
1FF8
ENDCHAR
STARTCHAR uni25D6.v_wings
ENCODING 57727
SWIDTH 1280 0
DWIDTH 20 0
BBX 23 15 -1 -2
BITMAP
1FFFF0
1FFFF0
1FFFF0
FFFFFE
FFFFFE
FFFFFE
FFFFFE
FFFFFE
FFFFFE
FFFFFE
FFFFFE
7FFFFC
3FFFF0
1FFFF0
1FFFF0
ENDCHAR
STARTCHAR uni25D7.v_wings
ENCODING 57728
SWIDTH 1280 0
DWIDTH 20 0
BBX 23 15 -1 -2
BITMAP
1FFFF0
3FFFF0
3FFFF8
FFFFFE
FFFFFE
FFFFFE
FFFFFE
FFFFFE
FFFFFE
FFFFFE
FFFFFE
FFFFEE
1FFFF0
1FFFF0
1FFFF0
ENDCHAR
STARTCHAR uni2B1B.chevron_e
ENCODING 57729
SWIDTH 1280 0
DWIDTH 20 0
BBX 20 18 0 -3
BITMAP
7FFF80
FFFFC0
7FFFC0
7FFFC0
7FFFE0
3FFFE0
3FFFF0
1FFFF0
1FFFF0
1FFFF0
1FFFF0
3FFFF0
3FFFE0
3FFFE0
7FFFC0
7FFFC0
FFFFC0
FFFFC0
ENDCHAR
STARTCHAR uni2B1B.chevron_n
ENCODING 57730
SWIDTH 1280 0
DWIDTH 20 0
BBX 17 20 2 -4
BITMAP
03C000
0FF000
7FFE00
FFFF80
FFFF80
FFFF80
FFFF80
FFFF80
FFFF80
FFFF80
FFFF80
FFFF80
FFFF80
FFFF80
FFFF80
FFFF80
FFFF80
FF7F80
F81F80
E00380
ENDCHAR
STARTCHAR uni2B1B.chevron_s
ENCODING 57731
SWIDTH 1280 0
DWIDTH 20 0
BBX 17 20 2 -4
BITMAP
C00380
F00F80
FE7F80
FFFF80
FFFF80
FFFF80
FFFF80
FFFF80
FFFF80
FFFF80
FFFF80
FFFF80
FFFF80
FFFF80
FFFF80
FFFF80
FFFF80
7FFF00
1FF800
03E000
ENDCHAR
STARTCHAR uni2B1B.chevron_w
ENCODING 57732
SWIDTH 1280 0
DWIDTH 20 0
BBX 21 18 0 -3
BITMAP
0FFFF0
1FFFF0
1FFFF0
3FFFF0
3FFFE0
7FFFE0
7FFFC0
7FFFC0
FFFFC0
FFFF80
FFFFC0
7FFFC0
7FFFE0
3FFFE0
3FFFE0
3FFFF0
1FFFF0
1FFFF8
ENDCHAR
STARTCHAR uni2B1B.semichevron_e
ENCODING 57733
SWIDTH 650 0
DWIDTH 10 0
BBX 11 18 0 -3
BITMAP
7FE0
FFE0
7FE0
7FE0
7FE0
3FE0
3FE0
1FE0
1FE0
1FE0
1FE0
3FE0
3FE0
3FE0
7FE0
7FE0
FFE0
FFE0
ENDCHAR
STARTCHAR uni2B1B.semichevron_w
ENCODING 57734
SWIDTH 650 0
DWIDTH 10 0
BBX 11 18 -1 -3
BITMAP
FFE0
FFE0
FFE0
FFC0
FFC0
FFC0
FF80
FF80
FF00
FF00
FF80
FF80
FFC0
FFC0
FFC0
FFE0
FFE0
FFE0
ENDCHAR
STARTCHAR uni2B1B.semichevron_n
ENCODING 57735
SWIDTH 1000 0
DWIDTH 16 0
BBX 18 11 -1 0
BITMAP
E001C0
FC0FC0
FF3FC0
FFFFC0
FFFFC0
FFFFC0
FFFFC0
FFFFC0
FFFFC0
FFFFC0
FFFFC0
ENDCHAR
STARTCHAR uni2B1B.semichevron_s
ENCODING 57736
SWIDTH 1000 0
DWIDTH 16 0
BBX 18 11 -1 0
BITMAP
FFFFC0
FFFFC0
FFFFC0
FFFFC0
FFFFC0
FFFFC0
FFFFC0
FFFFC0
FE1FC0
F003C0
C000C0
ENDCHAR
STARTCHAR space.v
ENCODING 57737
SWIDTH 1000 0
DWIDTH 16 0
BBX 1 1 0 0
BITMAP
00
ENDCHAR
STARTCHAR Agrave.v
ENCODING 57738
SWIDTH 1000 0
DWIDTH 16 0
BBX 12 17 2 -2
BITMAP
1FC0
3720
70A0
7FC0
3040
1320
24A0
6950
6B50
4B50
D030
DFF0
D330
D330
C310
FFE0
F3C0
ENDCHAR
STARTCHAR Aacute.v
ENCODING 57739
SWIDTH 1000 0
DWIDTH 16 0
BBX 12 17 2 -2
BITMAP
0FE0
13A0
3420
7FC0
7040
1320
24A0
6950
6B50
4B50
D030
DFF0
D330
D330
C310
FFE0
F3C0
ENDCHAR
STARTCHAR Acircumflex.v
ENCODING 57740
SWIDTH 1000 0
DWIDTH 16 0
BBX 12 17 2 -2
BITMAP
0FC0
17A0
3020
7FC0
7040
1320
24A0
6950
6B50
4B50
D030
DFF0
D330
D330
C310
FFE0
F3C0
ENDCHAR
STARTCHAR Atilde.v
ENCODING 57741
SWIDTH 1000 0
DWIDTH 16 0
BBX 12 17 2 -2
BITMAP
0FC0
1620
31A0
7FC0
7040
1320
24A0
6950
6B50
4B50
D030
DFF0
D330
D330
C310
FFE0
F3C0
ENDCHAR
STARTCHAR Adieresis.v
ENCODING 57742
SWIDTH 1000 0
DWIDTH 16 0
BBX 12 17 2 -2
BITMAP
1FE0
2120
6120
7FE0
7040
1320
24A0
6950
6B50
4B50
D030
DFF0
D330
D330
C310
FFE0
F3C0
ENDCHAR
STARTCHAR Aring.v
ENCODING 57743
SWIDTH 1000 0
DWIDTH 16 0
BBX 12 17 2 -2
BITMAP
0FC0
17A0
3B60
7B60
74A0
77A0
24A0
6A50
6B50
4B30
DFF0
D030
D330
D330
C310
FFE0
F3C0
ENDCHAR
STARTCHAR Amacron.v
ENCODING 57744
SWIDTH 1000 0
DWIDTH 16 0
BBX 12 16 2 -2
BITMAP
1FE0
37A0
7FC0
7040
1320
24A0
6950
6B50
4B50
D030
DFF0
D330
D330
C310
FFE0
F3C0
ENDCHAR
STARTCHAR Abreve.v
ENCODING 57745
SWIDTH 1000 0
DWIDTH 16 0
BBX 12 17 2 -2
BITMAP
1FE0
3860
77A0
7FC0
3040
1320
24A0
6950
6B50
4B50
D030
DFF0
D330
D330
C310
FFE0
F3C0
ENDCHAR
STARTCHAR Aogonek.v
ENCODING 57746
SWIDTH 1000 0
DWIDTH 16 0
BBX 12 16 2 -4
BITMAP
0FC0
1320
34A0
2950
6B50
4B50
D030
DFF0
D030
D330
C350
FF50
F350
0310
03F0
03E0
ENDCHAR
STARTCHAR Ccedilla.v
ENCODING 57747
SWIDTH 1000 0
DWIDTH 16 0
BBX 12 15 2 -3
BITMAP
1FF0
27D0
4810
C830
D3C0
D400
D400
D400
CBF0
CED0
E110
FD60
78C0
1F00
1E00
ENDCHAR
STARTCHAR Cacute.v
ENCODING 57748
SWIDTH 1000 0
DWIDTH 16 0
BBX 12 17 2 -2
BITMAP
0FE0
13A0
3420
3FE0
3010
27D0
4810
D3E0
D3C0
D400
D400
D7E0
C810
E3D0
F010
7FE0
3FC0
ENDCHAR
STARTCHAR Ccircumflex.v
ENCODING 57749
SWIDTH 1000 0
DWIDTH 16 0
BBX 12 17 2 -2
BITMAP
0FC0
17A0
3020
3FE0
3010
27D0
4810
D3E0
D3C0
D400
D400
D7E0
C810
E3D0
F010
7FE0
3FC0
ENDCHAR
STARTCHAR Cdotaccent.v
ENCODING 57750
SWIDTH 1000 0
DWIDTH 16 0
BBX 12 17 2 -2
BITMAP
07C0
0940
1840
1FE0
1010
27D0
4810
D3E0
D3C0
D400
D400
D7E0
C810
E3D0
F010
7FE0
3FC0
ENDCHAR
STARTCHAR Ccaron.v
ENCODING 57751
SWIDTH 1000 0
DWIDTH 16 0
BBX 12 17 2 -2
BITMAP
1FE0
36E0
3120
3FE0
3010
27D0
4810
D3E0
D3C0
D400
D400
D7E0
C810
E3D0
F010
7FE0
3FC0
ENDCHAR
STARTCHAR Dcaron.v
ENCODING 57752
SWIDTH 1000 0
DWIDTH 16 0
BBX 12 17 2 -2
BITMAP
1FE0
34A0
7360
7F80
4060
4F90
C850
CB30
CB30
CB30
CB30
CB30
C850
CF10
C020
FFC0
FF00
ENDCHAR
STARTCHAR Egrave.v
ENCODING 57753
SWIDTH 1000 0
DWIDTH 16 0
BBX 12 17 2 -2
BITMAP
1FC0
3720
70A0
7FE0
4010
4FD0
C810
CBE0
C820
CFA0
C820
CBE0
C810
CFD0
C010
FFE0
FFC0
ENDCHAR
STARTCHAR Eacute.v
ENCODING 57754
SWIDTH 1000 0
DWIDTH 16 0
BBX 12 17 2 -2
BITMAP
0FE0
13A0
3420
7FE0
4010
4FD0
C810
CBE0
C820
CFA0
C820
CBE0
C810
CFD0
C010
FFE0
FFC0
ENDCHAR
STARTCHAR Ecircumflex.v
ENCODING 57755
SWIDTH 1000 0
DWIDTH 16 0
BBX 12 17 2 -2
BITMAP
0FC0
17A0
3020
7FE0
4010
4FD0
C810
CBE0
C820
CFA0
C820
CBE0
C810
CFD0
C010
FFE0
FFC0
ENDCHAR
STARTCHAR Edieresis.v
ENCODING 57756
SWIDTH 1000 0
DWIDTH 16 0
BBX 12 17 2 -2
BITMAP
1FE0
2120
6120
7FE0
4010
4FD0
C810
CBE0
C820
CFA0
C820
CBE0
C810
CFD0
C010
FFE0
FFC0
ENDCHAR
STARTCHAR Emacron.v
ENCODING 57757
SWIDTH 1000 0
DWIDTH 16 0
BBX 12 16 2 -2
BITMAP
1FE0
37A0
7FE0
4010
4FD0
C810
CBE0
C820
CFA0
C820
CBE0
C810
CFD0
C010
FFE0
FFC0
ENDCHAR
STARTCHAR Ebreve.v
ENCODING 57758
SWIDTH 1000 0
DWIDTH 16 0
BBX 12 17 2 -2
BITMAP
1FE0
3860
77A0
7FE0
4010
4FD0
C810
CBE0
C820
CFA0
C820
CBE0
C810
CFD0
C010
FFE0
FFC0
ENDCHAR
STARTCHAR Edotaccent.v
ENCODING 57759
SWIDTH 1000 0
DWIDTH 16 0
BBX 12 17 2 -2
BITMAP
0780
0980
1880
1FE0
6010
4FD0
C810
CBE0
C820
CFA0
C820
CBE0
C810
CFD0
C010
FFE0
FFC0
ENDCHAR
STARTCHAR Eogonek.v
ENCODING 57760
SWIDTH 1000 0
DWIDTH 16 0
BBX 12 16 2 -4
BITMAP
3FF0
47D0
C810
CBE0
C820
CFA0
C820
CBC0
C830
CF90
C050
FF60
FF50
0310
07E0
03C0
ENDCHAR
STARTCHAR Ecaron.v
ENCODING 57761
SWIDTH 1000 0
DWIDTH 16 0
BBX 12 17 2 -2
BITMAP
1FE0
34A0
7320
7FE0
4010
4FD0
C810
CBE0
C820
CFA0
C820
CBE0
C810
CFD0
C010
FFE0
FFC0
ENDCHAR
STARTCHAR Gcircumflex.v
ENCODING 57762
SWIDTH 1000 0
DWIDTH 16 0
BBX 12 17 2 -2
BITMAP
0FC0
17A0
3020
7FC0
7020
27A0
4820
D3C0
D380
D4F0
D530
D330
C830
E7D0
F010
7FE0
3FC0
ENDCHAR
STARTCHAR Gbreve.v
ENCODING 57763
SWIDTH 1000 0
DWIDTH 16 0
BBX 12 17 2 -2
BITMAP
1FE0
3860
77A0
7FC0
3020
27A0
4820
D3C0
D380
D4F0
D530
D330
C830
E7D0
F010
7FE0
3FC0
ENDCHAR
STARTCHAR Gdotaccent.v
ENCODING 57764
SWIDTH 1000 0
DWIDTH 16 0
BBX 12 17 2 -2
BITMAP
0780
0980
1880
1FC0
1020
27A0
4820
D3C0
D380
D4F0
D530
D330
C830
E7D0
F010
7FE0
3FC0
ENDCHAR
STARTCHAR Gcommaaccent.v
ENCODING 57765
SWIDTH 1000 0
DWIDTH 16 0
BBX 12 19 2 -7
BITMAP
1FE0
23A0
4C20
C820
D3C0
D4F0
D510
D330
C830
CFF0
E010
7FF0
7840
0B80
1880
1F80
1980
1E00
1C00
ENDCHAR
STARTCHAR Hcircumflex.v
ENCODING 57766
SWIDTH 1000 0
DWIDTH 16 0
BBX 12 17 2 -2
BITMAP
0FC0
17A0
3020
7FE0
4310
4D30
CB30
CB30
C830
CFD0
C830
CB30
CB30
CB30
C310
FFE0
F3C0
ENDCHAR
STARTCHAR Igrave.v
ENCODING 57767
SWIDTH 1000 0
DWIDTH 16 0
BBX 12 17 2 -2
BITMAP
1FC0
3720
70A0
7FE0
4010
4FD0
C110
F960
F940
1940
1940
1960
2110
4FD0
C010
FFE0
FFC0
ENDCHAR
STARTCHAR Iacute.v
ENCODING 57768
SWIDTH 1000 0
DWIDTH 16 0
BBX 12 17 2 -2
BITMAP
0FE0
13A0
3420
7FE0
4010
4FD0
C110
F960
F940
1940
1940
1960
2110
4FD0
C010
FFE0
FFC0
ENDCHAR
STARTCHAR Icircumflex.v
ENCODING 57769
SWIDTH 1000 0
DWIDTH 16 0
BBX 12 17 2 -2
BITMAP
0FC0
17A0
3020
7FE0
4010
4FD0
C110
F960
F940
1940
1940
1960
2110
4FD0
C010
FFE0
FFC0
ENDCHAR
STARTCHAR Idieresis.v
ENCODING 57770
SWIDTH 1000 0
DWIDTH 16 0
BBX 12 17 2 -2
BITMAP
1FE0
2120
6120
7FE0
4010
4FD0
C110
F960
F940
1940
1940
1960
2110
4FD0
C010
FFE0
FFC0
ENDCHAR
STARTCHAR Itilde.v
ENCODING 57771
SWIDTH 1000 0
DWIDTH 16 0
BBX 12 17 2 -2
BITMAP
0FC0
1620
31A0
7FE0
4010
4FD0
C110
F960
F940
1940
1940
1960
2110
4FD0
C010
FFE0
FFC0
ENDCHAR
STARTCHAR Imacron.v
ENCODING 57772
SWIDTH 1000 0
DWIDTH 16 0
BBX 12 16 2 -2
BITMAP
1FE0
37A0
7FE0
4010
4FD0
C110
F960
F940
1940
1940
1960
2110
4FD0
C010
FFE0
FFC0
ENDCHAR
STARTCHAR Ibreve.v
ENCODING 57773
SWIDTH 1000 0
DWIDTH 16 0
BBX 12 17 2 -2
BITMAP
1FE0
3860
77A0
7FE0
2010
4FD0
C110
F960
F940
1940
1940
1960
2110
4FD0
C010
FFE0
FFC0
ENDCHAR
STARTCHAR Iogonek.v
ENCODING 57774
SWIDTH 1000 0
DWIDTH 16 0
BBX 12 16 2 -4
BITMAP
3FF0
4ED0
C110
E130
F940
1940
1940
1940
2130
4F90
C050
FF50
FF70
0310
07F0
03C0
ENDCHAR
STARTCHAR Idotaccent.v
ENCODING 57775
SWIDTH 1000 0
DWIDTH 16 0
BBX 12 17 2 -2
BITMAP
0780
0980
1880
1FE0
2010
4FD0
C110
F960
F940
1940
1940
1960
2110
4FD0
C010
FFE0
FFC0
ENDCHAR
STARTCHAR Jcircumflex.v
ENCODING 57776
SWIDTH 1000 0
DWIDTH 16 0
BBX 12 17 2 -2
BITMAP
07E0
09D0
1810
1BF0
1F10
0150
0350
0350
3F50
4350
D350
D350
C850
E790
E020
7FC0
3F00
ENDCHAR
STARTCHAR Kcommaaccent.v
ENCODING 57777
SWIDTH 1000 0
DWIDTH 16 0
BBX 12 19 2 -7
BITMAP
3CF0
4510
CAA0
CAA0
C8A0
CF90
C850
CB30
CB30
CB30
C310
FFF0
F440
0B80
1880
1F80
1980
1E00
1C00
ENDCHAR
STARTCHAR Lacute.v
ENCODING 57778
SWIDTH 1000 0
DWIDTH 16 0
BBX 12 17 2 -2
BITMAP
3F80
4F40
C080
FF00
C200
4C00
CC00
CC00
CC60
CC90
CD30
CB30
C830
CFD0
C010
FFE0
FFC0
ENDCHAR
STARTCHAR Lcommaaccent.v
ENCODING 57779
SWIDTH 1000 0
DWIDTH 16 0
BBX 12 19 2 -7
BITMAP
3C00
4400
CC00
CC00
CC00
CCF0
CD10
CB30
C830
CFF0
C010
FFF0
F840
0B80
1880
1F80
1980
1E00
1C00
ENDCHAR
STARTCHAR Lcaron.v
ENCODING 57780
SWIDTH 1000 0
DWIDTH 16 0
BBX 12 14 2 -2
BITMAP
3CF0
4490
CDB0
CB10
CB10
CBE0
CB10
CB30
CB30
C830
CFD0
C010
FFE0
FFC0
ENDCHAR
STARTCHAR Ntilde.v
ENCODING 57781
SWIDTH 1000 0
DWIDTH 16 0
BBX 12 17 2 -2
BITMAP
0FC0
1620
31A0
7FE0
4710
4B30
C930
CCB0
CA30
C930
CAB0
CA50
CB30
CB30
C310
FFE0
F3C0
ENDCHAR
STARTCHAR Nacute.v
ENCODING 57782
SWIDTH 1000 0
DWIDTH 16 0
BBX 12 17 2 -2
BITMAP
0FE0
13A0
3420
7FE0
4710
4B30
C930
CCB0
CA30
C930
CAB0
CA50
CB30
CB30
C310
FFE0
F3C0
ENDCHAR
STARTCHAR Ncommaaccent.v
ENCODING 57783
SWIDTH 1000 0
DWIDTH 16 0
BBX 12 19 2 -7
BITMAP
3CF0
4310
C930
CCB0
CA30
C930
CCB0
CA50
CB30
CB30
C310
FFF0
F440
0B80
1880
1F80
1980
1E00
1C00
ENDCHAR
STARTCHAR Ncaron.v
ENCODING 57784
SWIDTH 1000 0
DWIDTH 16 0
BBX 12 17 2 -2
BITMAP
1FE0
34A0
7320
7FE0
4710
4B30
C930
CCB0
CA30
C930
CAB0
CA50
CB30
CB30
C310
FFE0
F3C0
ENDCHAR
STARTCHAR Ograve.v
ENCODING 57785
SWIDTH 1000 0
DWIDTH 16 0
BBX 12 17 2 -2
BITMAP
1FC0
3720
70A0
7FC0
2020
2790
4850
D330
D330
D330
D330
D330
C850
C790
E020
7FC0
3F80
ENDCHAR
STARTCHAR Oacute.v
ENCODING 57786
SWIDTH 1000 0
DWIDTH 16 0
BBX 12 17 2 -2
BITMAP
0FE0
13A0
3420
7FC0
6020
2790
4850
D330
D330
D330
D330
D330
C850
C790
E020
7FC0
3F80
ENDCHAR
STARTCHAR Ocircumflex.v
ENCODING 57787
SWIDTH 1000 0
DWIDTH 16 0
BBX 12 17 2 -2
BITMAP
0FC0
17A0
3020
7FC0
6020
2790
4850
D330
D330
D330
D330
D330
C850
C790
E020
7FC0
3F80
ENDCHAR
STARTCHAR Otilde.v
ENCODING 57788
SWIDTH 1000 0
DWIDTH 16 0
BBX 12 17 2 -2
BITMAP
0FC0
1620
31A0
7FC0
6020
2790
4850
D330
D330
D330
D330
D330
C850
C790
E020
7FC0
3F80
ENDCHAR
STARTCHAR Odieresis.v
ENCODING 57789
SWIDTH 1000 0
DWIDTH 16 0
BBX 12 17 2 -2
BITMAP
1FE0
2120
6120
7FE0
6020
2790
4850
D330
D330
D330
D330
D330
C850
C790
E020
7FC0
3F80
ENDCHAR
STARTCHAR Omacron.v
ENCODING 57790
SWIDTH 1000 0
DWIDTH 16 0
BBX 12 16 2 -2
BITMAP
1FE0
37A0
7FC0
6020
2790
4850
D330
D330
D330
D330
D330
C850
C790
E020
7FC0
3F80
ENDCHAR
STARTCHAR Obreve.v
ENCODING 57791
SWIDTH 1000 0
DWIDTH 16 0
BBX 12 17 2 -2
BITMAP
1FE0
3860
77A0
7FC0
2020
2790
4850
D330
D330
D330
D330
D330
C850
C790
E020
7FC0
3F80
ENDCHAR
STARTCHAR Ohungarumlaut.v
ENCODING 57792
SWIDTH 1000 0
DWIDTH 16 0
BBX 12 18 2 -2
BITMAP
0FF0
1550
3560
3320
3FC0
6020
2790
4850
D330
D330
D330
D330
D330
C850
C790
E020
7FC0
3F80
ENDCHAR
STARTCHAR Racute.v
ENCODING 57793
SWIDTH 1000 0
DWIDTH 16 0
BBX 12 17 2 -2
BITMAP
0FE0
13A0
2420
7FC0
4060
4FA0
C850
CB50
CB60
C850
CFD0
C830
CB30
CB30
C310
FFE0
F3C0
ENDCHAR
STARTCHAR Rcommaaccent.v
ENCODING 57794
SWIDTH 1000 0
DWIDTH 16 0
BBX 12 19 2 -7
BITMAP
3FC0
4720
C890
CA50
CB50
C860
CFD0
C830
CB30
CB30
C310
FFF0
F460
0B80
1880
1F80
1980
1E00
1C00
ENDCHAR
STARTCHAR Rcaron.v
ENCODING 57795
SWIDTH 1000 0
DWIDTH 16 0
BBX 12 17 2 -2
BITMAP
1FE0
34A0
7360
7F80
4060
4FA0
C850
CB50
CB60
C850
CFD0
C830
CB30
CB30
C310
FFE0
F3C0
ENDCHAR
STARTCHAR Sacute.v
ENCODING 57796
SWIDTH 1000 0
DWIDTH 16 0
BBX 12 17 2 -2
BITMAP
0FE0
13A0
3420
7FE0
7010
27D0
4810
CBE0
C820
C790
E050
FF30
4050
4F90
C020
FFC0
FF00
ENDCHAR
STARTCHAR Scircumflex.v
ENCODING 57797
SWIDTH 1000 0
DWIDTH 16 0
BBX 12 17 2 -2
BITMAP
0FC0
17A0
3020
7FE0
7010
27D0
4810
CBE0
C820
C790
E050
FF30
4050
4F90
C020
FFC0
FF00
ENDCHAR
STARTCHAR Scedilla.v
ENCODING 57798
SWIDTH 1000 0
DWIDTH 16 0
BBX 12 15 2 -3
BITMAP
1FF0
27D0
4810
CBE0
C820
CF10
E0D0
FF30
6030
4DD0
C210
FAE0
F880
1F00
3C00
ENDCHAR
STARTCHAR Scaron.v
ENCODING 57799
SWIDTH 1000 0
DWIDTH 16 0
BBX 12 17 2 -2
BITMAP
1FE0
34A0
7320
7FE0
3010
27D0
4810
CBE0
C820
C790
E050
FF30
4050
4F90
C020
FFC0
FF00
ENDCHAR
STARTCHAR Scommaaccent.v
ENCODING 57800
SWIDTH 1000 0
DWIDTH 16 0
BBX 12 19 2 -7
BITMAP
1FF0
27D0
4810
CBE0
C820
CF10
E0D0
FE30
6130
4FD0
C010
FFE0
F880
0B80
1880
1F80
1980
1E00
1C00
ENDCHAR
STARTCHAR Tcommaaccent.v
ENCODING 57801
SWIDTH 1000 0
DWIDTH 16 0
BBX 12 17 2 -5
BITMAP
3FF0
4ED0
C110
E110
F960
1940
1940
1940
1940
1840
1F80
1B80
1880
1F80
1880
1F00
1C00
ENDCHAR
STARTCHAR Tcaron.v
ENCODING 57802
SWIDTH 1000 0
DWIDTH 16 0
BBX 12 17 2 -2
BITMAP
1FE0
34A0
7320
7FE0
4010
4FD0
C110
F960
F940
1940
1940
1940
1940
1940
1840
1F80
1E00
ENDCHAR
STARTCHAR Ugrave.v
ENCODING 57803
SWIDTH 1000 0
DWIDTH 16 0
BBX 12 17 2 -2
BITMAP
1FC0
3720
70A0
7FE0
4310
4D30
CB30
CB30
CB30
CB30
CB30
CB30
C850
E790
E020
7FC0
3F00
ENDCHAR
STARTCHAR Uacute.v
ENCODING 57804
SWIDTH 1000 0
DWIDTH 16 0
BBX 12 17 2 -2
BITMAP
0FE0
13A0
3420
3FE0
4310
4D30
CB30
CB30
CB30
CB30
CB30
CB30
C850
E790
E020
7FC0
3F00
ENDCHAR
STARTCHAR Ucircumflex.v
ENCODING 57805
SWIDTH 1000 0
DWIDTH 16 0
BBX 12 17 2 -2
BITMAP
0FC0
17A0
3020
7FE0
4310
4D30
CB30
CB30
CB30
CB30
CB30
CB30
C850
E790
E020
7FC0
3F00
ENDCHAR
STARTCHAR Udieresis.v
ENCODING 57806
SWIDTH 1000 0
DWIDTH 16 0
BBX 12 17 2 -2
BITMAP
1FE0
2120
6120
7FE0
4310
4D30
CB30
CB30
CB30
CB30
CB30
CB30
C850
E790
E020
7FC0
3F00
ENDCHAR
STARTCHAR Utilde.v
ENCODING 57807
SWIDTH 1000 0
DWIDTH 16 0
BBX 12 17 2 -2
BITMAP
0FC0
1620
31A0
7FE0
4310
4D30
CB30
CB30
CB30
CB30
CB30
CB30
C850
E790
E020
7FC0
3F00
ENDCHAR
STARTCHAR Umacron.v
ENCODING 57808
SWIDTH 1000 0
DWIDTH 16 0
BBX 12 16 2 -2
BITMAP
1FE0
37A0
7FE0
4310
4D30
CB30
CB30
CB30
CB30
CB30
CB30
C850
E790
E020
7FC0
3F00
ENDCHAR
STARTCHAR Ubreve.v
ENCODING 57809
SWIDTH 1000 0
DWIDTH 16 0
BBX 12 17 2 -2
BITMAP
1FE0
3860
77A0
7FE0
4310
4D30
CB30
CB30
CB30
CB30
CB30
CB30
C850
E790
E020
7FC0
3F00
ENDCHAR
STARTCHAR Uring.v
ENCODING 57810
SWIDTH 1000 0
DWIDTH 16 0
BBX 12 20 2 -2
BITMAP
0FC0
17A0
3960
7B60
7860
77A0
7FE0
4310
4D30
CB30
CB30
CB30
CB30
CB30
CB30
C850
E790
E020
7FC0
3F00
ENDCHAR
STARTCHAR Uhungarumlaut.v
ENCODING 57811
SWIDTH 1000 0
DWIDTH 16 0
BBX 12 18 2 -2
BITMAP
0FF0
1550
3560
3320
3FE0
4310
4D30
CB30
CB30
CB30
CB30
CB30
CB30
C850
E790
E020
7FC0
3F00
ENDCHAR
STARTCHAR Uogonek.v
ENCODING 57812
SWIDTH 1000 0
DWIDTH 16 0
BBX 12 16 2 -4
BITMAP
3CF0
4510
CB30
CB30
CB30
CB30
CB30
CB30
C850
CCD0
E310
FAE0
7A40
1940
1F80
1F00
ENDCHAR
STARTCHAR Wcircumflex.v
ENCODING 57813
SWIDTH 1000 0
DWIDTH 16 0
BBX 12 17 2 -2
BITMAP
0FC0
17A0
3020
7FE0
4790
D5B0
D5B0
D6B0
D4B0
D5B0
D330
D4B0
CDB0
EB50
E310
FFE0
7380
ENDCHAR
STARTCHAR Wgrave.v
ENCODING 57814
SWIDTH 1000 0
DWIDTH 16 0
BBX 12 17 2 -2
BITMAP
1FC0
3720
70A0
7FE0
4790
D5B0
D5B0
D6B0
D4B0
D5B0
D330
D4B0
CDB0
EB50
E310
FFE0
7380
ENDCHAR
STARTCHAR Wacute.v
ENCODING 57815
SWIDTH 1000 0
DWIDTH 16 0
BBX 12 17 2 -2
BITMAP
0FE0
13A0
3420
3FE0
4790
D5B0
D5B0
D6B0
D4B0
D5B0
D330
D4B0
CDB0
EB50
E310
FFE0
7380
ENDCHAR
STARTCHAR Wdieresis.v
ENCODING 57816
SWIDTH 1000 0
DWIDTH 16 0
BBX 12 17 2 -2
BITMAP
1FE0
2120
6120
7FE0
4790
D5B0
D5B0
D6B0
D4B0
D5B0
D330
D4B0
CDB0
EB50
E310
FFE0
7380
ENDCHAR
STARTCHAR Yacute.v
ENCODING 57817
SWIDTH 1000 0
DWIDTH 16 0
BBX 12 17 2 -2
BITMAP
0FE0
13A0
3420
3FE0
4310
4D30
CB30
CB30
C950
E490
F6A0
7140
3940
3980
1880
1F00
1E00
ENDCHAR
STARTCHAR Ycircumflex.v
ENCODING 57818
SWIDTH 1000 0
DWIDTH 16 0
BBX 12 17 2 -2
BITMAP
0FC0
17A0
3020
7FE0
4310
4D30
CB30
CB30
C950
E490
F6A0
7140
3940
3980
1880
1F00
1E00
ENDCHAR
STARTCHAR Ydieresis.v
ENCODING 57819
SWIDTH 1000 0
DWIDTH 16 0
BBX 12 17 2 -2
BITMAP
1FE0
2120
6120
7FE0
4310
4D30
CB30
CB30
C950
E490
F6A0
7140
3940
3980
1880
1F00
1E00
ENDCHAR
STARTCHAR Ygrave.v
ENCODING 57820
SWIDTH 1000 0
DWIDTH 16 0
BBX 12 17 2 -2
BITMAP
1FC0
3720
70A0
7FE0
4310
4D30
CB30
CB30
C950
E490
F6A0
7140
3940
3980
1880
1F00
1E00
ENDCHAR
STARTCHAR Zacute.v
ENCODING 57821
SWIDTH 1000 0
DWIDTH 16 0
BBX 12 17 2 -2
BITMAP
0FE0
13A0
3420
3FE0
2010
4FD0
C030
FE50
FCA0
0B40
1480
29E0
5010
CFD0
C010
FFE0
FFC0
ENDCHAR
STARTCHAR Zdotaccent.v
ENCODING 57822
SWIDTH 1000 0
DWIDTH 16 0
BBX 12 17 2 -2
BITMAP
0780
0980
1880
1FE0
2010
4FD0
C030
FE50
FCA0
0B40
1480
29E0
5010
CFD0
C010
FFE0
FFC0
ENDCHAR
STARTCHAR Zcaron.v
ENCODING 57823
SWIDTH 1000 0
DWIDTH 16 0
BBX 12 17 2 -2
BITMAP
1FE0
34A0
3320
3FE0
2010
4FD0
C030
FE50
FCA0
0B40
1480
29E0
5010
CFD0
C010
FFE0
FFC0
ENDCHAR
STARTCHAR AE.v
ENCODING 57824
SWIDTH 1000 0
DWIDTH 16 0
BBX 12 14 2 -2
BITMAP
0FF0
1770
2890
6AB0
4AA0
D690
D0F0
DF90
D0A0
D690
D6F0
C610
FFE0
EFC0
ENDCHAR
STARTCHAR Eth.v
ENCODING 57825
SWIDTH 1000 0
DWIDTH 16 0
BBX 13 14 1 -2
BITMAP
1FF0
2388
6468
65A8
6598
4498
CE98
C498
E598
E428
67C8
6010
7FE0
7F80
ENDCHAR
STARTCHAR Oslash.v
ENCODING 57826
SWIDTH 1000 0
DWIDTH 16 0
BBX 12 16 2 -3
BITMAP
00F0
1F10
2790
48D0
CAB0
D330
D5B0
D6B0
D2B0
D3B0
CC50
E790
E820
E3C0
7F00
7000
ENDCHAR
STARTCHAR Thorn.v
ENCODING 57827
SWIDTH 1000 0
DWIDTH 16 0
BBX 12 14 2 -2
BITMAP
3C00
4780
C860
CF90
C850
CB30
CB30
C830
CFD0
C810
CBE0
C380
FC00
F000
ENDCHAR
STARTCHAR Dcroat.v
ENCODING 57828
SWIDTH 1000 0
DWIDTH 16 0
BBX 13 14 1 -2
BITMAP
1FF0
2388
6468
65A8
6598
4498
CE98
C498
E598
E428
67C8
6010
7FE0
7F80
ENDCHAR
STARTCHAR Hbar.v
ENCODING 57829
SWIDTH 1000 0
DWIDTH 16 0
BBX 14 14 1 -2
BITMAP
1E78
2288
6514
4FF4
C414
E598
E418
6418
67F8
6418
6598
6188
7FF0
79E0
ENDCHAR
STARTCHAR IJ.v
ENCODING 57830
SWIDTH 1000 0
DWIDTH 16 0
BBX 12 14 2 -2
BITMAP
3CF0
4510
CB30
CB30
CB30
C330
C730
FB30
FF50
4050
CF90
C020
FFC0
FF00
ENDCHAR
STARTCHAR Ldot.v
ENCODING 57831
SWIDTH 1000 0
DWIDTH 16 0
BBX 12 17 2 -5
BITMAP
3C00
4400
CC00
CC00
CC00
CCF0
CD10
CB30
C830
CFF0
C010
FFF0
FC40
0940
1840
1C80
1F00
ENDCHAR
STARTCHAR Lslash.v
ENCODING 57832
SWIDTH 1000 0
DWIDTH 16 0
BBX 13 14 1 -2
BITMAP
1E00
2200
6600
6700
6480
6EB0
6448
E598
E598
6418
67E8
6008
7FF0
7FE0
ENDCHAR
STARTCHAR Eng.v
ENCODING 57833
SWIDTH 1000 0
DWIDTH 16 0
BBX 12 15 2 -3
BITMAP
0FC0
37B0
2850
4850
CB50
CB50
CB50
CB50
CB50
CB50
CA50
C2D0
FE10
FFE0
0F80
ENDCHAR
STARTCHAR OE.v
ENCODING 57834
SWIDTH 1000 0
DWIDTH 16 0
BBX 12 14 2 -2
BITMAP
1FF0
2770
4890
D2B0
D6A0
D690
D6F0
D690
D6A0
D090
CFF0
E010
FFF0
3FC0
ENDCHAR
STARTCHAR Tbar.v
ENCODING 57835
SWIDTH 1000 0
DWIDTH 16 0
BBX 12 14 2 -2
BITMAP
3FF0
4010
CFD0
E110
F960
1960
2120
67A0
6120
7940
7980
1880
1F00
1E00
ENDCHAR
STARTCHAR Germandbls.v
ENCODING 57836
SWIDTH 1000 0
DWIDTH 16 0
BBX 12 14 2 -2
BITMAP
3FC0
47A0
C860
CA60
CAA0
CA90
CA50
CB30
CBB0
CA30
CAD0
C230
FFC0
FF80
ENDCHAR
STARTCHAR A.salt_v
ENCODING 57837
SWIDTH 1000 0
DWIDTH 16 0
BBX 12 14 2 -2
BITMAP
1FE0
2790
4850
CB30
D330
D330
D030
CFD0
D030
D330
D330
C310
FFE0
F3C0
ENDCHAR
STARTCHAR Agrave.salt_v
ENCODING 57838
SWIDTH 1000 0
DWIDTH 16 0
BBX 12 17 2 -2
BITMAP
1FC0
3720
70A0
7FC0
2020
2790
4850
D330
D330
D030
DFF0
D030
D330
D330
C310
FFE0
F3C0
ENDCHAR
STARTCHAR Aacute.salt_v
ENCODING 57839
SWIDTH 1000 0
DWIDTH 16 0
BBX 12 17 2 -2
BITMAP
0FE0
13A0
3420
7FC0
6020
2790
4850
D330
D330
D030
DFF0
D030
D330
D330
C310
FFE0
F3C0
ENDCHAR
STARTCHAR Acircumflex.salt_v
ENCODING 57840
SWIDTH 1000 0
DWIDTH 16 0
BBX 12 17 2 -2
BITMAP
0FC0
17A0
3020
7FC0
6020
2790
4850
D330
D330
D030
DFF0
D030
D330
D330
C310
FFE0
F3C0
ENDCHAR
STARTCHAR Atilde.salt_v
ENCODING 57841
SWIDTH 1000 0
DWIDTH 16 0
BBX 12 17 2 -2
BITMAP
0FC0
1620
31A0
7FC0
6020
2790
4850
D330
D330
D030
DFF0
D030
D330
D330
C310
FFE0
F3C0
ENDCHAR
STARTCHAR Adieresis.salt_v
ENCODING 57842
SWIDTH 1000 0
DWIDTH 16 0
BBX 12 17 2 -2
BITMAP
1FE0
2120
6120
7FE0
6020
2790
4850
D330
D330
D030
DFF0
D030
D330
D330
C310
FFE0
F3C0
ENDCHAR
STARTCHAR Aring.salt_v
ENCODING 57843
SWIDTH 1000 0
DWIDTH 16 0
BBX 12 17 2 -2
BITMAP
0FC0
17A0
3B60
7B60
64A0
6790
4850
D330
D330
D030
DFF0
D030
D330
D330
C310
FFE0
F3C0
ENDCHAR
STARTCHAR Amacron.salt_v
ENCODING 57844
SWIDTH 1000 0
DWIDTH 16 0
BBX 12 16 2 -2
BITMAP
1FE0
37A0
7FC0
6020
2790
4850
D330
D330
D030
DFF0
D030
D330
D330
C310
FFE0
F3C0
ENDCHAR
STARTCHAR Abreve.salt_v
ENCODING 57845
SWIDTH 1000 0
DWIDTH 16 0
BBX 12 17 2 -2
BITMAP
1FE0
3860
77A0
7FC0
2020
2790
4850
D330
D330
D030
DFF0
D030
D330
D330
C310
FFE0
F3C0
ENDCHAR
STARTCHAR Aogonek.salt_v
ENCODING 57846
SWIDTH 1000 0
DWIDTH 16 0
BBX 12 16 2 -5
BITMAP
1FE0
2790
4850
D330
D330
D030
DFF0
D030
D330
D350
C350
FF60
F350
0310
03E0
03C0
ENDCHAR
STARTCHAR E.salt_v
ENCODING 57847
SWIDTH 1000 0
DWIDTH 16 0
BBX 12 14 2 -2
BITMAP
1FF0
23D0
4C10
CBF0
CBC0
C820
CFA0
C820
CBE0
C810
E7D0
F010
7FE0
3FC0
ENDCHAR
STARTCHAR Egrave.salt_v
ENCODING 57848
SWIDTH 1000 0
DWIDTH 16 0
BBX 12 17 2 -2
BITMAP
1FC0
3720
70A0
7FE0
3010
27D0
4810
CBE0
C820
CFA0
C820
CBE0
C810
E7D0
F010
7FE0
3FC0
ENDCHAR
STARTCHAR Eacute.salt_v
ENCODING 57849
SWIDTH 1000 0
DWIDTH 16 0
BBX 12 17 2 -2
BITMAP
0FE0
13A0
3420
7FE0
7010
27D0
4810
CBE0
C820
CFA0
C820
CBE0
C810
E7D0
F010
7FE0
3FC0
ENDCHAR
STARTCHAR Ecircumflex.salt_v
ENCODING 57850
SWIDTH 1000 0
DWIDTH 16 0
BBX 12 17 2 -2
BITMAP
0FC0
17A0
3020
7FE0
7010
27D0
4810
CBE0
C820
CFA0
C820
CBE0
C810
E7D0
F010
7FE0
3FC0
ENDCHAR
STARTCHAR Edieresis.salt_v
ENCODING 57851
SWIDTH 1000 0
DWIDTH 16 0
BBX 12 17 2 -2
BITMAP
1FE0
2120
6120
7FE0
7010
27D0
4810
CBE0
C820
CFA0
C820
CBE0
C810
E7D0
F010
7FE0
3FC0
ENDCHAR
STARTCHAR Emacron.salt_v
ENCODING 57852
SWIDTH 1000 0
DWIDTH 16 0
BBX 12 16 2 -2
BITMAP
1FE0
37A0
7FE0
7010
27D0
4810
CBE0
C820
CFA0
C820
CBE0
C810
E7D0
F010
7FE0
3FC0
ENDCHAR
STARTCHAR Ebreve.salt_v
ENCODING 57853
SWIDTH 1000 0
DWIDTH 16 0
BBX 12 17 2 -2
BITMAP
1FE0
3860
77A0
7FE0
3010
27D0
4810
CBE0
C820
CFA0
C820
CBE0
C810
E7D0
F010
7FE0
3FC0
ENDCHAR
STARTCHAR Edotaccent.salt_v
ENCODING 57854
SWIDTH 1000 0
DWIDTH 16 0
BBX 12 17 2 -2
BITMAP
0780
0980
1880
1FE0
1010
27D0
4810
CBE0
C820
CFA0
C820
CBE0
C810
E7D0
F010
7FE0
3FC0
ENDCHAR
STARTCHAR Eogonek.salt_v
ENCODING 57855
SWIDTH 1000 0
DWIDTH 16 0
BBX 12 16 2 -4
BITMAP
1FF0
23D0
4C10
CBE0
C820
CFA0
C820
CBC0
C830
CF90
E050
FF60
7F50
0310
07E0
03C0
ENDCHAR
STARTCHAR Ecaron.salt_v
ENCODING 57856
SWIDTH 1000 0
DWIDTH 16 0
BBX 12 17 2 -2
BITMAP
1FE0
34A0
7320
7FE0
3010
27D0
4810
CBE0
C820
CFA0
C820
CBE0
C810
E7D0
F010
7FE0
3FC0
ENDCHAR
STARTCHAR I.salt_v
ENCODING 57857
SWIDTH 1000 0
DWIDTH 16 0
BBX 6 14 5 -2
BITMAP
3C
44
CC
CC
CC
CC
CC
CC
CC
CC
CC
C4
F8
F0
ENDCHAR
STARTCHAR I_I.salt_v
ENCODING 57858
SWIDTH 1000 0
DWIDTH 16 0
BBX 12 14 2 -2
BITMAP
3CF0
4510
CB30
CB30
CB30
CB30
CB30
CB30
CB30
CB30
CB30
C310
FFE0
F3C0
ENDCHAR
STARTCHAR Igrave.salt_v
ENCODING 57859
SWIDTH 1000 0
DWIDTH 16 0
BBX 10 17 3 -2
BITMAP
3F80
6E40
E140
FF80
7080
1300
3300
3300
3300
3300
3300
3300
3300
3300
3100
3E00
3C00
ENDCHAR
STARTCHAR Iacute.salt_v
ENCODING 57860
SWIDTH 1000 0
DWIDTH 16 0
BBX 10 17 3 -2
BITMAP
1FC0
2740
6840
FF80
F100
1300
3300
3300
3300
3300
3300
3300
3300
3300
3100
3E00
3C00
ENDCHAR
STARTCHAR Icircumflex.salt_v
ENCODING 57861
SWIDTH 1000 0
DWIDTH 16 0
BBX 10 17 3 -2
BITMAP
1F80
2F40
6040
FF80
F080
1300
3300
3300
3300
3300
3300
3300
3300
3300
3100
3E00
3C00
ENDCHAR
STARTCHAR Idieresis.salt_v
ENCODING 57862
SWIDTH 1000 0
DWIDTH 16 0
BBX 10 17 3 -2
BITMAP
3FC0
4240
C240
FFC0
F080
1300
3300
3300
3300
3300
3300
3300
3300
3300
3100
3E00
3C00
ENDCHAR
STARTCHAR Itilde.salt_v
ENCODING 57863
SWIDTH 1000 0
DWIDTH 16 0
BBX 10 17 3 -2
BITMAP
1F80
2C40
6340
FE80
F100
1300
3300
3300
3300
3300
3300
3300
3300
3300
3100
3E00
3C00
ENDCHAR
STARTCHAR Imacron.salt_v
ENCODING 57864
SWIDTH 1000 0
DWIDTH 16 0
BBX 10 16 3 -2
BITMAP
3FC0
6F40
FF80
F100
1300
3300
3300
3300
3300
3300
3300
3300
3300
3100
3E00
3C00
ENDCHAR
STARTCHAR Ibreve.salt_v
ENCODING 57865
SWIDTH 1000 0
DWIDTH 16 0
BBX 10 17 3 -2
BITMAP
3FC0
70C0
EF40
FF80
7100
1300
3300
3300
3300
3300
3300
3300
3300
3300
3100
3E00
3C00
ENDCHAR
STARTCHAR Iogonek.salt_v
ENCODING 57866
SWIDTH 1000 0
DWIDTH 16 0
BBX 6 16 5 -5
BITMAP
3C
4C
CC
CC
CC
CC
CC
CC
CC
CC
D4
D4
DC
C4
F8
F0
ENDCHAR
STARTCHAR Idotaccent.salt_v
ENCODING 57867
SWIDTH 1000 0
DWIDTH 16 0
BBX 6 17 5 -2
BITMAP
3C
4C
C4
FC
C4
4C
CC
CC
CC
CC
CC
CC
CC
CC
C4
F8
F0
ENDCHAR
STARTCHAR L.salt_v
ENCODING 57868
SWIDTH 1000 0
DWIDTH 16 0
BBX 12 14 2 -2
BITMAP
3C00
4400
CC00
CC00
CC00
CC00
CC00
CC00
CFE0
C810
CFD0
C010
FFE0
FFC0
ENDCHAR
STARTCHAR Lacute.salt_v
ENCODING 57869
SWIDTH 1000 0
DWIDTH 16 0
BBX 12 17 2 -2
BITMAP
3F80
4F40
C080
FF00
C200
4C00
CC00
CC00
CC00
CC00
CC00
CFE0
C810
CFD0
C010
FFE0
FFC0
ENDCHAR
STARTCHAR Lcommaaccent.salt_v
ENCODING 57870
SWIDTH 1000 0
DWIDTH 16 0
BBX 12 19 2 -7
BITMAP
3C00
4400
CC00
CC00
CC00
CC00
CC00
CC00
CBF0
CFD0
C010
FFE0
F840
0B80
1880
1F80
1980
1E00
1C00
ENDCHAR
STARTCHAR Lcaron.salt_v
ENCODING 57871
SWIDTH 1000 0
DWIDTH 16 0
BBX 13 14 2 -2
BITMAP
3C78
44C8
CDA8
CD88
CD88
CDF0
CDC0
CC00
CFE0
C810
CFD0
C010
FFE0
FFC0
ENDCHAR
STARTCHAR Ldot.salt_v
ENCODING 57872
SWIDTH 1000 0
DWIDTH 16 0
BBX 12 17 2 -5
BITMAP
3C00
4400
CC00
CC00
CC00
CC00
CC00
CC00
CBF0
CFD0
C010
FFE0
F8C0
1280
3080
3900
3E00
ENDCHAR
STARTCHAR Lslash.salt_v
ENCODING 57873
SWIDTH 1000 0
DWIDTH 16 0
BBX 13 14 1 -2
BITMAP
1E00
2200
6600
6700
6480
4E80
C480
E500
E7F0
6408
67E8
6008
7FF0
7FE0
ENDCHAR
STARTCHAR L.salt_s_v
ENCODING 57874
SWIDTH 1000 0
DWIDTH 16 0
BBX 12 13 2 -2
BITMAP
7C00
4C00
CC00
CC00
CC00
CC00
CC00
CFE0
C810
CFD0
C010
FFE0
FFC0
ENDCHAR
STARTCHAR M.salt_v
ENCODING 57875
SWIDTH 1000 0
DWIDTH 16 0
BBX 14 14 1 -2
BITMAP
1FF8
2664
6994
D4AC
D6AC
D6AC
D6AC
D6AC
D6AC
D6AC
D6AC
C624
FFF8
FFF0
ENDCHAR
STARTCHAR N.salt_v
ENCODING 57876
SWIDTH 1000 0
DWIDTH 16 0
BBX 12 14 2 -2
BITMAP
1FE0
2790
4850
CB50
CB50
CB50
CB50
CB50
CB50
CB50
CB50
C310
FFE0
F3C0
ENDCHAR
STARTCHAR Ntilde.salt_v
ENCODING 57877
SWIDTH 1000 0
DWIDTH 16 0
BBX 12 17 2 -2
BITMAP
0FC0
1620
31A0
7FC0
6020
2790
4850
CB50
CB50
CB50
CB50
CB50
CB50
CB50
C310
FFE0
F3C0
ENDCHAR
STARTCHAR Nacute.salt_v
ENCODING 57878
SWIDTH 1000 0
DWIDTH 16 0
BBX 12 17 2 -2
BITMAP
0FE0
13A0
3420
7FC0
6020
2790
4850
CB50
CB50
CB50
CB50
CB50
CB50
CB50
C310
FFE0
F3C0
ENDCHAR
STARTCHAR Ncommaaccent.salt_v
ENCODING 57879
SWIDTH 1000 0
DWIDTH 16 0
BBX 12 17 2 -5
BITMAP
1FE0
2790
4850
C950
CB50
CB50
CB50
CB50
CB50
C310
FFE0
FB40
1880
1F80
1880
1F00
1C00
ENDCHAR
STARTCHAR Ncaron.salt_v
ENCODING 57880
SWIDTH 1000 0
DWIDTH 16 0
BBX 12 17 2 -2
BITMAP
1FE0
34A0
7320
7FC0
2020
2790
4850
CB50
CB50
CB50
CB50
CB50
CB50
CB50
C310
FFE0
F3C0
ENDCHAR
STARTCHAR W.salt_v
ENCODING 57881
SWIDTH 1000 0
DWIDTH 16 0
BBX 14 14 1 -2
BITMAP
3FFC
4624
D6AC
D6AC
D6AC
D6AC
D6AC
D6AC
D6AC
C914
EFF4
E088
7FF0
7FE0
ENDCHAR
STARTCHAR Wcircumflex.salt_v
ENCODING 57882
SWIDTH 1000 0
DWIDTH 16 0
BBX 14 17 1 -2
BITMAP
07E0
0BD0
1810
3FF8
2624
56AC
D6AC
D6AC
D6AC
D6AC
D6AC
D6AC
C914
EFF4
E088
7FF0
7FE0
ENDCHAR
STARTCHAR Wgrave.salt_v
ENCODING 57883
SWIDTH 1000 0
DWIDTH 16 0
BBX 14 17 1 -2
BITMAP
0FE0
1B90
3850
3FF8
2624
56AC
D6AC
D6AC
D6AC
D6AC
D6AC
D6AC
C914
EFF4
E088
7FF0
7FE0
ENDCHAR
STARTCHAR Wacute.salt_v
ENCODING 57884
SWIDTH 1000 0
DWIDTH 16 0
BBX 14 17 1 -2
BITMAP
07F0
09D0
1A10
3FF8
2624
56AC
D6AC
D6AC
D6AC
D6AC
D6AC
D6AC
C914
EFF4
E088
7FF0
7FE0
ENDCHAR
STARTCHAR Wdieresis.salt_v
ENCODING 57885
SWIDTH 1000 0
DWIDTH 16 0
BBX 14 17 1 -2
BITMAP
0FF0
1090
3090
3FF8
2624
56AC
D6AC
D6AC
D6AC
D6AC
D6AC
D6AC
C914
EFF4
E088
7FF0
7FE0
ENDCHAR
STARTCHAR X.salt_v
ENCODING 57886
SWIDTH 1100 0
DWIDTH 18 0
BBX 12 14 3 -2
BITMAP
3CF0
4310
EB50
EA60
6AA0
4490
4B50
D050
D350
D350
D350
C710
FBE0
F3C0
ENDCHAR
STARTCHAR Y.salt_v
ENCODING 57887
SWIDTH 1000 0
DWIDTH 16 0
BBX 12 14 2 -2
BITMAP
3CF0
4510
CB30
CB30
CB30
CB50
C850
E790
F120
7940
1980
1880
1F00
1E00
ENDCHAR
STARTCHAR Yacute.salt_v
ENCODING 57888
SWIDTH 1000 0
DWIDTH 16 0
BBX 12 17 2 -2
BITMAP
0FE0
13A0
3420
7FE0
4310
4D30
CB30
CB30
CB30
C850
E790
F120
7940
3980
1880
1F00
1E00
ENDCHAR
STARTCHAR Ycircumflex.salt_v
ENCODING 57889
SWIDTH 1000 0
DWIDTH 16 0
BBX 12 17 2 -2
BITMAP
0FC0
17A0
3020
7FE0
4310
4D30
CB30
CB30
CB30
C850
E790
F120
7940
3980
1880
1F00
1E00
ENDCHAR
STARTCHAR Ydieresis.salt_v
ENCODING 57890
SWIDTH 1000 0
DWIDTH 16 0
BBX 12 17 2 -2
BITMAP
1FE0
2120
6120
7FE0
4310
4D30
CB30
CB30
CB30
C850
E790
F120
7940
3980
1880
1F00
1E00
ENDCHAR
STARTCHAR Ygrave.salt_v
ENCODING 57891
SWIDTH 1000 0
DWIDTH 16 0
BBX 12 17 2 -2
BITMAP
1FC0
3720
70A0
7FE0
4310
4D30
CB30
CB30
CB30
C850
E790
F120
7940
3980
1880
1F00
1E00
ENDCHAR
STARTCHAR AE.salt_v
ENCODING 57892
SWIDTH 1000 0
DWIDTH 16 0
BBX 12 14 2 -2
BITMAP
1FF0
2770
4890
D6B0
D6A0
D690
D0F0
DF10
D0A0
D690
D6F0
C610
FFF0
E7C0
ENDCHAR
STARTCHAR IJ.salt_v
ENCODING 57893
SWIDTH 1000 0
DWIDTH 16 0
BBX 12 26 2 -8
BITMAP
0F80
0980
1980
1980
1980
1980
1980
1980
1980
1980
1880
1F00
1E60
0190
0130
0330
0330
3F30
4330
D330
D330
C850
E790
E020
7FC0
3F00
ENDCHAR
STARTCHAR IJ.stack_v
ENCODING 57894
SWIDTH 1000 0
DWIDTH 16 0
BBX 12 26 2 -8
BITMAP
3FF0
4ED0
C110
E110
F960
1940
1940
1940
2130
4FD0
C010
FFE0
FFE0
0110
0350
0350
0350
3F50
4350
D350
D350
C850
E790
F020
7FC0
3F00
ENDCHAR
STARTCHAR commaaccent.v
ENCODING 57895
SWIDTH 1000 0
DWIDTH 16 0
BBX 6 6 5 -7
BITMAP
7C
DC
F4
CC
78
F0
ENDCHAR
STARTCHAR hyphen.v
ENCODING 57896
SWIDTH 1000 0
DWIDTH 16 0
BBX 6 8 5 1
BITMAP
3C
44
CC
CC
C4
C4
F8
F0
ENDCHAR
STARTCHAR endash.v
ENCODING 57897
SWIDTH 1000 0
DWIDTH 16 0
BBX 6 12 5 -1
BITMAP
3C
44
CC
CC
CC
CC
CC
CC
CC
C4
F8
F0
ENDCHAR
STARTCHAR emdash.v
ENCODING 57898
SWIDTH 1000 0
DWIDTH 16 0
BBX 6 18 5 -4
BITMAP
3C
44
CC
CC
CC
CC
CC
CC
CC
CC
CC
CC
CC
CC
CC
C4
F8
F0
ENDCHAR
STARTCHAR parenleft.v
ENCODING 57899
SWIDTH 1000 0
DWIDTH 16 0
BBX 16 8 0 1
BITMAP
1FFE
2001
4FFD
D003
C7F9
C7F9
F81E
E01C
ENDCHAR
STARTCHAR parenright.v
ENCODING 57900
SWIDTH 1000 0
DWIDTH 16 0
BBX 16 8 0 1
BITMAP
3807
4409
D3F3
D803
C7FD
F002
FFFC
7FF0
ENDCHAR
STARTCHAR bracketleft.v
ENCODING 57901
SWIDTH 1000 0
DWIDTH 16 0
BBX 16 8 0 1
BITMAP
3FFF
4001
DFFF
D003
C7F9
C7F9
F81E
E01C
ENDCHAR
STARTCHAR bracketright.v
ENCODING 57902
SWIDTH 1000 0
DWIDTH 16 0
BBX 16 8 0 1
BITMAP
3807
4409
D3F3
D003
CFFD
C001
FFFE
FFFC
ENDCHAR
STARTCHAR braceleft.v
ENCODING 57903
SWIDTH 1000 0
DWIDTH 16 0
BBX 16 8 0 1
BITMAP
01E0
1EDE
2739
5847
D043
C7F9
FCFF
F01E
ENDCHAR
STARTCHAR braceright.v
ENCODING 57904
SWIDTH 1000 0
DWIDTH 16 0
BBX 16 8 0 1
BITMAP
7C0F
C7B9
D043
CF3D
E0C1
FE1E
7FF8
0780
ENDCHAR
STARTCHAR quoteleft.v
ENCODING 57905
SWIDTH 1000 0
DWIDTH 16 0
BBX 6 8 5 1
BITMAP
3C
4C
DC
D4
DC
C4
FC
F8
ENDCHAR
STARTCHAR quoteright.v
ENCODING 57906
SWIDTH 1000 0
DWIDTH 16 0
BBX 6 8 5 1
BITMAP
7C
DC
C4
C4
FC
D4
F8
F0
ENDCHAR
STARTCHAR quotedblleft.v
ENCODING 57907
SWIDTH 1000 0
DWIDTH 16 0
BBX 12 8 2 1
BITMAP
1EF0
2F70
5E60
D190
DD70
C110
FFE0
FFC0
ENDCHAR
STARTCHAR quotedblright.v
ENCODING 57908
SWIDTH 1000 0
DWIDTH 16 0
BBX 12 8 2 1
BITMAP
3FF0
5D70
C530
C530
F9F0
FB50
FFE0
F780
ENDCHAR
STARTCHAR quotesinglbase.v
ENCODING 57909
SWIDTH 1000 0
DWIDTH 16 0
BBX 6 9 5 0
BITMAP
3C
44
DC
C4
F4
DC
C8
F0
C0
ENDCHAR
STARTCHAR quotedblbase.v
ENCODING 57910
SWIDTH 1000 0
DWIDTH 16 0
BBX 12 8 2 1
BITMAP
3FF0
5D70
C530
C530
F9F0
FB50
FFE0
F780
ENDCHAR
STARTCHAR guilsinglleft.v
ENCODING 57911
SWIDTH 1000 0
DWIDTH 16 0
BBX 10 9 3 1
BITMAP
0F00
1080
2F40
6940
6B40
4AC0
C640
FFC0
F780
ENDCHAR
STARTCHAR guilsinglright.v
ENCODING 57912
SWIDTH 1000 0
DWIDTH 16 0
BBX 10 9 3 0
BITMAP
7FC0
D6C0
EB40
EB40
E940
6680
7180
7E00
3C00
ENDCHAR
STARTCHAR guillemotleft.v
ENCODING 57913
SWIDTH 1000 0
DWIDTH 16 0
BBX 10 14 3 -2
BITMAP
0F00
1080
2F40
6940
6AC0
C640
F980
E680
2940
6B40
4AC0
C640
FF80
E700
ENDCHAR
STARTCHAR guillemotright.v
ENCODING 57914
SWIDTH 1000 0
DWIDTH 16 0
BBX 10 14 3 -2
BITMAP
39C0
4640
EAC0
E940
E640
7080
4F40
4640
EAC0
E940
E680
7080
7F00
3C00
ENDCHAR
STARTCHAR period.v
ENCODING 57915
SWIDTH 1000 0
DWIDTH 16 0
BBX 6 7 5 2
BITMAP
3C
44
CC
CC
C4
FC
F0
ENDCHAR
STARTCHAR comma.v
ENCODING 57916
SWIDTH 1000 0
DWIDTH 16 0
BBX 6 9 5 0
BITMAP
3C
44
DC
C4
F4
DC
C8
F0
C0
ENDCHAR
STARTCHAR ellipsis.v
ENCODING 57917
SWIDTH 1000 0
DWIDTH 16 0
BBX 18 7 -1 2
BITMAP
3CF3C0
430C40
CB2D40
CB2D40
C30C40
FFFF80
FBDF00
ENDCHAR
STARTCHAR exclamdown.v
ENCODING 57918
SWIDTH 1000 0
DWIDTH 16 0
BBX 6 14 5 -2
BITMAP
7C
44
CC
C4
F8
C4
CC
CC
CC
CC
C4
C4
FC
F0
ENDCHAR
STARTCHAR questiondown.v
ENCODING 57919
SWIDTH 1000 0
DWIDTH 16 0
BBX 12 14 2 -2
BITMAP
03E0
0420
0CA0
0C20
0BC0
1020
27A0
68C0
EBE0
E810
E7D0
F010
7FE0
3FC0
ENDCHAR
STARTCHAR dagger.v
ENCODING 57920
SWIDTH 1000 0
DWIDTH 16 0
BBX 12 14 2 -2
BITMAP
0780
0880
39A0
4150
CFF0
C110
FD70
F960
1980
1980
1980
1880
1F00
1E00
ENDCHAR
STARTCHAR daggerdbl.v
ENCODING 57921
SWIDTH 1000 0
DWIDTH 16 0
BBX 12 14 2 -2
BITMAP
0780
38E0
4110
CFF0
C510
F960
F960
4510
CFF0
C110
F970
F860
1F80
1E00
ENDCHAR
STARTCHAR perthousand.v
ENCODING 57922
SWIDTH 1000 0
DWIDTH 16 0
BBX 15 14 1 -2
BITMAP
3E70
5D90
ED60
EDC0
E540
D998
FA66
F5FE
15B6
2DB6
756E
4C92
FFFC
CFF0
ENDCHAR
STARTCHAR ampersand.salt_v
ENCODING 57923
SWIDTH 1000 0
DWIDTH 16 0
BBX 12 16 2 -3
BITMAP
07C0
0930
13D0
2410
65F0
65E0
7420
4BA0
5020
D3E0
C810
C7D0
E110
FC60
7FC0
0F00
ENDCHAR
STARTCHAR quoteleft.salt_v
ENCODING 57924
SWIDTH 1000 0
DWIDTH 16 0
BBX 6 6 2 2
BITMAP
3C
58
D4
CC
F8
F0
ENDCHAR
STARTCHAR quoteright.salt_v
ENCODING 57925
SWIDTH 1000 0
DWIDTH 16 0
BBX 6 6 2 2
BITMAP
7C
5C
FC
C8
F8
E0
ENDCHAR
STARTCHAR A.s_v
ENCODING 57926
SWIDTH 1000 0
DWIDTH 16 0
BBX 12 13 2 -2
BITMAP
1FC0
1320
24A0
6950
6B50
4B50
D030
DFF0
D330
D330
C310
FFE0
F3C0
ENDCHAR
STARTCHAR C.s_v
ENCODING 57927
SWIDTH 1000 0
DWIDTH 16 0
BBX 12 13 2 -2
BITMAP
1FF0
27D0
4810
D3E0
D3C0
D400
D400
D7E0
C810
E3D0
F010
7FE0
3FC0
ENDCHAR
STARTCHAR D.s_v
ENCODING 57928
SWIDTH 1000 0
DWIDTH 16 0
BBX 12 13 2 -2
BITMAP
7FE0
4F90
C850
CB30
CB30
CB30
CB30
CB30
C850
CF10
C020
FFC0
FF00
ENDCHAR
STARTCHAR E.s_v
ENCODING 57929
SWIDTH 1000 0
DWIDTH 16 0
BBX 12 13 2 -2
BITMAP
7FF0
4FD0
C810
CBE0
C820
CFA0
C820
CBE0
C810
CFD0
C010
FFE0
FFC0
ENDCHAR
STARTCHAR G.s_v
ENCODING 57930
SWIDTH 1000 0
DWIDTH 16 0
BBX 12 13 2 -2
BITMAP
1FE0
27A0
4820
D3C0
D380
D4F0
D530
D330
C830
E7D0
F010
7FE0
3FC0
ENDCHAR
STARTCHAR H.s_v
ENCODING 57931
SWIDTH 1000 0
DWIDTH 16 0
BBX 12 13 2 -2
BITMAP
7DF0
4D30
CB30
CB30
C830
CFD0
C830
CB30
CB30
CB30
C310
FFE0
F3C0
ENDCHAR
STARTCHAR I.s_v
ENCODING 57932
SWIDTH 1000 0
DWIDTH 16 0
BBX 12 13 2 -2
BITMAP
3FF0
4FD0
C110
F960
F940
1940
1940
1960
2110
4FD0
C010
FFE0
FFC0
ENDCHAR
STARTCHAR J.s_v
ENCODING 57933
SWIDTH 1000 0
DWIDTH 16 0
BBX 12 13 2 -2
BITMAP
01F0
0150
0350
0350
3F50
4350
D350
D350
C850
E790
E020
7FC0
3F00
ENDCHAR
STARTCHAR K.s_v
ENCODING 57934
SWIDTH 1000 0
DWIDTH 16 0
BBX 12 13 2 -2
BITMAP
7DF0
4A50
CAA0
CAA0
C910
CF90
C850
CB30
CB30
CB30
C310
FFE0
F3C0
ENDCHAR
STARTCHAR L.s_v
ENCODING 57935
SWIDTH 1000 0
DWIDTH 16 0
BBX 12 13 2 -2
BITMAP
7C00
4C00
CC00
CC00
CC60
CC90
CD30
CB30
C830
CFD0
C010
FFE0
FFC0
ENDCHAR
STARTCHAR N.s_v
ENCODING 57936
SWIDTH 1000 0
DWIDTH 16 0
BBX 12 13 2 -2
BITMAP
7CF0
4B30
C930
CCB0
CA30
C930
CAB0
CA50
CB30
CB30
C310
FFE0
F3C0
ENDCHAR
STARTCHAR O.s_v
ENCODING 57937
SWIDTH 1000 0
DWIDTH 16 0
BBX 12 13 2 -2
BITMAP
1FE0
2790
4850
D330
D330
D330
D330
D330
C850
C790
E020
7FC0
3F80
ENDCHAR
STARTCHAR R.s_v
ENCODING 57938
SWIDTH 1000 0
DWIDTH 16 0
BBX 12 13 2 -2
BITMAP
7FE0
4FA0
C850
CB50
CB60
C850
CFD0
C830
CB30
CB30
C310
FFE0
F3C0
ENDCHAR
STARTCHAR S.s_v
ENCODING 57939
SWIDTH 1000 0
DWIDTH 16 0
BBX 12 13 2 -2
BITMAP
1FF0
27D0
4810
CBE0
C820
C790
E050
FF30
4050
4F90
C020
FFC0
FF00
ENDCHAR
STARTCHAR T.s_v
ENCODING 57940
SWIDTH 1000 0
DWIDTH 16 0
BBX 12 13 2 -2
BITMAP
7FF0
4FD0
C110
F960
F940
1940
1940
1940
1940
1940
1840
1F80
1E00
ENDCHAR
STARTCHAR U.s_v
ENCODING 57941
SWIDTH 1000 0
DWIDTH 16 0
BBX 12 13 2 -2
BITMAP
7DF0
4D30
CB30
CB30
CB30
CB30
CB30
CB30
C850
E790
E020
7FC0
3F00
ENDCHAR
STARTCHAR W.s_v
ENCODING 57942
SWIDTH 1000 0
DWIDTH 16 0
BBX 12 13 2 -2
BITMAP
7CF0
D5B0
D5B0
D6B0
D4B0
D5B0
D330
D4B0
CDB0
EB50
E310
FFE0
7380
ENDCHAR
STARTCHAR Y.s_v
ENCODING 57943
SWIDTH 1000 0
DWIDTH 16 0
BBX 12 13 2 -2
BITMAP
7CF0
4D30
CB30
CB30
C950
E490
F6A0
7140
3940
3980
1880
1F00
1E00
ENDCHAR
STARTCHAR Z.s_v
ENCODING 57944
SWIDTH 1000 0
DWIDTH 16 0
BBX 12 13 2 -2
BITMAP
3FF0
4FD0
C030
FE50
FCA0
0B40
1480
29E0
5010
CFD0
C010
FFE0
FFC0
ENDCHAR
STARTCHAR A.salt_s_v
ENCODING 57945
SWIDTH 1000 0
DWIDTH 16 0
BBX 12 13 2 -2
BITMAP
1FE0
2790
4850
D330
D330
D030
DFF0
D030
D330
D330
C310
FFE0
F3C0
ENDCHAR
STARTCHAR E.salt_s_v
ENCODING 57946
SWIDTH 1000 0
DWIDTH 16 0
BBX 12 13 2 -2
BITMAP
1FF0
27D0
4810
CBE0
C820
CFA0
C820
CBE0
C810
E7D0
F010
7FE0
3FC0
ENDCHAR
STARTCHAR I.salt_s_v
ENCODING 57947
SWIDTH 1000 0
DWIDTH 16 0
BBX 6 13 5 -2
BITMAP
7C
4C
CC
CC
CC
CC
CC
CC
CC
CC
C4
F8
F0
ENDCHAR
STARTCHAR N.salt_s_v
ENCODING 57948
SWIDTH 1000 0
DWIDTH 16 0
BBX 12 13 2 -2
BITMAP
1FE0
2790
4850
CB50
CB50
CB50
CB50
CB50
CB50
CB50
C310
FFE0
F3C0
ENDCHAR
STARTCHAR W.salt_s_v
ENCODING 57949
SWIDTH 1000 0
DWIDTH 16 0
BBX 14 13 1 -2
BITMAP
3FFC
56AC
D6AC
D6AC
D6AC
D6AC
D6AC
D6AC
C914
EFF4
E088
7FF0
7FE0
ENDCHAR
STARTCHAR Y.salt_s_v
ENCODING 57950
SWIDTH 1000 0
DWIDTH 16 0
BBX 12 13 2 -2
BITMAP
7DF0
4D30
CB30
CB30
CB30
C850
E790
F120
7940
3980
1880
1F00
1E00
ENDCHAR
STARTCHAR uniF6C3
ENCODING 63171
SWIDTH 600 0
DWIDTH 10 0
BBX 6 7 2 -7
BITMAP
3C
54
CC
FC
D4
F8
F0
ENDCHAR
STARTCHAR fi
ENCODING 64257
SWIDTH 1423 0
DWIDTH 23 0
BBX 21 14 1 -2
BITMAP
7FEFF8
C02808
CFB9F8
D3DE58
D39E50
D04650
CF4650
D04650
D38658
D20848
C419F8
C41808
F81FF0
F01FE0
ENDCHAR
STARTCHAR fl
ENCODING 64258
SWIDTH 1513 0
DWIDTH 24 0
BBX 23 14 1 -2
BITMAP
7FE7C0
C02840
CFB940
D3D940
D39940
D0595E
CF5962
D0596A
D3996A
D2190A
C419FA
C41802
F81FFC
F01FF8
ENDCHAR
STARTCHAR exclam.v
ENCODING 65281
SWIDTH 1000 0
DWIDTH 16 0
BBX 6 14 5 -2
BITMAP
7C
44
CC
CC
CC
CC
CC
C4
FC
C4
CC
C4
FC
F0
ENDCHAR
STARTCHAR quotedbl.v
ENCODING 65282
SWIDTH 1000 0
DWIDTH 16 0
BBX 12 8 2 1
BITMAP
3FF0
6110
E950
EB50
EB50
6310
7FE0
7BC0
ENDCHAR
STARTCHAR percent.v
ENCODING 65285
SWIDTH 1000 0
DWIDTH 16 0
BBX 12 14 2 -2
BITMAP
3E70
5D90
DB60
DBA0
D2C0
CDE0
FE10
FAF0
1750
3B50
2EB0
4E50
77E0
E7C0
ENDCHAR
STARTCHAR ampersand.v
ENCODING 65286
SWIDTH 1000 0
DWIDTH 16 0
BBX 13 14 2 -2
BITMAP
0FC0
1340
2440
6980
6900
7578
4A88
50A8
D3A8
D030
CFD0
E020
FFC0
7F80
ENDCHAR
STARTCHAR quotesingle.v
ENCODING 65287
SWIDTH 1000 0
DWIDTH 16 0
BBX 6 8 5 1
BITMAP
7C
44
CC
CC
CC
C4
F8
F0
ENDCHAR
STARTCHAR asterisk.v
ENCODING 65290
SWIDTH 1000 0
DWIDTH 16 0
BBX 12 11 2 0
BITMAP
0780
0C80
3DF0
6910
46D0
FB60
F4A0
2110
3320
7FC0
3300
ENDCHAR
STARTCHAR zero.v
ENCODING 65296
SWIDTH 1000 0
DWIDTH 16 0
BBX 12 14 2 -2
BITMAP
1FE0
2790
4850
CB30
CB30
CB30
CB30
CB30
CB30
C850
E790
E020
7FC0
3F00
ENDCHAR
STARTCHAR one.v
ENCODING 65297
SWIDTH 1000 0
DWIDTH 16 0
BBX 12 14 2 -2
BITMAP
3FC0
6640
E140
E140
F940
1940
1940
1940
3960
4110
C7D0
C010
FFE0
FFC0
ENDCHAR
STARTCHAR two.v
ENCODING 65298
SWIDTH 1000 0
DWIDTH 16 0
BBX 12 14 2 -2
BITMAP
3FE0
6F90
E050
FF50
FE50
10D0
2710
4860
CBE0
C810
CFD0
C010
FFE0
FFC0
ENDCHAR
STARTCHAR three.v
ENCODING 65299
SWIDTH 1000 0
DWIDTH 16 0
BBX 12 14 2 -2
BITMAP
3FC0
4F20
C0A0
FE60
FE60
10A0
7750
7030
7F30
4030
CFD0
C020
FFC0
FF80
ENDCHAR
STARTCHAR four.v
ENCODING 65300
SWIDTH 1000 0
DWIDTH 16 0
BBX 12 14 2 -2
BITMAP
3CF0
4510
CB30
CB30
CB30
CB30
C830
CFF0
E030
FF30
7F30
0310
03E0
03C0
ENDCHAR
STARTCHAR five.v
ENCODING 65301
SWIDTH 1000 0
DWIDTH 16 0
BBX 12 14 2 -2
BITMAP
3FF0
47D0
C810
CBE0
CBE0
C810
C7D0
E030
FF30
4050
CF90
C020
FFC0
FF80
ENDCHAR
STARTCHAR six.v
ENCODING 65302
SWIDTH 1000 0
DWIDTH 16 0
BBX 12 14 2 -2
BITMAP
1FE0
27A0
4820
D3E0
D3E0
D310
CCD0
D330
D330
C830
C7D0
E020
7FC0
3F00
ENDCHAR
STARTCHAR seven.v
ENCODING 65303
SWIDTH 1000 0
DWIDTH 16 0
BBX 12 14 2 -2
BITMAP
3FF0
4FD0
C030
E030
FF30
0430
19D0
1610
34E0
3480
3500
3100
3E00
3C00
ENDCHAR
STARTCHAR eight.v
ENCODING 65304
SWIDTH 1000 0
DWIDTH 16 0
BBX 12 14 2 -2
BITMAP
1FE0
2790
2850
6B50
6B50
7860
4FD0
5330
D330
D030
CFD0
E030
FFC0
7F80
ENDCHAR
STARTCHAR nine.v
ENCODING 65305
SWIDTH 1000 0
DWIDTH 16 0
BBX 12 14 2 -2
BITMAP
1FE0
2790
4850
D330
D330
C850
C7B0
F0B0
FF30
2050
2790
6020
7FC0
7F00
ENDCHAR
STARTCHAR colon.v
ENCODING 65306
SWIDTH 1000 0
DWIDTH 16 0
BBX 6 13 5 -1
BITMAP
3C
44
CC
CC
C4
FC
FC
44
CC
CC
C4
FC
F0
ENDCHAR
STARTCHAR semicolon.v
ENCODING 65307
SWIDTH 1000 0
DWIDTH 16 0
BBX 6 14 5 -2
BITMAP
3C
44
CC
C4
C4
FC
C4
DC
C4
F4
CC
D4
F8
F0
ENDCHAR
STARTCHAR question.v
ENCODING 65311
SWIDTH 1000 0
DWIDTH 16 0
BBX 12 14 2 -2
BITMAP
3FE0
6010
EF90
E050
FF50
F050
3790
3020
3FC0
3100
3500
3100
3E00
3C00
ENDCHAR
STARTCHAR A.v
ENCODING 65313
SWIDTH 1000 0
DWIDTH 16 0
BBX 12 14 2 -2
BITMAP
0FC0
1320
34A0
26A0
6B50
4B50
4830
DFF0
D030
D330
D330
C310
FFE0
F3C0
ENDCHAR
STARTCHAR B.v
ENCODING 65314
SWIDTH 1000 0
DWIDTH 16 0
BBX 12 14 2 -2
BITMAP
3FC0
4720
C8A0
CB60
CB60
C8A0
CF50
CB30
CB30
C830
CFD0
C020
FFC0
FF80
ENDCHAR
STARTCHAR C.v
ENCODING 65315
SWIDTH 1000 0
DWIDTH 16 0
BBX 12 14 2 -2
BITMAP
1FF0
27D0
4810
C830
D3C0
D400
D400
D400
D7E0
C810
E3D0
F010
7FE0
3FC0
ENDCHAR
STARTCHAR D.v
ENCODING 65316
SWIDTH 1000 0
DWIDTH 16 0
BBX 12 14 2 -2
BITMAP
3FE0
4790
C850
CB30
CB30
CB30
CB30
CB30
CB30
C850
CF10
C020
FFC0
FF00
ENDCHAR
STARTCHAR E.v
ENCODING 65317
SWIDTH 1000 0
DWIDTH 16 0
BBX 12 14 2 -2
BITMAP
3FF0
47D0
C810
CBF0
CBC0
C820
CFA0
C820
CBE0
C810
CFD0
C010
FFE0
FFC0
ENDCHAR
STARTCHAR F.v
ENCODING 65318
SWIDTH 1000 0
DWIDTH 16 0
BBX 12 14 2 -2
BITMAP
3FF0
47D0
C810
CBF0
CBC0
C820
CFA0
C820
CBC0
CB80
CC00
C400
F800
F000
ENDCHAR
STARTCHAR G.v
ENCODING 65319
SWIDTH 1000 0
DWIDTH 16 0
BBX 12 14 2 -2
BITMAP
1FE0
27A0
4820
C820
D3C0
D4E0
D510
D330
D330
C830
E7D0
F010
7FE0
3FC0
ENDCHAR
STARTCHAR H.v
ENCODING 65320
SWIDTH 1000 0
DWIDTH 16 0
BBX 12 14 2 -2
BITMAP
3CF0
4510
CB30
CB30
C830
C830
CFF0
C830
CB30
CB30
CB30
C310
FFE0
F3C0
ENDCHAR
STARTCHAR I.v
ENCODING 65321
SWIDTH 1000 0
DWIDTH 16 0
BBX 12 14 2 -2
BITMAP
3FF0
4ED0
C110
E130
F940
1940
1940
1940
1960
2110
4FD0
C010
FFE0
FFC0
ENDCHAR
STARTCHAR J.v
ENCODING 65322
SWIDTH 1000 0
DWIDTH 16 0
BBX 12 14 2 -2
BITMAP
00F0
0110
0350
0350
0350
3F50
4350
D350
D350
C850
E790
E020
7FC0
3F00
ENDCHAR
STARTCHAR K.v
ENCODING 65323
SWIDTH 1000 0
DWIDTH 16 0
BBX 12 14 2 -2
BITMAP
3CF0
4510
CAA0
CAA0
CAA0
C910
CED0
C830
CB30
CB30
CB30
C310
FFE0
F3C0
ENDCHAR
STARTCHAR L.v
ENCODING 65324
SWIDTH 1000 0
DWIDTH 16 0
BBX 12 14 2 -2
BITMAP
3C00
4400
CC00
CC00
CC00
CCE0
CD10
CB30
CB30
C830
CFD0
C010
FFE0
FFC0
ENDCHAR
STARTCHAR M.v
ENCODING 65325
SWIDTH 1000 0
DWIDTH 16 0
BBX 12 14 2 -2
BITMAP
3CF0
4310
DB50
D6B0
D4B0
D330
D4B0
D4B0
D7B0
D7B0
D7B0
C790
FBF0
E3C0
ENDCHAR
STARTCHAR N.v
ENCODING 65326
SWIDTH 1000 0
DWIDTH 16 0
BBX 12 14 2 -2
BITMAP
3CF0
4310
C930
CD30
CA30
C930
CCB0
CAB0
CB50
CB30
CB30
C310
FFE0
F3C0
ENDCHAR
STARTCHAR O.v
ENCODING 65327
SWIDTH 1000 0
DWIDTH 16 0
BBX 12 14 2 -2
BITMAP
1FE0
2790
4850
CB30
D330
D330
D330
D330
D330
C850
C790
E020
7FC0
3F80
ENDCHAR
STARTCHAR P.v
ENCODING 65328
SWIDTH 1000 0
DWIDTH 16 0
BBX 12 14 2 -2
BITMAP
3FE0
4790
C850
CB30
CB30
CB30
C850
CF90
C820
CBC0
CB00
C400
F800
F000
ENDCHAR
STARTCHAR Q.v
ENCODING 65329
SWIDTH 1000 0
DWIDTH 16 0
BBX 12 15 2 -3
BITMAP
1FE0
2790
4850
CB30
D330
D330
D330
D330
D330
C850
E690
F120
7840
3F80
1F00
ENDCHAR
STARTCHAR R.v
ENCODING 65330
SWIDTH 1000 0
DWIDTH 16 0
BBX 12 14 2 -2
BITMAP
3FC0
4720
C890
CA50
CB50
C860
CFD0
C830
CB30
CB30
CB30
C310
FFE0
F3C0
ENDCHAR
STARTCHAR S.v
ENCODING 65331
SWIDTH 1000 0
DWIDTH 16 0
BBX 12 14 2 -2
BITMAP
1FF0
27D0
4810
CBE0
CBC0
C830
E7D0
F030
7F30
4050
CF90
C020
FFC0
FF00
ENDCHAR
STARTCHAR T.v
ENCODING 65332
SWIDTH 1000 0
DWIDTH 16 0
BBX 12 14 2 -2
BITMAP
3FF0
4ED0
C110
E110
F960
1940
1940
1940
1940
1940
1940
1840
1F80
1E00
ENDCHAR
STARTCHAR U.v
ENCODING 65333
SWIDTH 1000 0
DWIDTH 16 0
BBX 12 14 2 -2
BITMAP
3CF0
4510
CB30
CB30
CB30
CB30
CB30
CB30
CB30
C850
E790
E020
7FC0
3F00
ENDCHAR
STARTCHAR V.v
ENCODING 65334
SWIDTH 1000 0
DWIDTH 16 0
BBX 12 14 2 -2
BITMAP
3CF0
4510
D330
D330
D330
D330
CB50
EB50
E950
64A0
7320
7040
3F80
3F00
ENDCHAR
STARTCHAR W.v
ENCODING 65335
SWIDTH 1000 0
DWIDTH 16 0
BBX 12 14 2 -2
BITMAP
7CF0
4490
D5B0
D5B0
D6B0
D4B0
D5B0
D330
D4B0
CDB0
EB50
E310
FFE0
7380
ENDCHAR
STARTCHAR X.v
ENCODING 65336
SWIDTH 1100 0
DWIDTH 18 0
BBX 12 14 3 -2
BITMAP
3CF0
4510
D350
CA50
E8A0
F7A0
64A0
68A0
4B50
D350
D350
C710
FBE0
F3C0
ENDCHAR
STARTCHAR Y.v
ENCODING 65337
SWIDTH 1000 0
DWIDTH 16 0
BBX 12 14 2 -2
BITMAP
3CF0
4510
CB30
CB30
CB30
C950
E490
F320
7940
3980
3980
1880
1F00
1E00
ENDCHAR
STARTCHAR Z.v
ENCODING 65338
SWIDTH 1000 0
DWIDTH 16 0
BBX 12 14 2 -2
BITMAP
3FF0
4FD0
C030
E250
FC90
0920
0A40
1480
29E0
5010
CFD0
C010
FFE0
FFC0
ENDCHAR
STARTCHAR uni2B24.salt_v
ENCODING 65339
SWIDTH 1280 0
DWIDTH 20 0
BBX 18 18 1 -3
BITMAP
0FFE00
1FFF00
3FFF00
3FFF80
7FFF80
7FFFC0
FFFFC0
FFFFC0
FFFFC0
FFFFC0
FFFFC0
FFFFC0
7FFFC0
7FFFC0
7FFF80
3FFF80
1FFF00
1FFE00
ENDCHAR
STARTCHAR uni25DD.curve_v
ENCODING 65340
SWIDTH 1280 0
DWIDTH 20 0
BBX 17 18 2 -3
BITMAP
01FF00
1FFF80
3FFF80
7FFF80
FFFF80
FFFF80
FFFF80
FFFF80
FFFF80
FFFF80
FFFF80
FFFF80
FFFF80
FFFF80
FFFF80
FFFF80
FFFF80
FFFF80
ENDCHAR
STARTCHAR uni2B1B.trapezoid_e_v
ENCODING 65341
SWIDTH 1280 0
DWIDTH 20 0
BBX 17 19 2 -3
BITMAP
E00000
FF0000
FFF800
FFFF80
FFFF80
FFFF80
FFFF80
FFFF80
FFFF80
FFFF80
FFFF80
FFFF80
FFFF80
FFFF80
FFFF80
FFFF80
FFFF80
FFFF80
FFFF80
ENDCHAR
STARTCHAR uni2B1B.trapezoid_w_v
ENCODING 65342
SWIDTH 1280 0
DWIDTH 20 0
BBX 17 20 2 -5
BITMAP
FFFF80
FFFF80
FFFF80
FFFF80
FFFF80
FFFF80
FFFF80
FFFF80
FFFF80
FFFF80
FFFF80
FFFF80
FFFF80
FFFF80
FFFF80
FFFF80
FFFE00
FFC000
F80000
800000
ENDCHAR
STARTCHAR .notdef
ENCODING -1
SWIDTH 1100 0
DWIDTH 18 0
BBX 15 15 1 -3
BITMAP
3FFE
DFFE
E00E
E00E
E00E
E00E
E00E
E00E
E00E
E00E
E00E
E00E
FFF2
FFFC
7FF8
ENDCHAR
STARTCHAR one.sups
ENCODING -1
SWIDTH 557 0
DWIDTH 9 0
BBX 9 10 0 2
BITMAP
3F00
6D00
6500
7500
7500
3500
3500
6E80
FF00
FE00
ENDCHAR
STARTCHAR two.sups
ENCODING -1
SWIDTH 585 0
DWIDTH 9 0
BBX 9 10 0 2
BITMAP
3F80
6E80
6580
7980
6E80
7100
D780
CF80
FF80
FE00
ENDCHAR
STARTCHAR three.sups
ENCODING -1
SWIDTH 584 0
DWIDTH 9 0
BBX 9 10 0 2
BITMAP
3F00
6C80
FE80
F300
3680
7D80
6180
6E80
FF00
FC00
ENDCHAR
STARTCHAR four.sups
ENCODING -1
SWIDTH 620 0
DWIDTH 10 0
BBX 9 11 0 1
BITMAP
3F80
5580
D580
D580
D180
CF80
E180
FC80
7C80
0F00
0E00
ENDCHAR
ENDFONT
